<svg width="44" height="44" viewBox="0 0 44 44" fill="none" xmlns="http://www.w3.org/2000/svg">
<path d="M22 0.25C27.7666 0.256158 33.2955 2.54937 37.373 6.62695C41.4506 10.7045 43.7438 16.2334 43.75 22L43.7354 22.8057C43.5864 26.8252 42.3245 30.7309 40.084 34.084C37.6941 37.6605 34.2974 40.4486 30.3232 42.0947C26.349 43.7408 21.9758 44.1712 17.7568 43.332C13.5377 42.4928 9.66191 40.4217 6.62012 37.3799C3.57833 34.3381 1.5072 30.4623 0.667969 26.2432C-0.171233 22.0242 0.259152 17.651 1.90527 13.6768C3.55141 9.70263 6.33947 6.30592 9.91602 3.91602C13.2691 1.67553 17.1748 0.413603 21.1943 0.264648L22 0.25ZM29.2197 4.57031C25.7725 3.14244 21.9789 2.76915 18.3193 3.49707C14.6599 4.22502 11.2985 6.02183 8.66016 8.66016C6.02183 11.2985 4.22502 14.6599 3.49707 18.3193C2.76915 21.9789 3.14244 25.7725 4.57031 29.2197C5.99812 32.6667 8.41642 35.6126 11.5186 37.6855C14.6209 39.7585 18.2688 40.8652 22 40.8652C27.0016 40.8596 31.7973 38.8706 35.334 35.334C38.8706 31.7973 40.8596 27.0016 40.8652 22L40.8525 21.3018C40.7234 17.8151 39.629 14.4271 37.6855 11.5186C35.6126 8.41642 32.6667 5.99812 29.2197 4.57031ZM22 8.71191C22.3824 8.71191 22.7491 8.86347 23.0195 9.13379C23.29 9.40427 23.4424 9.77177 23.4424 10.1543V12.0957H27.0771C27.4596 12.0958 27.8263 12.2482 28.0967 12.5186C28.3671 12.789 28.5194 13.1557 28.5195 13.5381C28.5195 13.9206 28.3672 14.2881 28.0967 14.5586C27.8263 14.8289 27.4595 14.9804 27.0771 14.9805H19.4619C18.7224 14.9805 18.0132 15.2749 17.4902 15.7979C16.9673 16.3208 16.6729 17.03 16.6729 17.7695C16.6729 18.509 16.9674 19.2183 17.4902 19.7412C18.0131 20.2639 18.7225 20.5576 19.4619 20.5576H24.5381C26.0427 20.5576 27.4859 21.1558 28.5498 22.2197C29.6135 23.2836 30.2118 24.7261 30.2119 26.2305C30.2119 27.7351 29.6137 29.1783 28.5498 30.2422C27.4859 31.3061 26.0427 31.9043 24.5381 31.9043H23.4424V33.8457C23.4424 34.2282 23.29 34.5957 23.0195 34.8662C22.7491 35.1365 22.3824 35.2881 22 35.2881C21.6176 35.2881 21.2509 35.1365 20.9805 34.8662C20.71 34.5957 20.5576 34.2282 20.5576 33.8457V31.9043H16.9229C16.5404 31.9042 16.1737 31.7518 15.9033 31.4814C15.6329 31.2111 15.4806 30.8443 15.4805 30.4619C15.4805 30.0794 15.6328 29.7119 15.9033 29.4414C16.1737 29.1711 16.5405 29.0196 16.9229 29.0195H24.5381C25.2776 29.0195 25.9868 28.7251 26.5098 28.2021C27.0327 27.6792 27.3271 26.97 27.3271 26.2305C27.3271 25.491 27.0326 24.7817 26.5098 24.2588C25.9869 23.7361 25.2775 23.4424 24.5381 23.4424H19.4619C17.9573 23.4424 16.5141 22.8442 15.4502 21.7803C14.3865 20.7165 13.7882 19.2739 13.7881 17.7695C13.7881 16.2649 14.3863 14.8217 15.4502 13.7578C16.5141 12.6939 17.9573 12.0957 19.4619 12.0957H20.5576V10.1543C20.5576 9.77177 20.71 9.40427 20.9805 9.13379C21.2509 8.86347 21.6176 8.71192 22 8.71191Z" fill="#1D1D1F" stroke="white" stroke-width="0.5"/>
</svg>
