<svg xmlns="http://www.w3.org/2000/svg" width="1920" height="1080" version="1.0" viewBox="0 0 1440 810"><path fill="#585d60" d="M719.875 455.102h-5.5V342.73h62.559v5.504h-57.059Zm0 0"/><path fill="#585d60" d="M839.336 457.855h-65.313V342.73h65.309Zm-59.809-5.503h54.309V348.234h-54.313Zm0 0"/><path fill="#585d60" d="M865.547 455.102h-5.485V348.234H836.41v-5.504h29.137Zm-98.008-82.774h-18.75v-18.625h18.75Zm-13.25-5.5h7.75v-7.637h-7.75Zm49.7 5.5h-18.65v-18.625h18.747Zm-13.247-5.5h7.746v-7.637h-7.648Zm-674.07 88.274h-5.5V68.312H356.3v5.489H116.67Zm0 0"/><path fill="#585d60" d="M318.348 154.238H151.922v-31.441h166.426Zm-160.946-5.5h155.446v-20.441H157.402Zm160.946 70.844H151.922v-31.46h166.426Zm-160.946-5.488h155.446V193.62H157.402Zm160.946 70.816H151.922v-31.43h166.426Zm-160.946-5.488h155.446V258.96H157.402Zm160.946 70.812H151.922V318.79h166.426Zm-160.946-5.5h155.446v-20.441H157.402Zm134.965 113.121H177.883v-52.55h114.504Zm-109.008-5.503h103.52v-41.543H183.387Zm227.266 5.503h-57.418V68.312h57.418Zm-51.934-5.503h46.434V73.797h-46.434Zm0 0"/><path fill="#585d60" d="M-.973 452.352h1445.817v5.503H-.973Zm0 0"/><path fill="#0081ff" d="M1156.777 502.566c-14.32 0-21.71-6.375-28.257-11.992-6.543-5.601-11.63-10-22.903-10-11.254 0-16.656 4.645-22.887 10-6.246 5.356-13.933 11.992-28.257 11.992-14.325 0-21.743-6.375-28.285-11.992-6.547-5.601-11.63-10-22.876-10-11.242 0-16.656 4.645-22.886 10-6.246 5.356-13.934 11.992-28.258 11.992-14.32 0-21.715-6.375-28.258-11.992-6.547-5.601-11.633-10-22.902-10-11.27 0-16.63 4.645-22.871 10-6.235 5.356-13.953 11.992-28.274 11.992-14.32 0-21.71-6.375-28.258-11.992-6.543-5.601-11.628-10-22.87-10v-8.238c14.32 0 21.71 6.375 28.257 11.98 6.543 5.598 11.625 9.997 22.871 9.997 11.242 0 16.657-4.61 22.887-9.997 6.246-5.39 13.934-11.98 28.258-11.98 14.32 0 21.742 6.375 28.258 11.98 6.515 5.598 11.629 9.997 22.902 9.997 11.27 0 16.656-4.61 22.887-9.997 6.246-5.39 13.933-11.98 28.258-11.98 14.324 0 21.71 6.375 28.257 11.98 6.547 5.598 11.63 9.997 22.903 9.997 11.273 0 16.488-4.61 22.875-9.997 6.37-5.39 13.949-11.98 28.265-11.98 14.328 0 21.719 6.375 28.262 11.98 6.547 5.598 11.66 9.997 22.902 9.997 11.243 0 16.657-4.61 22.903-9.997 6.23-5.39 13.949-11.98 28.27-11.98v8.238c-11.259 0-16.657 4.645-22.884 10-6.246 5.356-13.968 11.992-28.289 11.992Zm-453.89 0c-14.438 0-21.985-6.347-28.504-11.992-6.516-5.629-11.742-10-23.14-10-11.415 0-16.833 4.645-23.15 10-6.312 5.356-14.05 11.992-28.468 11.992-14.441 0-22-6.347-28.488-11.992-6.473-5.629-11.762-10-23.13-10-11.39 0-16.859 4.645-23.148 10-6.3 5.356-14.05 11.992-28.488 11.992-14.422 0-21.98-6.347-28.473-11.992-6.488-5.629-11.757-10-23.14-10-11.375 0-16.844 4.645-23.149 10-6.285 5.356-14.035 11.992-28.472 11.992-14.438 0-21.985-6.347-28.473-11.992-6.488-5.629-11.773-10-23.144-10-11.387 0-16.832 4.645-23.145 10-6.316 5.356-14.05 11.992-28.473 11.992-14.437 0-22-6.347-28.488-11.992-6.473-5.629-11.758-10-23.129-10v-8.238c14.422 0 21.985 6.375 28.473 11.98 6.492 5.598 11.758 9.997 23.144 9.997 11.371 0 16.813-4.641 23.145-9.997 6.316-5.359 14.035-11.98 28.473-11.98 14.421 0 21.984 6.375 28.472 11.98 6.492 5.598 11.77 9.997 23.145 9.997 11.386 0 16.828-4.641 23.144-9.997 6.32-5.359 14.051-11.98 28.477-11.98 14.433 0 22 6.375 28.469 11.98 6.492 5.598 11.773 9.997 23.148 9.997 11.383 0 16.828-4.641 23.14-9.997 6.337-5.359 14.051-11.98 28.493-11.98 14.418 0 21.984 6.375 28.469 11.98 6.488 5.598 11.757 9.997 23.148 9.997 11.367 0 16.813-4.641 23.14-9.997 6.32-5.359 14.067-11.98 28.477-11.98s21.985 6.375 28.5 11.98c6.52 5.598 11.758 9.997 23.145 9.997 11.37 0 16.843-4.641 23.144-9.997 6.29-5.359 14.063-11.98 28.504-11.98v8.238c-11.402 0-16.844 4.645-23.148 10-6.285 5.356-14.176 11.992-28.5 11.992Zm0 0"/><path fill="#585d60" d="M148.082 592.64v-31.398h23.832v3.438H152.38v10.086h18.215v3.437h-18.215v10.95h20.45v3.492Zm44.598 0-6.532-9.91-6.527 9.915h-4.297l8.594-12.375-8.195-11.75h4.41l6.015 9.398 6.016-9.398h4.473l-8.196 11.69 8.707 12.43Zm11.086-12.144c0 3.207.484 5.602 1.488 7.16 1.027 1.535 2.547 2.293 4.582 2.293 1.45 0 2.652-.37 3.61-1.144.945-.801 1.546-2.004 1.777-3.61l4.011.29c-.316 2.288-1.308 4.148-2.984 5.554-1.648 1.375-3.75 2.066-6.3 2.066-3.368 0-5.942-1.066-7.735-3.21-1.758-2.133-2.633-5.243-2.633-9.34 0-4.043.875-7.133 2.633-9.282 1.789-2.136 4.355-3.21 7.68-3.21 2.476 0 4.523.66 6.128 1.945 1.633 1.265 2.665 3.023 3.094 5.273l-4.125.29c-.199-1.337-.73-2.38-1.605-3.157-.84-.8-2.047-1.203-3.61-1.203-2.105 0-3.636.719-4.582 2.121-.957 1.422-1.43 3.816-1.43 7.164Zm23.742-7.848c.875-1.562 1.906-2.71 3.09-3.441 1.218-.758 2.765-1.144 4.644-1.144 2.637 0 4.551.66 5.785 1.945 1.215 1.304 1.832 3.484 1.832 6.535v16.098h-4.011v-15.293c0-1.676-.157-2.934-.457-3.782a3.236 3.236 0 0 0-1.543-1.832c-.735-.375-1.723-.578-2.98-.578-1.88 0-3.384.676-4.528 2.008-1.145 1.305-1.723 3.066-1.723 5.274v14.21h-4.008v-33.12h4.012v8.652c0 .886-.027 1.82-.059 2.808-.011.555-.05 1.11-.113 1.664Zm27.566 20.457c-2.406 0-4.226-.632-5.441-1.894-1.235-1.285-1.836-3.066-1.836-5.328 0-2.48.82-4.383 2.465-5.73 1.633-1.333 4.297-2.036 7.965-2.122l5.382-.11v-1.32c0-1.949-.43-3.34-1.257-4.183-.805-.879-2.11-1.32-3.899-1.32-1.805 0-3.121.316-3.953.918-.8.617-1.285 1.59-1.43 2.922l-4.183-.344c.644-4.356 3.851-6.532 9.625-6.532 3.05 0 5.343.715 6.875 2.122 1.52 1.375 2.293 3.379 2.293 6.011v10.38c0 1.187.14 2.09.457 2.69.3.614.886.915 1.773.915.375 0 .82-.059 1.32-.172v2.523c-1.02.23-2.05.344-3.093.344-1.489 0-2.578-.371-3.262-1.145-.66-.804-1.035-2.035-1.148-3.726h-.118c-1.027 1.875-2.234 3.191-3.609 3.953-1.344.758-2.977 1.148-4.926 1.148Zm.914-3.039c1.492 0 2.809-.312 3.953-.972a7.481 7.481 0 0 0 1.504-1.18 7.446 7.446 0 0 0 1.895-3.289c.172-.617.262-1.25.27-1.895v-2.003l-4.41.113c-1.876.043-3.31.23-4.298.574a4.358 4.358 0 0 0-2.234 1.66c-.504.735-.746 1.703-.746 2.922 0 1.305.348 2.32 1.031 3.04.719.687 1.734 1.03 3.035 1.03Zm33.64 2.575v-15.293c0-1.606-.155-2.836-.456-3.727-.317-.871-.8-1.504-1.488-1.887-.688-.375-1.707-.578-3.036-.578-1.921 0-3.441.676-4.586 2.008-1.117 1.348-1.66 3.18-1.66 5.5v13.984h-4.011V573.68c0-2.825-.043-4.54-.114-5.157h3.782v.633c.027.313.058.672.058 1.086.028.43.074 1.23.11 2.41h.062c.918-1.68 1.977-2.87 3.207-3.558 1.219-.688 2.723-1.028 4.527-1.028 2.637 0 4.551.672 5.786 2.004 1.214 1.305 1.832 3.47 1.832 6.477v16.098Zm19.208 9.46c-2.637 0-4.742-.515-6.305-1.546-1.531-1.032-2.52-2.512-2.98-4.414l4.012-.57c.257 1.14.863 2.003 1.777 2.577.918.602 2.12.914 3.61.914 4.01 0 6.01-2.347 6.01-7.046v-3.84h-.054c-.773 1.531-1.816 2.691-3.152 3.496-1.3.773-2.836 1.144-4.582 1.144-2.977 0-5.184-.972-6.586-2.921-1.375-1.98-2.066-5.07-2.066-9.282 0-4.242.746-7.363 2.238-9.402 1.52-2.059 3.797-3.094 6.816-3.094 1.719 0 3.207.403 4.469 1.203 1.258.774 2.238 1.88 2.922 3.328h.055c0-.46.015-1.218.058-2.293.074-1.105.129-1.722.172-1.835h3.84c-.086.8-.117 2.464-.117 4.984v18.453c0 6.762-3.38 10.145-10.137 10.145Zm6.129-21.546c0-1.95-.274-3.625-.805-5.043-.543-1.407-1.3-2.496-2.289-3.266a5.013 5.013 0 0 0-3.262-1.148c-2.066 0-3.582.746-4.53 2.238-.915 1.484-1.376 3.894-1.376 7.219 0 3.32.43 5.715 1.32 7.16.875 1.422 2.364 2.12 4.47 2.12 1.288 0 2.417-.358 3.378-1.089.988-.758 1.746-1.832 2.293-3.207.527-1.375.8-3.039.8-4.988Zm13.187.86c0 2.792.575 4.925 1.723 6.417 1.145 1.492 2.82 2.234 5.035 2.234 1.723 0 3.098-.343 4.125-1.035 1.067-.683 1.79-1.558 2.18-2.633l3.55.973c-1.46 3.824-4.738 5.734-9.855 5.734-3.55 0-6.27-1.066-8.133-3.21-1.875-2.133-2.804-5.29-2.804-9.454 0-4.011.93-7.066 2.804-9.171 1.86-2.133 4.528-3.207 7.961-3.207 7.106 0 10.66 4.285 10.66 12.835v.516Zm13.063-3.04c-.203-2.547-.832-4.41-1.89-5.555-1.075-1.175-2.626-1.78-4.641-1.78-1.95 0-3.493.66-4.641 1.948-1.117 1.305-1.719 3.094-1.832 5.39Zm37.71 122.898c-3.48 0-6.187 1.13-8.132 3.38-1.922 2.218-2.867 5.273-2.867 9.167 0 3.867.988 6.977 2.98 9.34 2.016 2.336 4.754 3.496 8.192 3.496 4.425 0 7.75-2.18 9.972-6.531l3.434 1.719c-1.305 2.722-3.121 4.781-5.442 6.187-2.332 1.418-5.042 2.121-8.136 2.121-3.18 0-5.93-.648-8.25-1.949-2.336-1.351-4.094-3.242-5.27-5.672-1.23-2.437-1.832-5.343-1.832-8.71 0-5 1.344-8.915 4.07-11.747 2.704-2.824 6.442-4.242 11.227-4.242 3.352 0 6.16.66 8.422 1.945 2.246 1.305 3.89 3.243 4.922 5.79l-4.008 1.374c-.73-1.832-1.922-3.222-3.55-4.18-1.606-.988-3.524-1.491-5.731-1.491Zm38.813 16.329c0 4.242-.941 7.394-2.804 9.453-1.88 2.066-4.57 3.097-8.079 3.097-3.523 0-6.187-1.062-8.023-3.21-1.8-2.176-2.687-5.286-2.687-9.34 0-8.325 3.605-12.493 10.824-12.493 3.695 0 6.418 1.016 8.136 3.036 1.747 2.039 2.633 5.187 2.633 9.457Zm-4.238 0c0-3.325-.504-5.73-1.488-7.22-1.004-1.519-2.664-2.292-4.989-2.292-2.332 0-4.035.773-5.093 2.293-1.032 1.531-1.547 3.941-1.547 7.219 0 3.18.512 5.558 1.547 7.164 1.027 1.605 2.644 2.406 4.867 2.406 2.406 0 4.125-.758 5.156-2.29 1.031-1.562 1.547-3.984 1.547-7.28Zm29.629-.055c0 8.41-2.961 12.605-8.879 12.605-3.707 0-6.215-1.39-7.504-4.183h-.117c.074.113.117 1.375.117 3.777v9.402h-4.012v-28.652c0-2.476-.058-4.125-.171-4.93h3.894c0 .047.016.258.059.633.03.383.074.961.113 1.719.031.73.058 1.246.058 1.547h.114c.691-1.492 1.62-2.582 2.808-3.266 1.176-.691 2.723-1.031 4.641-1.031 2.98 0 5.184 1 6.645 2.977 1.492 1.992 2.238 5.132 2.238 9.402Zm-4.238.055c0-3.352-.457-5.743-1.375-7.164-.887-1.446-2.32-2.176-4.297-2.176-1.602 0-2.864.343-3.781 1.031-.887.66-1.547 1.687-2.004 3.094-.461 1.418-.688 3.265-.688 5.558 0 3.137.484 5.473 1.488 6.992 1.032 1.493 2.664 2.235 4.93 2.235 1.977 0 3.434-.719 4.352-2.176.918-1.492 1.375-3.953 1.375-7.394Zm29.629-.055c0 8.41-2.961 12.605-8.88 12.605-3.706 0-6.214-1.39-7.507-4.183h-.11c.07.113.11 1.375.11 3.777v9.402h-4.008v-28.652c0-2.476-.059-4.125-.172-4.93h3.895c0 .047.015.258.058.633.031.383.074.961.114 1.719.03.73.058 1.246.058 1.547h.113c.692-1.492 1.622-2.582 2.809-3.266 1.176-.691 2.723-1.031 4.64-1.031 2.981 0 5.184 1 6.645 2.977 1.492 1.992 2.238 5.132 2.238 9.402Zm-4.239.055c0-3.352-.457-5.743-1.375-7.164-.886-1.446-2.32-2.176-4.297-2.176-1.601 0-2.863.343-3.78 1.031-.888.66-1.548 1.687-2.005 3.094-.46 1.418-.691 3.265-.691 5.558 0 3.137.488 5.473 1.492 6.992 1.031 1.493 2.664 2.235 4.926 2.235 1.98 0 3.437-.719 4.355-2.176.918-1.492 1.375-3.953 1.375-7.394Zm12.274.863c0 2.789.57 4.922 1.718 6.418 1.145 1.488 2.825 2.23 5.04 2.23 1.718 0 3.093-.343 4.125-1.031 1.062-.687 1.789-1.559 2.175-2.637l3.555.977c-1.461 3.824-4.742 5.73-9.856 5.73-3.554 0-6.273-1.062-8.136-3.21-1.871-2.133-2.805-5.286-2.805-9.454 0-4.011.93-7.066 2.809-9.168 1.86-2.136 4.523-3.21 7.96-3.21 7.102 0 10.657 4.285 10.657 12.835v.516Zm13.058-3.04c-.199-2.55-.828-4.413-1.886-5.558-1.075-1.176-2.622-1.777-4.645-1.777-1.945 0-3.492.66-4.64 1.945-1.114 1.305-1.715 3.098-1.833 5.39Zm9.352 14.27v-18.511c0-1.676-.043-3.551-.117-5.618h3.78c.114 2.754.173 4.403.173 4.93h.113c.602-2.062 1.336-3.469 2.18-4.238.832-.762 2.015-1.149 3.55-1.149.532 0 1.063.086 1.606.23v3.669a8.449 8.449 0 0 0-2.121-.23c-1.688 0-2.961.734-3.84 2.179-.887 1.414-1.316 3.48-1.316 6.184v12.55Zm42.379-28.422c-3.48 0-6.184 1.13-8.133 3.38-1.922 2.218-2.867 5.273-2.867 9.167 0 3.867.992 6.977 2.98 9.34 2.02 2.336 4.758 3.496 8.192 3.496 4.425 0 7.75-2.18 9.968-6.531l3.438 1.719c-1.3 2.722-3.121 4.781-5.442 6.187-2.335 1.418-5.043 2.121-8.136 2.121-3.18 0-5.93-.648-8.25-1.949-2.336-1.351-4.09-3.242-5.27-5.672-1.23-2.437-1.832-5.343-1.832-8.71 0-5 1.348-8.915 4.07-11.747 2.704-2.824 6.442-4.242 11.227-4.242 3.352 0 6.16.66 8.422 1.945 2.246 1.305 3.894 3.243 4.926 5.79l-4.008 1.374c-.734-1.832-1.922-3.222-3.559-4.18-1.601-.988-3.52-1.491-5.726-1.491Zm24.547 28.88c-2.403 0-4.223-.633-5.442-1.891-1.23-1.29-1.832-3.067-1.832-5.332 0-2.477.817-4.383 2.465-5.727 1.633-1.332 4.297-2.039 7.965-2.121l5.383-.113v-1.32c0-1.95-.43-3.34-1.262-4.184-.8-.875-2.102-1.32-3.895-1.32-1.804 0-3.12.316-3.953.918-.804.617-1.289 1.593-1.43 2.921l-4.183-.343c.645-4.352 3.848-6.532 9.625-6.532 3.05 0 5.34.715 6.875 2.121 1.516 1.375 2.29 3.38 2.29 6.012v10.38c0 1.187.144 2.089.46 2.69.3.614.887.915 1.773.915.375 0 .817-.055 1.32-.172v2.523c-1.019.235-2.05.348-3.093.344-1.488 0-2.578-.371-3.266-1.145-.66-.804-1.03-2.035-1.148-3.722h-.113c-1.032 1.87-2.235 3.187-3.61 3.953-1.347.758-2.976 1.144-4.93 1.144Zm.918-3.04c1.492 0 2.808-.312 3.957-.972a7.707 7.707 0 0 0 1.504-1.18 7.57 7.57 0 0 0 1.894-3.29c.168-.616.258-1.25.266-1.89v-2.008l-4.414.114c-1.871.043-3.305.23-4.293.578a4.358 4.358 0 0 0-2.235 1.66c-.5.73-.746 1.703-.746 2.922 0 1.3.344 2.316 1.031 3.039.72.684 1.735 1.027 3.036 1.027Zm38.738-9.566c0 8.41-2.965 12.605-8.879 12.605-1.832 0-3.367-.332-4.582-.972-1.188-.692-2.164-1.75-2.922-3.211h-.055c0 .46-.047 1.176-.117 2.12-.043.919-.086 1.462-.113 1.602h-3.895c.11-.8.172-2.464.172-4.988V696.57h4.008v9.457c0 .961-.043 2.106-.113 3.438h.113c.719-1.563 1.688-2.664 2.922-3.324 1.215-.688 2.75-1.032 4.582-1.032 3.05 0 5.289 1.032 6.703 3.094 1.45 2.063 2.176 5.188 2.176 9.344Zm-4.238.11c0-3.348-.442-5.759-1.317-7.22-.89-1.488-2.332-2.234-4.355-2.234-2.262 0-3.895.79-4.926 2.348-1.031 1.535-1.547 3.984-1.547 7.336 0 3.183.488 5.531 1.492 7.05 1.028 1.493 2.66 2.235 4.922 2.235 2.024 0 3.469-.742 4.356-2.235.918-1.492 1.375-3.91 1.375-7.277Zm9.234 12.038V696.57h4.012v33.121Zm13.18-11.23c0 2.789.574 4.922 1.722 6.418 1.14 1.488 2.82 2.23 5.04 2.23 1.714 0 3.09-.343 4.124-1.031 1.059-.687 1.79-1.559 2.176-2.637l3.555.977c-1.465 3.824-4.742 5.73-9.856 5.73-3.55 0-6.273-1.062-8.136-3.21-1.875-2.133-2.809-5.286-2.809-9.454 0-4.011.934-7.066 2.809-9.168 1.863-2.136 4.527-3.21 7.965-3.21 7.101 0 10.656 4.285 10.656 12.835v.516Zm13.062-3.04c-.2-2.55-.828-4.413-1.89-5.558-1.075-1.176-2.622-1.777-4.641-1.777-1.945 0-3.496.66-4.637 1.945-1.12 1.305-1.726 3.098-1.836 5.39Zm12.735-134.09c0-5.073 1.343-9.015 4.066-11.808 2.75-2.777 6.601-4.183 11.574-4.183 3.465 0 6.297.601 8.477 1.781 2.176 1.145 3.84 3.02 4.984 5.61l-4.066 1.206c-.89-1.789-2.106-3.093-3.668-3.898-1.578-.828-3.52-1.258-5.844-1.258-3.637 0-6.402 1.113-8.305 3.324-1.922 2.176-2.867 5.254-2.867 9.227 0 3.976 1.004 7.101 3.04 9.394 2.015 2.293 4.823 3.442 8.417 3.442 2.063 0 3.969-.305 5.73-.918 1.79-.606 3.239-1.45 4.352-2.524v-5.671h-9.394v-3.555h13.293v10.832c-1.649 1.687-3.696 3.008-6.13 3.957a21.788 21.788 0 0 1-7.847 1.375c-3.297 0-6.117-.648-8.48-1.953-2.399-1.332-4.211-3.219-5.442-5.668-1.262-2.48-1.89-5.395-1.89-8.711Zm36.37 15.872v-18.508c0-1.676-.042-3.554-.117-5.617h3.782c.113 2.75.172 4.398.172 4.926h.117c.601-2.059 1.328-3.465 2.172-4.238.832-.758 2.02-1.145 3.558-1.145.528 0 1.055.086 1.602.227v3.668a8.407 8.407 0 0 0-2.121-.227c-1.688 0-2.965.73-3.836 2.176-.89 1.418-1.32 3.484-1.32 6.187v12.551Zm18.18-11.234c0 2.797.575 4.93 1.72 6.422 1.144 1.488 2.82 2.234 5.038 2.234 1.723 0 3.098-.344 4.125-1.035 1.063-.684 1.793-1.559 2.18-2.633l3.55.973c-1.46 3.824-4.738 5.734-9.855 5.734-3.547 0-6.27-1.066-8.133-3.211-1.875-2.133-2.808-5.289-2.808-9.453 0-4.012.933-7.067 2.808-9.172 1.86-2.137 4.528-3.207 7.961-3.207 7.106 0 10.66 4.281 10.66 12.836v.512Zm13.063-3.035c-.203-2.547-.832-4.41-1.89-5.56-1.075-1.175-2.622-1.776-4.641-1.776-1.946 0-3.493.66-4.641 1.949-1.117 1.304-1.719 3.094-1.832 5.386Zm12.328 3.035c0 2.797.574 4.93 1.723 6.422 1.144 1.488 2.816 2.234 5.035 2.234 1.722 0 3.097-.344 4.125-1.035 1.066-.684 1.789-1.559 2.18-2.633l3.55.973c-1.46 3.824-4.738 5.734-9.855 5.734-3.551 0-6.27-1.066-8.133-3.211-1.875-2.133-2.809-5.289-2.809-9.453 0-4.012.934-7.067 2.809-9.172 1.86-2.137 4.527-3.207 7.96-3.207 7.106 0 10.661 4.281 10.661 12.836v.512Zm13.062-3.035c-.203-2.547-.832-4.41-1.89-5.56-1.074-1.175-2.625-1.776-4.64-1.776-1.95 0-3.493.66-4.641 1.949-1.118 1.304-1.72 3.094-1.832 5.386Zm24.586 14.269v-15.3c0-1.606-.156-2.837-.457-3.727-.316-.871-.804-1.504-1.488-1.887-.691-.375-1.707-.578-3.035-.578-1.922 0-3.442.676-4.586 2.008-1.117 1.347-1.66 3.18-1.66 5.5v13.984h-4.012v-18.969c0-2.824-.043-4.543-.113-5.156h3.777v.629c.031.316.063.676.063 1.09.027.43.074 1.23.109 2.41h.059c.918-1.68 1.98-2.871 3.207-3.559 1.218-.687 2.726-1.027 4.53-1.027 2.638 0 4.552.672 5.786 2.004 1.215 1.305 1.832 3.469 1.832 6.476v16.098Zm48.043-8.656c0 2.91-1.144 5.16-3.433 6.765-2.262 1.575-5.43 2.348-9.512 2.348-7.68 0-12.133-2.664-13.348-8.023l4.121-.801c.489 1.875 1.504 3.265 3.04 4.183 1.558.887 3.668 1.32 6.3 1.32 2.75 0 4.867-.476 6.36-1.433 1.492-.945 2.234-2.32 2.234-4.125 0-1.031-.226-1.863-.684-2.523a5.297 5.297 0 0 0-1.953-1.606 14.11 14.11 0 0 0-3.035-1.027c-1.3-.29-2.601-.598-3.894-.918-2.493-.531-4.383-1.063-5.672-1.606-1.305-.574-2.32-1.203-3.035-1.894a7.56 7.56 0 0 1-1.723-2.348 7.915 7.915 0 0 1-.57-3.152c0-2.664 1.027-4.727 3.093-6.188 2.063-1.449 5-2.18 8.825-2.18 3.547 0 6.257.56 8.132 1.665 1.907 1.074 3.235 2.922 4.012 5.558l-4.183.684c-.457-1.629-1.348-2.82-2.637-3.547-1.305-.762-3.094-1.148-5.383-1.148-2.492 0-4.402.43-5.727 1.261-1.351.801-2.007 2.036-2.007 3.668 0 1 .242 1.817.746 2.465.527.614 1.27 1.14 2.234 1.602.988.43 2.918.945 5.781 1.547l2.871.691c.989.227 1.915.512 2.805.856a14.6 14.6 0 0 1 2.461 1.148c.762.43 1.406.941 1.95 1.543.574.617 1.003 1.363 1.32 2.238.34.844.511 1.836.511 2.977Zm14.47 8.484a16.308 16.308 0 0 1-4.071.516c-3.203 0-4.809-1.805-4.809-5.446v-16.097h-2.808v-2.926h2.921l1.204-5.39h2.695v5.39h4.469v2.922h-4.473v15.246c0 1.145.188 1.977.574 2.465.375.457 1.031.683 1.946.683.53 0 1.32-.113 2.351-.343Zm3.46.172v-18.508c0-1.676-.043-3.554-.113-5.617h3.777c.117 2.75.176 4.398.176 4.926h.11c.605-2.059 1.335-3.465 2.179-4.238.832-.758 2.02-1.145 3.55-1.145.532 0 1.063.086 1.606.227v3.668a8.395 8.395 0 0 0-2.117-.227c-1.691 0-2.969.73-3.84 2.176-.887 1.418-1.32 3.484-1.32 6.187v12.551Zm18.184-11.234c0 2.797.57 4.93 1.718 6.422 1.145 1.488 2.82 2.234 5.043 2.234 1.715 0 3.09-.344 4.125-1.035 1.059-.684 1.79-1.559 2.172-2.633l3.555.973c-1.461 3.824-4.742 5.734-9.852 5.734-3.558 0-6.273-1.066-8.14-3.211-1.875-2.133-2.805-5.289-2.805-9.453 0-4.012.93-7.067 2.809-9.172 1.863-2.137 4.523-3.207 7.96-3.207 7.106 0 10.657 4.281 10.657 12.836v.512Zm13.058-3.035c-.199-2.547-.828-4.41-1.886-5.56-1.075-1.175-2.622-1.776-4.645-1.776-1.945 0-3.492.66-4.64 1.949-1.114 1.304-1.716 3.094-1.833 5.386Zm12.332 3.035c0 2.797.57 4.93 1.715 6.422 1.149 1.488 2.824 2.234 5.043 2.234 1.723 0 3.094-.344 4.125-1.035 1.063-.684 1.793-1.559 2.176-2.633l3.555.973c-1.461 3.824-4.743 5.734-9.856 5.734-3.55 0-6.27-1.066-8.133-3.211-1.879-2.133-2.808-5.289-2.808-9.453 0-4.012.93-7.067 2.808-9.172 1.864-2.137 4.524-3.207 7.961-3.207 7.106 0 10.656 4.281 10.656 12.836v.512Zm13.059-3.035c-.195-2.547-.828-4.41-1.887-5.56-1.074-1.175-2.621-1.776-4.644-1.776-1.946 0-3.493.66-4.641 1.949-1.113 1.304-1.715 3.094-1.832 5.386Zm18.574 14.097a16.33 16.33 0 0 1-4.07.516c-3.207 0-4.809-1.805-4.809-5.446v-16.097h-2.808v-2.926h2.921l1.204-5.39h2.695v5.39h4.465v2.922h-4.465v15.246c0 1.145.183 1.977.57 2.465.371.457 1.031.683 1.95.683.53 0 1.316-.113 2.343-.343Zm-193.898 26.54c-3.48 0-6.188 1.132-8.137 3.382-1.918 2.219-2.86 5.27-2.86 9.168 0 3.867.985 6.973 2.977 9.34 2.016 2.336 4.754 3.496 8.192 3.496 4.425 0 7.746-2.18 9.968-6.531l3.438 1.715c-1.305 2.726-3.121 4.785-5.442 6.19-2.336 1.419-5.043 2.122-8.136 2.122-3.18 0-5.93-.648-8.25-1.95-2.336-1.35-4.094-3.241-5.27-5.671-1.23-2.438-1.832-5.344-1.832-8.711 0-5 1.344-8.914 4.07-11.75 2.7-2.82 6.442-4.238 11.227-4.238 3.351 0 6.16.66 8.418 1.945 2.25 1.305 3.898 3.242 4.926 5.79l-4.012 1.374c-.727-1.832-1.914-3.223-3.547-4.18-1.605-.992-3.523-1.492-5.73-1.492Zm24.547 28.882c-2.407 0-4.223-.633-5.442-1.894-1.23-1.286-1.832-3.063-1.832-5.329 0-2.476.816-4.382 2.461-5.73 1.633-1.328 4.297-2.035 7.965-2.117l5.387-.117v-1.317c0-1.95-.434-3.34-1.262-4.183-.805-.875-2.106-1.32-3.899-1.32-1.804 0-3.12.316-3.953.917-.8.617-1.285 1.59-1.43 2.922l-4.183-.344c.648-4.351 3.852-6.53 9.625-6.53 3.05 0 5.344.714 6.875 2.12 1.52 1.375 2.293 3.38 2.293 6.012v10.375c0 1.191.14 2.094.457 2.695.3.613.887.914 1.777.914.371 0 .817-.054 1.317-.172v2.524c-1.016.23-2.047.347-3.094.344-1.488 0-2.578-.372-3.262-1.149-.66-.8-1.035-2.035-1.148-3.723h-.113c-1.036 1.875-2.239 3.196-3.614 3.957-1.343.758-2.976 1.145-4.926 1.145Zm.917-3.039c1.493 0 2.81-.316 3.954-.977a7.339 7.339 0 0 0 1.507-1.18 7.545 7.545 0 0 0 1.895-3.284c.168-.622.258-1.25.266-1.895v-2.004l-4.414.113c-1.875.043-3.31.23-4.293.575a4.412 4.412 0 0 0-2.239 1.664c-.5.73-.742 1.703-.742 2.922 0 1.3.344 2.316 1.027 3.035.72.687 1.735 1.031 3.04 1.031Zm38.739-9.566c0 8.406-2.965 12.605-8.88 12.605-1.835 0-3.366-.332-4.585-.977-1.188-.687-2.16-1.746-2.922-3.21h-.055c0 .46-.043 1.175-.117 2.125-.039.918-.082 1.46-.11 1.601h-3.898c.11-.8.172-2.465.172-4.988v-28.133h4.008v9.457c0 .961-.039 2.106-.113 3.434h.113c.719-1.559 1.691-2.66 2.922-3.32 1.219-.688 2.75-1.032 4.586-1.032 3.05 0 5.285 1.031 6.703 3.094 1.445 2.062 2.176 5.187 2.176 9.344Zm-4.239.109c0-3.348-.445-5.758-1.32-7.219-.887-1.488-2.332-2.238-4.351-2.238-2.262 0-3.899.793-4.93 2.351-1.027 1.536-1.547 3.985-1.547 7.336 0 3.184.488 5.532 1.492 7.047 1.028 1.492 2.664 2.239 4.926 2.239 2.02 0 3.469-.747 4.355-2.239.918-1.488 1.375-3.906 1.375-7.273Zm9.176-17.246v-3.84h4.012v3.84Zm0 29.281v-24.125h4.012v24.125Zm25.5 0v-15.3c0-1.602-.16-2.837-.46-3.723-.313-.875-.805-1.504-1.493-1.891-.683-.375-1.7-.574-3.035-.574-1.918 0-3.434.672-4.582 2.008-1.117 1.343-1.66 3.18-1.66 5.5v13.98h-4.012v-18.969c0-2.824-.043-4.539-.11-5.156h3.774v.633c.031.312.059.672.059 1.09.031.426.074 1.23.117 2.402h.058c.915-1.676 1.973-2.863 3.208-3.55 1.214-.688 2.718-1.032 4.523-1.032 2.64 0 4.555.676 5.785 2.004 1.219 1.305 1.836 3.469 1.836 6.477v16.101Zm13.13-11.23c0 2.793.57 4.925 1.718 6.418 1.144 1.492 2.824 2.234 5.043 2.234 1.715 0 3.09-.344 4.125-1.031 1.058-.688 1.789-1.563 2.172-2.637l3.558.977c-1.468 3.824-4.746 5.73-9.855 5.73-3.559 0-6.274-1.062-8.14-3.21-1.872-2.134-2.805-5.286-2.805-9.454 0-4.016.93-7.066 2.808-9.172 1.863-2.133 4.524-3.207 7.965-3.207 7.102 0 10.652 4.281 10.652 12.836v.512Zm13.058-3.04c-.196-2.55-.828-4.41-1.887-5.554-1.074-1.176-2.621-1.781-4.64-1.781-1.95 0-3.497.66-4.641 1.953-1.117 1.3-1.723 3.09-1.832 5.383Zm18.574 14.098a16.3 16.3 0 0 1-4.066.516c-3.207 0-4.813-1.8-4.813-5.445v-16.098h-2.809v-2.926h2.922l1.203-5.387h2.696v5.387h4.469v2.926h-4.473v15.242c0 1.145.191 1.98.574 2.461.375.46 1.031.688 1.95.688.53 0 1.32-.11 2.347-.34Zm294.855-76.566c0 2.98-.976 5.36-2.921 7.11-1.95 1.718-4.582 2.577-7.91 2.577h-9.22v12.262h-4.296v-31.402h13.234c3.504 0 6.242.832 8.192 2.465 1.945 1.648 2.921 3.98 2.921 6.988Zm-4.296 0c0-4.04-2.45-6.074-7.332-6.074h-8.422v12.433h8.593c4.766 0 7.16-2.117 7.16-6.36Zm9.828 21.949v-18.508c0-1.676-.047-3.554-.114-5.617h3.774c.117 2.75.176 4.398.176 4.926h.113c.601-2.059 1.332-3.465 2.18-4.238.828-.758 2.015-1.145 3.55-1.145.532 0 1.063.086 1.606.227v3.668a8.445 8.445 0 0 0-2.121-.227c-1.692 0-2.965.73-3.84 2.176-.887 1.418-1.316 3.484-1.316 6.187v12.551Zm35.539-12.09c0 4.238-.946 7.39-2.809 9.453-1.875 2.063-4.57 3.098-8.078 3.098-3.52 0-6.187-1.066-8.02-3.211-1.804-2.18-2.695-5.289-2.695-9.34 0-8.324 3.613-12.492 10.832-12.492 3.692 0 6.418 1.016 8.133 3.035 1.75 2.031 2.64 5.188 2.64 9.457Zm-4.239 0c0-3.324-.503-5.734-1.488-7.222-1.008-1.52-2.668-2.293-4.988-2.293-2.336 0-4.035.77-5.098 2.293-1.031 1.535-1.547 3.937-1.547 7.222 0 3.18.516 5.555 1.547 7.16 1.028 1.606 2.649 2.407 4.871 2.407 2.407 0 4.125-.758 5.157-2.29 1.027-1.562 1.546-3.984 1.546-7.277Zm29.63-.058c0 8.41-2.97 12.609-8.883 12.609-3.707 0-6.215-1.395-7.504-4.188h-.114c.075.114.114 1.375.114 3.782v9.402h-4.008v-28.656c0-2.477-.059-4.125-.172-4.926h3.895c0 .043.015.258.058.629.027.387.074.96.113 1.723.028.726.059 1.242.059 1.543h.11c.69-1.489 1.62-2.579 2.812-3.262 1.172-.692 2.723-1.035 4.637-1.035 2.984 0 5.187 1.004 6.648 2.98 1.488 1.992 2.234 5.13 2.234 9.399Zm-4.239.058c0-3.351-.46-5.746-1.375-7.164-.887-1.45-2.32-2.18-4.297-2.18-1.605 0-2.863.348-3.781 1.032-.89.66-1.547 1.691-2.008 3.097-.457 1.418-.687 3.262-.687 5.559 0 3.137.488 5.473 1.492 6.992 1.027 1.488 2.664 2.235 4.926 2.235 1.98 0 3.437-.72 4.355-2.18.914-1.492 1.375-3.953 1.375-7.39Zm12.27.856c0 2.797.574 4.93 1.718 6.422 1.145 1.488 2.82 2.234 5.04 2.234 1.722 0 3.093-.344 4.124-1.035 1.063-.684 1.793-1.559 2.18-2.633l3.55.973c-1.46 3.824-4.737 5.734-9.855 5.734-3.546 0-6.27-1.066-8.132-3.211-1.875-2.133-2.809-5.289-2.809-9.453 0-4.012.934-7.067 2.809-9.172 1.859-2.137 4.527-3.207 7.96-3.207 7.106 0 10.66 4.281 10.66 12.836v.512Zm13.062-3.035c-.203-2.547-.828-4.41-1.894-5.56-1.07-1.175-2.618-1.776-4.637-1.776-1.945 0-3.492.66-4.64 1.949-1.118 1.304-1.72 3.094-1.837 5.386Zm9.348 14.269v-18.508c0-1.676-.043-3.554-.113-5.617h3.78c.114 2.75.173 4.398.173 4.926h.113c.601-2.059 1.332-3.465 2.18-4.238.828-.758 2.015-1.145 3.55-1.145.528 0 1.059.086 1.602.227v3.668a8.395 8.395 0 0 0-2.117-.227c-1.688 0-2.969.73-3.84 2.176-.887 1.418-1.32 3.484-1.32 6.187v12.551Zm24.426-.172a16.308 16.308 0 0 1-4.07.516c-3.204 0-4.81-1.805-4.81-5.446v-16.097h-2.804v-2.926h2.922l1.203-5.39h2.691v5.39h4.47v2.922h-4.47v15.246c0 1.145.184 1.977.57 2.465.376.457 1.036.683 1.954.683.527 0 1.316-.113 2.344-.343Zm4.55 9.63a15.11 15.11 0 0 1-2.75-.231v-2.98c.575.073 1.203.112 1.891.112 2.477 0 4.437-1.832 5.902-5.5l.403-.976-9.57-24.008h4.296l5.043 13.352c.074.199.172.441.285.742.114.273.43 1.25.973 2.926.574 1.648.89 2.566.977 2.75l1.546-4.414 5.266-15.356h4.242l-9.281 24.125c-1 2.55-1.934 4.469-2.805 5.73-.843 1.262-1.804 2.192-2.863 2.81-1.035.6-2.223.917-3.559.917Zm-778.37-81.536h2.75v140.668h-2.75Zm0 0"/><path fill="#585d60" d="M506.66 528.785c0 .903-.129 1.785-.39 2.649a9.052 9.052 0 0 1-1.145 2.421 9.032 9.032 0 0 1-4.098 3.352 9.024 9.024 0 0 1-3.496.7 9.063 9.063 0 0 1-3.492-.7 8.783 8.783 0 0 1-2.965-1.98 8.996 8.996 0 0 1-1.976-2.957 8.992 8.992 0 0 1-.692-3.489c0-.601.059-1.195.172-1.785a9.13 9.13 0 0 1 3.883-5.809 9.024 9.024 0 0 1 1.582-.84 9.094 9.094 0 0 1 1.71-.519 9.11 9.11 0 0 1 1.782-.168c1.2 0 2.38.227 3.492.684a9.398 9.398 0 0 1 2.965 1.98 9.08 9.08 0 0 1 2.668 6.465Zm-431.68-70.93H40.45a19.38 19.38 0 0 1-6.958-1.363 18.734 18.734 0 0 1-5.972-3.851 18.767 18.767 0 0 1-3.282-4.211 18.764 18.764 0 0 1-1.976-4.957 17.219 17.219 0 0 1-.504-3.543 18.598 18.598 0 0 1 2.508-10.27 19.078 19.078 0 0 1 2.074-2.894 18.498 18.498 0 0 1 5.586-4.391 18.46 18.46 0 0 1 6.82-1.984v-1.32c0-1.231.125-2.446.371-3.669.23-1.199.59-2.375 1.063-3.504a19.65 19.65 0 0 1 1.73-3.253 19.104 19.104 0 0 1 2.336-2.836 17.396 17.396 0 0 1 2.852-2.336 18.376 18.376 0 0 1 3.246-1.735 18.41 18.41 0 0 1 7.176-1.43c2.496-.007 4.89.47 7.19 1.43a18.427 18.427 0 0 1 3.24 1.735c1.03.672 1.98 1.46 2.847 2.336a18.286 18.286 0 0 1 4.07 6.09 18.397 18.397 0 0 1 1.43 7.175v1.32c1.172.11 2.32.325 3.453.657 1.7.484 3.297 1.199 4.793 2.137a18.584 18.584 0 0 1 4 3.394 18.302 18.302 0 0 1 3.613 5.973c.399 1.101.715 2.234.903 3.394.195 1.149.285 2.32.27 3.492-.083 3.606-1.11 6.914-3.079 9.93a19.012 19.012 0 0 1-4.84 5.031 19.316 19.316 0 0 1-6.363 2.91c-1.14.27-2.293.442-3.465.512Zm-33.644-5.503h33.531a13.035 13.035 0 0 0 4.883-1.247 13.138 13.138 0 0 0 4.078-2.968 13.104 13.104 0 0 0 2.668-4.278c.613-1.597.906-3.254.879-4.968a13.145 13.145 0 0 0-1.035-4.934 12.976 12.976 0 0 0-2.809-4.18 13.086 13.086 0 0 0-4.156-2.859 13.128 13.128 0 0 0-4.926-1.086 9.654 9.654 0 0 0-1.258 0 2.585 2.585 0 0 1-2.363-.957 2.557 2.557 0 0 1-.61-1.164 2.577 2.577 0 0 1 .036-1.313c.406-1.488.547-2.996.426-4.535a13.139 13.139 0 0 0-3.688-8.168 13.231 13.231 0 0 0-3.672-2.683 13.527 13.527 0 0 0-2.86-1.035 13.093 13.093 0 0 0-4.54-.254c-.756.086-1.502.238-2.236.457a13.03 13.03 0 0 0-2.125.832 13.36 13.36 0 0 0-3.672 2.683 13.33 13.33 0 0 0-1.438 1.774c-.43.629-.8 1.293-1.117 1.988a13.209 13.209 0 0 0-1.156 5.934c.039 1.027.183 2.015.457 3.007.125.434.137.872.035 1.313a2.557 2.557 0 0 1-.61 1.164c-.28.352-.628.61-1.042.781-.414.172-.844.23-1.29.18a10.2 10.2 0 0 0-1.292 0c-1.758 0-3.465.332-5.086 1.004a12.924 12.924 0 0 0-4.305 2.879 12.986 12.986 0 0 0-2.883 4.312 12.901 12.901 0 0 0-1 5.07c0 1.762.328 3.465 1 5.083a13.042 13.042 0 0 0 2.883 4.316 13.285 13.285 0 0 0 4.305 2.863 13.137 13.137 0 0 0 5.086 1.02h.902Zm468.945-21.989a34.757 34.757 0 0 1-17.86-4.8 36.505 36.505 0 0 1-8.624 3.566c-1.504.406-3.02.703-4.567.902-1.55.215-3.109.32-4.671.317-1.563 0-3.118-.102-4.668-.301a37.594 37.594 0 0 1-4.582-.918 34.722 34.722 0 0 1-4.426-1.504 33.202 33.202 0 0 1-4.18-2.063 35.178 35.178 0 0 1-7.406-5.664 35.268 35.268 0 0 1-5.672-7.398 35.386 35.386 0 0 1-3.582-8.613 37.804 37.804 0 0 1-.918-4.586c-.2-1.543-.3-3.098-.3-4.656 0-3.852.6-7.606 1.82-11.258a35.111 35.111 0 0 1 5.27-10.102 35.412 35.412 0 0 1 8.187-7.937 35.44 35.44 0 0 1 10.273-4.938 35.439 35.439 0 0 1-.602-3.383c-.14-1.14-.214-2.289-.214-3.441a27.06 27.06 0 0 1 .171-3.422c.118-1.148.301-2.277.563-3.394.242-1.125.559-2.227.941-3.31a30.224 30.224 0 0 1 4.957-8.983 30.245 30.245 0 0 1 2.305-2.551 29.145 29.145 0 0 1 8.41-5.887 29.131 29.131 0 0 1 6.5-2.207 29.767 29.767 0 0 1 6.836-.676c2.297.04 4.567.328 6.801.88 1.117.269 2.207.616 3.281 1.015 1.074.402 2.117.86 3.149 1.375a29.28 29.28 0 0 1 5.73 3.781 29.572 29.572 0 0 1 6.629 7.824 28.534 28.534 0 0 1 1.578 3.051 27.74 27.74 0 0 1 1.215 3.223 30.189 30.189 0 0 1 1.32 6.734c.086 1.145.102 2.277.07 3.426a29.652 29.652 0 0 1-.327 3.422 30.85 30.85 0 0 1-.704 3.367 36.56 36.56 0 0 1 5.586 2.691 35.693 35.693 0 0 1 9.348 8.051 36.192 36.192 0 0 1 3.5 5.113 37.506 37.506 0 0 1 2.566 5.649c.684 1.96 1.2 3.953 1.54 6 .331 2.05.507 4.097.492 6.176a37.09 37.09 0 0 1-.586 6.164 36.833 36.833 0 0 1-1.653 5.968 35.77 35.77 0 0 1-15.71 18.555 34.299 34.299 0 0 1-5.626 2.602 34.233 34.233 0 0 1-5.988 1.609 35.913 35.913 0 0 1-6.172.531Zm-17.86-10.761c.544 0 1.028.148 1.49.43a29.512 29.512 0 0 0 12.073 4.613c4.364.66 8.664.378 12.907-.844a30.136 30.136 0 0 0 8.793-4.18 30.055 30.055 0 0 0 10.324-12.351 29.828 29.828 0 0 0 2.562-9.387c.34-3.27.149-6.504-.57-9.711a29.717 29.717 0 0 0-5.457-11.735 29.587 29.587 0 0 0-4.484-4.71 29.521 29.521 0 0 0-5.371-3.653 29.824 29.824 0 0 0-6.043-2.422 2.69 2.69 0 0 1-1.676-1.402c-.348-.734-.348-1.465 0-2.195.343-.93.633-1.88.875-2.84.23-.957.402-1.93.531-2.906a27 27 0 0 0 .172-2.965c0-.989-.059-1.98-.188-2.95a24.68 24.68 0 0 0-2.605-8.457 25.148 25.148 0 0 0-5.434-6.972 23.995 23.995 0 0 0-4.84-3.399 24.022 24.022 0 0 0-5.511-2.148 22.273 22.273 0 0 0-2.91-.57 24.434 24.434 0 0 0-5.918-.07 25.756 25.756 0 0 0-5.754 1.331 25.18 25.18 0 0 0-7.649 4.438 25.87 25.87 0 0 0-4.011 4.355 25.228 25.228 0 0 0-1.575 2.508 24.117 24.117 0 0 0-2.218 5.473 24.857 24.857 0 0 0-.86 5.847c-.027 1 0 1.977.102 2.965.086.989.242 1.961.457 2.922.199.973.472 1.922.8 2.852.278.789.204 1.543-.226 2.261-.394.723-.996 1.165-1.805 1.32a29.865 29.865 0 0 0-6.316 2.032 29.847 29.847 0 0 0-10.559 7.879 29.885 29.885 0 0 0-3.75 5.476 29.618 29.618 0 0 0-2.449 6.16 29.712 29.712 0 0 0-1.062 6.544c-.114 2.222.015 4.43.39 6.62a29.634 29.634 0 0 0 1.832 6.36 31.18 31.18 0 0 0 3.164 5.832 31.07 31.07 0 0 0 4.371 4.988 29.764 29.764 0 0 0 11.426 6.575c2.121.66 4.285 1.09 6.508 1.273 2.215.188 4.426.133 6.629-.184a29.448 29.448 0 0 0 6.43-1.62 29.664 29.664 0 0 0 5.914-2.981 2.715 2.715 0 0 1 1.492-.402Zm0 0"/><path fill="#585d60" d="M491.047 358.914h5.5v98.941h-5.5Zm0 0"/><path fill="#585d60" d="m472.77 391.207 3.582-4.168 19.234 16.488-3.582 4.172Zm611.992-17.059h5.5v83.707h-5.5Zm0 0"/><path fill="#585d60" d="M1087.512 437.352c-2.016 0-4.008-.2-5.985-.602a30.067 30.067 0 0 1-5.742-1.746 30.136 30.136 0 0 1-9.937-6.633 31.735 31.735 0 0 1-3.813-4.644 30.563 30.563 0 0 1-5.172-17.02c0-15.828 26.989-77.547 28.117-80.168.473-1.101 1.32-1.66 2.532-1.66 1.203 0 2.05.558 2.523 1.66 1.13 2.621 28.145 64.34 28.145 80.172 0 2.008-.2 3.996-.586 5.973a30.734 30.734 0 0 1-3.055 8.46 30.74 30.74 0 0 1-5.355 7.227 31.067 31.067 0 0 1-4.657 3.809 29.44 29.44 0 0 1-5.28 2.824 29.584 29.584 0 0 1-5.759 1.746 29.602 29.602 0 0 1-5.976.602Zm0-102.79c-8.82 20.614-25.153 61.133-25.153 72.149a24.93 24.93 0 0 0 .621 4.781c.36 1.578.872 3.11 1.532 4.586a25.511 25.511 0 0 0 2.363 4.215c.93 1.32 1.98 2.547 3.137 3.68a25.622 25.622 0 0 0 3.781 3.007 27.376 27.376 0 0 0 4.281 2.239 25.216 25.216 0 0 0 4.645 1.355c3.199.637 6.402.637 9.605 0 1.59-.3 3.137-.754 4.64-1.355a26.44 26.44 0 0 0 4.286-2.239 25.518 25.518 0 0 0 3.781-3.007 26.787 26.787 0 0 0 3.137-3.68 26.78 26.78 0 0 0 2.379-4.215 25.506 25.506 0 0 0 2.144-9.367c0-11.016-16.351-51.531-25.18-72.149Zm0 0"/><path fill="#585d60" d="m1085.566 397.797 11.63-11.633 3.878 3.899-11.613 11.62Zm303.778 4.187h-5.5V341.27l-71.824-59.356 3.492-4.254 72.843 60.184c.66.547.989 1.246.989 2.11ZM1228.988 277.06h63.407v5.484h-63.407Zm0 0"/><path fill="#585d60" d="M1311.8 455.102h-5.5V341.328l-77.312-58.094-77.324 58.094v113.113h-5.5V339.953c-.008-.43.09-.836.285-1.219.192-.382.465-.699.817-.945l80.062-60.184a2.582 2.582 0 0 1 1.66-.546c.602 0 1.164.171 1.653.546l80.058 60.184c.352.246.625.563.82.945.196.383.29.79.282 1.22Zm0 0"/><path fill="#585d60" d="M1216.617 387.668h-30.234a2.602 2.602 0 0 1-1.95-.813 2.538 2.538 0 0 1-.8-1.937V343.23c0-.757.27-1.406.8-1.949a2.591 2.591 0 0 1 1.95-.8h30.234c.758 0 1.403.269 1.946.8.542.535.812 1.184.804 1.95v41.687a2.541 2.541 0 0 1-.804 1.937 2.608 2.608 0 0 1-1.946.813Zm-27.484-5.5h24.734V345.98h-24.734Zm0 0"/><path fill="#585d60" d="M1187.313 356.164h30.234v5.504h-30.235Zm81.523 31.504h-30.234a2.602 2.602 0 0 1-1.95-.813 2.538 2.538 0 0 1-.8-1.937V343.23c0-.757.273-1.406.816-1.949a2.538 2.538 0 0 1 1.934-.8h30.234c.758 0 1.418.269 1.95.8.542.54.808 1.188.8 1.95v41.687a2.538 2.538 0 0 1-.8 1.937c-.536.551-1.184.82-1.95.813Zm-27.484-5.5h24.734V345.98h-24.734Zm0 0"/><path fill="#585d60" d="M1239.531 356.164h30.25v5.504h-30.25Zm-22.828 101.031h-30.234a2.524 2.524 0 0 1-1.95-.816 2.473 2.473 0 0 1-.8-1.938v-54.964c0-.762.258-1.407.8-1.934.532-.559 1.18-.824 1.95-.809h30.234c.758 0 1.402.262 1.934.809.543.527.816 1.172.816 1.934v54.964c.012.77-.258 1.414-.816 1.938a2.492 2.492 0 0 1-1.934.816Zm-27.5-5.504h24.75v-49.464h-24.75Zm0 0"/><path fill="#585d60" d="M1191.953 418.715h5.5v13.738h-5.5Zm210.64 39.14h-34.53a19.338 19.338 0 0 1-6.965-1.363 18.777 18.777 0 0 1-5.973-3.851 18.952 18.952 0 0 1-2.316-2.711 18.219 18.219 0 0 1-1.793-3.094 18.59 18.59 0 0 1-1.145-3.367c-.289-1.16-.457-2.34-.5-3.54a18.46 18.46 0 0 1 .508-5.316 18.487 18.487 0 0 1 2-4.953 18.55 18.55 0 0 1 2.074-2.894 18.483 18.483 0 0 1 5.582-4.391 18.533 18.533 0 0 1 6.82-1.984v-1.32c.004-1.54.196-3.06.575-4.551a18.825 18.825 0 0 1 1.66-4.274 18.816 18.816 0 0 1 9.367-8.465 18.275 18.275 0 0 1 3.523-1.062 18.465 18.465 0 0 1 3.653-.356c1.23 0 2.449.114 3.652.36a18.308 18.308 0 0 1 6.762 2.793 17.605 17.605 0 0 1 2.848 2.32 18.304 18.304 0 0 1 4.07 6.07 18.587 18.587 0 0 1 1.445 7.168v1.32c1.172.11 2.32.325 3.453.657a18.554 18.554 0 0 1 8.793 5.531 18.215 18.215 0 0 1 3.606 5.973c.406 1.101.718 2.234.906 3.394.2 1.149.285 2.32.258 3.492a17.7 17.7 0 0 1-.39 3.485 20.269 20.269 0 0 1-1.024 3.355 20.05 20.05 0 0 1-1.653 3.09 18.305 18.305 0 0 1-2.191 2.738 20.238 20.238 0 0 1-2.648 2.293 19.316 19.316 0 0 1-6.36 2.91c-1.14.27-2.297.442-3.465.512Zm-33.675-5.503h33.562c1.7-.098 3.336-.512 4.883-1.247a13.138 13.138 0 0 0 4.078-2.968 13.17 13.17 0 0 0 2.668-4.278c.614-1.597.903-3.254.875-4.964a13.221 13.221 0 0 0-1.03-4.938 12.976 12.976 0 0 0-2.81-4.18 13.102 13.102 0 0 0-4.16-2.859 13.109 13.109 0 0 0-4.921-1.086 9.654 9.654 0 0 0-1.258 0 2.58 2.58 0 0 1-1.309-.168 2.581 2.581 0 0 1-1.059-.789 2.595 2.595 0 0 1-.57-2.477c.258-.992.414-1.98.457-3.007a13.23 13.23 0 0 0-.625-4.504 13.241 13.241 0 0 0-2.094-4.035 13.52 13.52 0 0 0-2.109-2.196 13.55 13.55 0 0 0-5.426-2.676 13.093 13.093 0 0 0-4.54-.254 13.173 13.173 0 0 0-4.358 1.286c-.684.34-1.336.734-1.953 1.183-.614.45-1.188.95-1.719 1.5a12.76 12.76 0 0 0-1.438 1.77c-.43.633-.8 1.297-1.117 1.992a13.238 13.238 0 0 0-1.16 5.93c.043 1.031.184 2.02.457 3.011.125.434.137.872.035 1.313a2.557 2.557 0 0 1-.609 1.164c-.277.352-.625.61-1.043.781-.414.172-.844.23-1.29.18a10.385 10.385 0 0 0-1.304 0c-1.746 0-3.449.332-5.07 1.004a12.936 12.936 0 0 0-4.313 2.879 13.095 13.095 0 0 0-2.878 4.312 13.042 13.042 0 0 0-1 5.07c0 1.762.332 3.465 1 5.083a13.213 13.213 0 0 0 2.878 4.316 13.235 13.235 0 0 0 4.313 2.863 13.09 13.09 0 0 0 5.07 1.02h.887Zm-56.012-151.797h-19.25a2.5 2.5 0 0 1-1.933-.817 2.5 2.5 0 0 1-.817-1.937v-35.73c0-.759.274-1.403.817-1.946a2.553 2.553 0 0 1 1.933-.805h19.25a2.553 2.553 0 0 1 1.934.805c.55.531.824 1.18.816 1.945v35.73a2.513 2.513 0 0 1-.816 1.938 2.507 2.507 0 0 1-1.934.813Zm-16.5-5.5h13.75v-30.23h-13.75Zm11 41.215h78.23v5.5h-78.23Zm0 0"/></svg>