<svg width="309" height="29" viewBox="0 0 309 29" fill="none" xmlns="http://www.w3.org/2000/svg">
<mask id="mask0_327_1273" style="mask-type:luminance" maskUnits="userSpaceOnUse" x="0" y="0" width="309" height="29">
<path d="M309 0.40332H0V28.4033H309V0.40332Z" fill="white"/>
</mask>
<g mask="url(#mask0_327_1273)">
<path d="M23.0116 0.40332H9.69391V5.09799H23.1311C23.3974 5.10367 23.6511 5.2085 23.8395 5.39068C24.028 5.57282 24.1367 5.81832 24.1431 6.07612V22.8761C24.1336 23.1272 24.0217 23.3643 23.8321 23.5358C23.6424 23.7072 23.3904 23.7989 23.1311 23.7908H5.78283C5.65809 23.7936 5.53407 23.7719 5.41826 23.7269C5.30245 23.6819 5.19728 23.6146 5.10914 23.529C5.02103 23.4435 4.95173 23.3415 4.90552 23.2293C4.85927 23.1171 4.83709 22.9969 4.84024 22.8761V0.435054C4.20336 0.43233 3.57223 0.551895 2.98333 0.786836C2.39445 1.02178 1.8595 1.36743 1.40941 1.80381C0.959321 2.2402 0.603024 2.75865 0.361119 3.3292C0.119216 3.89976 -0.00349703 4.5111 7.58324e-05 5.12785V22.7529C-0.00323854 23.4957 0.145357 24.2317 0.437287 24.9186C0.729219 25.6055 1.15871 26.2296 1.70098 26.7549C2.24325 27.2802 2.88756 27.6963 3.59675 27.9792C4.30592 28.2622 5.06595 28.4063 5.83297 28.4033H23.0116C24.568 28.4118 26.0641 27.8212 27.1709 26.7616C28.2778 25.702 28.9047 24.2601 28.9139 22.7529V6.11719C28.9073 4.60341 28.2833 3.1535 27.1777 2.08327C26.0722 1.01305 24.5748 0.409216 23.0116 0.40332Z" fill="white"/>
<path d="M18.3251 9.79102H10.6706C10.1309 9.79102 9.69336 10.2147 9.69336 10.7374V18.1499C9.69336 18.6726 10.1309 19.0963 10.6706 19.0963H18.3251C18.8648 19.0963 19.3024 18.6726 19.3024 18.1499V10.7374C19.3024 10.2147 18.8648 9.79102 18.3251 9.79102Z" fill="white"/>
<path d="M179.651 17.8384H174.446L173.191 21.5269H170.398L175.63 7.13867H178.456L183.699 21.5269H180.908L179.651 17.8384ZM177.033 9.62507C177.033 9.62507 176.7 11.0437 176.407 11.8539L175.09 15.7104H178.982L177.663 11.8595C177.392 11.0493 177.085 9.63067 177.085 9.63067L177.033 9.62507Z" fill="white"/>
<path d="M183.523 7.13867H186.432L189.697 16.5224C189.991 17.3531 190.241 18.6299 190.262 18.6299H190.303C190.324 18.6299 190.576 17.3531 190.869 16.5224L194.146 7.13867H197.038L191.621 21.5269H188.944L183.523 7.13867Z" fill="white"/>
<path d="M206.125 17.8384H200.92L199.663 21.5269H196.88L202.113 7.13867H204.937L210.169 21.5269H207.385L206.125 17.8384ZM203.509 9.62507C203.509 9.62507 203.173 11.0437 202.881 11.8539L201.562 15.7104H205.456L204.132 11.8595C203.858 11.0493 203.553 9.63067 203.553 9.63067L203.509 9.62507Z" fill="white"/>
<path d="M212.486 7.13867H215.185V21.5269H212.486V7.13867Z" fill="white"/>
<path d="M219.371 7.13867H222.07V19.272H228.494V21.512H219.369L219.371 7.13867Z" fill="white"/>
<path d="M238.938 17.8384H233.734L232.467 21.5269H229.684L234.915 7.13867H237.741L242.972 21.5269H240.189L238.938 17.8384ZM236.322 9.62507C236.322 9.62507 235.987 11.0437 235.694 11.8539L234.376 15.7104H238.267L236.949 11.8595C236.677 11.0493 236.37 9.63067 236.37 9.63067L236.322 9.62507Z" fill="white"/>
<path d="M245.299 7.13867H250.615C253.293 7.13867 255.197 8.47521 255.197 10.8477C255.197 12.1843 254.528 13.3397 253.398 13.9277V13.9688C255.029 14.4336 255.804 15.8933 255.804 17.3531C255.804 20.2296 253.418 21.5269 250.677 21.5269H245.299V7.13867ZM250.615 13.0149C251.787 13.0149 252.456 12.2048 252.456 11.1707C252.456 10.1365 251.828 9.38801 250.573 9.38801H248V13.0149H250.615ZM250.887 19.2776C252.267 19.2776 253.042 18.4059 253.042 17.1907C253.042 15.9755 252.246 15.1224 250.887 15.1224H247.996V19.2776H250.887Z" fill="white"/>
<path d="M259.152 7.13867H261.851V21.5269H259.152V7.13867Z" fill="white"/>
<path d="M266.038 7.13867H268.737V19.272H275.162V21.512H266.038V7.13867Z" fill="white"/>
<path d="M277.736 7.13867H280.435V21.5269H277.736V7.13867Z" fill="white"/>
<path d="M287.696 9.38801H282.821V7.13867H295.272V9.38801H290.397V21.5213H287.698L287.696 9.38801Z" fill="white"/>
<path d="M301.361 15.5088L296.423 7.13867H299.478L301.792 11.3741C302.272 12.2664 302.671 13.3192 302.692 13.2987H302.734C302.734 13.2987 303.153 12.2664 303.633 11.3741L305.934 7.13867H308.991L304.055 15.5088V21.5269H301.355L301.361 15.5088Z" fill="white"/>
<path d="M46.8929 14.0077V13.9685C48.0225 13.4197 48.755 12.3464 48.755 10.868C48.755 8.62801 47.1012 7.28027 44.7803 7.28027H39.7568V21.5267H44.946C47.4153 21.5267 49.3622 20.0669 49.3622 17.5357C49.3622 15.8128 48.4001 14.4128 46.8929 14.0077ZM41.2008 8.53654H44.759C46.328 8.53654 47.2648 9.50907 47.2648 10.9632C47.2648 12.4173 46.2626 13.4701 44.7803 13.4701H41.2008V8.53654ZM44.9673 20.2704H41.2008V14.6704H44.946C46.6615 14.6704 47.8547 15.7904 47.8547 17.4853C47.8547 19.1803 46.7464 20.2704 44.9673 20.2704Z" fill="white"/>
<path d="M60.2001 15.7926C60.0871 15.5985 59.9615 15.4114 59.8243 15.2326V15.1916C61.478 14.7454 62.6076 13.2652 62.6076 11.3406C62.6076 9.61955 61.7712 8.26062 60.3892 7.67262C59.8108 7.42995 59.1343 7.28809 57.6268 7.28809H53.2744V21.5345H54.7181V15.5238H58.421L61.7499 21.5214H63.404L60.2001 15.7926ZM58.2127 14.2713H54.7181V8.53689H57.6906C58.8199 8.53689 59.3423 8.65822 59.782 8.88222C60.6398 9.32835 61.1217 10.1889 61.1217 11.3742C61.1217 13.1569 59.9921 14.2713 58.2127 14.2713Z" fill="white"/>
<path d="M73.3222 7.03733C72.334 7.0301 71.3546 7.21364 70.4404 7.57723C69.5266 7.94086 68.6967 8.47723 67.9993 9.15503C67.3019 9.83287 66.7507 10.6385 66.3788 11.5249C66.0066 12.4112 65.8204 13.3605 65.8315 14.3173C65.8315 18.4912 69.1586 21.7747 73.3222 21.7747C77.4857 21.7747 80.8146 18.4912 80.8146 14.3173C80.8257 13.3604 80.6396 12.4109 80.2673 11.5244C79.8951 10.6379 79.3439 9.83223 78.6462 9.15436C77.9488 8.47653 77.1186 7.94018 76.2045 7.57671C75.29 7.21321 74.3103 7.02983 73.3222 7.03733ZM73.3222 20.4773C69.9972 20.4773 67.3466 17.8005 67.3466 14.3173C67.3466 10.9125 70.0047 8.344 73.3222 8.344C76.6396 8.344 79.3073 10.9181 79.3073 14.3173C79.3073 17.7968 76.6297 20.4736 73.3222 20.4736V20.4773Z" fill="white"/>
<path d="M89.4785 7.28027H87.9365L82.5391 21.5267H84.0658L85.7391 16.9869L86.1592 15.7717L88.1253 10.6048C88.378 9.93467 88.69 8.75867 88.69 8.75867H88.7325C88.7325 8.75867 89.0466 9.93467 89.2972 10.6048L91.2249 15.7717L91.6643 16.9869L93.3589 21.5267H94.8874L89.4785 7.28027Z" fill="white"/>
<path d="M132.212 7.28027H130.67L125.272 21.5267H126.799L128.472 16.9869L128.892 15.7717L130.858 10.6048C131.111 9.93467 131.423 8.75867 131.423 8.75867H131.462C131.462 8.75867 131.776 9.93467 132.027 10.6048L133.954 15.7717L134.394 16.9869L136.088 21.5267H137.615L132.212 7.28027Z" fill="white"/>
<path d="M102.453 7.28027H97.7012V21.5267H102.453C106.869 21.5267 109.841 18.932 109.841 14.3941C109.841 9.89547 106.869 7.28027 102.453 7.28027ZM102.306 20.2704H99.147V8.53654H102.306C105.905 8.53654 108.33 10.6048 108.33 14.4035C108.33 18.2021 105.926 20.2704 102.306 20.2704Z" fill="white"/>
<path d="M120.744 14.0077V13.9685C121.872 13.4197 122.606 12.3464 122.606 10.868C122.606 8.62801 120.952 7.28027 118.63 7.28027H113.606V21.5267H118.797C121.267 21.5267 123.212 20.0669 123.212 17.5357C123.212 15.8128 122.25 14.4128 120.744 14.0077ZM115.052 8.53654H118.609C120.178 8.53654 121.114 9.50907 121.114 10.9632C121.114 12.4173 120.116 13.4701 118.63 13.4701H115.052V8.53654ZM118.819 20.2704H115.052V14.6704H118.797C120.513 14.6704 121.706 15.7904 121.706 17.4853C121.706 19.1803 120.598 20.2704 118.819 20.2704Z" fill="white"/>
<path d="M150.481 7.28027V17.5357C150.481 18.2824 150.606 19.4603 150.606 19.4603H150.564C150.564 19.4603 149.853 18.2432 149.349 17.5357L141.832 7.28027H140.431V21.5267H141.87V11.2712C141.87 10.5245 141.745 9.34667 141.745 9.34667H141.787C141.787 9.34667 142.499 10.5637 143.002 11.2712L150.519 21.5267H151.923V7.28027H150.481Z" fill="white"/>
<path d="M161.363 7.28027H156.611V21.5267H161.363C165.779 21.5267 168.749 18.932 168.749 14.3941C168.749 9.89547 165.773 7.28027 161.363 7.28027ZM161.216 20.2704H158.063V8.53654H161.222C164.821 8.53654 167.248 10.6048 167.248 14.3941C167.248 18.1835 164.836 20.2704 161.216 20.2704Z" fill="white"/>
</g>
</svg>
