<svg xmlns="http://www.w3.org/2000/svg" width="1920" height="1080" version="1.0" viewBox="0 0 1440 810"><defs><clipPath id="a"><path d="M107 76.066h247V464H107Zm0 0"/></clipPath><clipPath id="b"><path d="M350 76.066h58V467h-58Zm0 0"/></clipPath></defs><path fill="#fff" d="M-144-81h1728v972H-144z"/><path fill="#fff" d="M-144-81h1728v972H-144z"/><path fill="#585d60" d="M717.195 463.98h-5.504V351.328h62.645v5.512h-57.14Zm0 0"/><path fill="#585d60" d="M836.82 466.73h-65.398V351.328h65.398Zm-59.894-5.503h54.39V356.84h-54.39Zm0 0"/><path fill="#585d60" d="M863.086 463.98h-5.504V356.84h-23.676v-5.512h29.18Zm-98.156-82.984h-18.774V362.32h18.774Zm-13.274-5.504h7.774v-7.668h-7.774Zm49.77 5.504h-18.66V362.32h18.765Zm-13.27-5.504h7.766v-7.668h-7.649Zm0 0"/><g clip-path="url(#a)"><path fill="#585d60" d="M113.16 463.98h-5.512V76.215h245.473v5.508h-239.96Zm0 0"/></g><path fill="#585d60" d="M315.078 162.363H148.441v-31.511h166.637Zm-161.125-5.515h155.625v-20.496H153.953Zm161.125 71.023H148.441v-31.547h166.637Zm-161.125-5.5h155.625v-20.527H153.953Zm161.125 70.992H148.441v-31.515h166.637Zm-161.125-5.515h155.625v-20.493H153.953Zm161.125 71.004H148.441v-31.528h166.637Zm-161.125-5.52h155.625V332.84H153.953ZM289.105 466.73h-114.64v-52.668h114.66Zm-109.175-5.503h103.656v-41.66H179.965Zm0 0"/><g clip-path="url(#b)"><path fill="#585d60" d="M407.512 466.73h-57.504V76.22h57.504Zm-52-5.503h46.492V81.723h-46.492Zm0 0"/></g><path fill="#585d60" d="M-4.648 461.227h1447.824v5.503H-4.648Zm0 0"/><path fill="#0081ff" d="M1160.902 518.793H273.164c-2.836 0-5.644-.273-8.422-.832a43.046 43.046 0 0 1-13.762-5.328 43.252 43.252 0 0 1-20.503-30.7 42.948 42.948 0 0 1-.477-6.331h8.254a35.18 35.18 0 0 0 2.672 13.363 35.749 35.749 0 0 0 3.23 6.027 34.621 34.621 0 0 0 9.625 9.637 33.59 33.59 0 0 0 6.04 3.23 34.534 34.534 0 0 0 13.343 2.68h887.738a34.897 34.897 0 0 0 13.356-2.68 34.025 34.025 0 0 0 6.027-3.23 35.002 35.002 0 0 0 7.582-6.883 35.015 35.015 0 0 0 5.274-8.781 34.866 34.866 0 0 0 2.668-13.363h8.257c0 2.832-.28 5.644-.836 8.418a43.04 43.04 0 0 1-11.82 22.11 42.887 42.887 0 0 1-13.992 9.366 44.005 44.005 0 0 1-8.098 2.465 42.543 42.543 0 0 1-8.418.832Zm0 0"/><path fill="#585d60" d="M144.64 601.86v-31.485h23.872v3.48H148.91v10.125h18.254v3.438H148.91v10.96h20.531v3.481Zm44.598 0-6.504-9.934-6.547 9.933h-4.324l8.594-12.398-8.172-11.75h4.41l6.04 9.383 5.992-9.383h4.503l-8.222 11.703 8.734 12.445Zm11.094-12.212c0 3.227.512 5.61 1.535 7.153 1.024 1.554 2.559 2.32 4.598 2.32 1.418 0 2.613-.383 3.578-1.16.95-.766 1.543-1.961 1.766-3.574l4.086.273c-.348 2.324-1.348 4.184-3.02 5.574-1.648 1.399-3.75 2.094-6.316 2.094-3.38 0-5.97-1.07-7.758-3.207-1.766-2.137-2.649-5.258-2.649-9.383 0-4.05.883-7.152 2.649-9.289 1.789-2.136 4.367-3.203 7.71-3.203 2.477 0 4.52.652 6.134 1.95 1.632 1.277 2.671 3.019 3.109 5.25l-4.129.327c-.223-1.328-.77-2.382-1.629-3.16-.832-.804-2.031-1.207-3.578-1.207-2.133 0-3.691.719-4.645 2.133-.96 1.399-1.441 3.766-1.441 7.11Zm23.781-7.804c.856-1.578 1.903-2.739 3.11-3.485 1.23-.742 2.789-1.113 4.648-1.113 2.621 0 4.563.652 5.805 1.95 1.23 1.3 1.86 3.484 1.86 6.546v16.117h-4.044v-15.324c0-1.695-.16-2.95-.465-3.762a3.07 3.07 0 0 0-1.578-1.812c-.719-.395-1.695-.602-2.926-.602-1.93 0-3.464.649-4.597 1.95-1.117 1.3-1.676 3.062-1.676 5.293v14.257h-4.043V568.7h4.043v8.637c0 .91-.035 1.848-.09 2.836a23.837 23.837 0 0 1-.094 1.672Zm27.598 20.484c-2.414 0-4.254-.629-5.484-1.906-1.207-1.3-1.809-3.063-1.809-5.293 0-2.508.812-4.426 2.46-5.762 1.638-1.36 4.286-2.09 7.942-2.18l5.434-.05v-1.344c0-1.953-.414-3.344-1.254-4.18-.832-.863-2.133-1.304-3.898-1.304-1.801 0-3.114.316-3.95.933-.812.594-1.3 1.567-1.484 2.922l-4.184-.414c.676-4.332 3.914-6.504 9.707-6.504 3.036 0 5.309.695 6.829 2.09 1.546 1.394 2.324 3.414 2.324 6.035v10.406c0 1.207.152 2.125.46 2.739.305.597.9.882 1.77.882.395 0 .844-.058 1.344-.183v2.508a13.465 13.465 0 0 1-3.113.37c-1.485 0-2.575-.382-3.246-1.16-.684-.8-1.07-2.046-1.16-3.714h-.145c-1.02 1.855-2.215 3.18-3.574 3.945-1.368.77-3.02 1.16-4.97 1.16Zm.93-3.02c1.449 0 2.75-.335 3.898-1.023a7.408 7.408 0 0 0 2.711-2.683 7.288 7.288 0 0 0 .742-1.774 7.28 7.28 0 0 0 .262-1.902v-2l-4.363.094c-1.93.035-3.38.23-4.368.601a4.388 4.388 0 0 0-2.226 1.625c-.5.746-.746 1.719-.746 2.926 0 1.34.347 2.36 1.07 3.07.707.719 1.715 1.067 3.02 1.067Zm33.683 2.551v-15.324c0-1.578-.164-2.797-.469-3.668-.312-.894-.824-1.535-1.53-1.902-.684-.399-1.673-.606-2.973-.606-1.954 0-3.485.672-4.598 1.996-1.113 1.301-1.676 3.137-1.676 5.48v14.024h-4.039v-18.992c0-2.812-.047-4.531-.137-5.156h3.805c.023.07.05.266.05.601.024.317.048.688.048 1.114.02.445.058 1.246.09 2.418h.046c.93-1.672 1.997-2.844 3.207-3.532 1.23-.707 2.75-1.066 4.547-1.066 2.63 0 4.567.676 5.809 1.996 1.23 1.301 1.86 3.473 1.86 6.5v16.117Zm19.235 9.477c-2.668 0-4.786-.512-6.364-1.531-1.554-1.024-2.543-2.5-2.972-4.414l4.043-.602c.273 1.137.855 2.008 1.761 2.602.93.613 2.141.925 3.625.925 3.993 0 5.993-2.355 5.993-7.058v-3.899h-.051c-.742 1.555-1.785 2.727-3.11 3.528-1.336.777-2.879 1.16-4.644 1.16-2.973 0-5.156-.973-6.547-2.926-1.395-1.973-2.09-5.074-2.09-9.289 0-4.273.742-7.434 2.227-9.473 1.507-2.047 3.804-3.066 6.875-3.066 1.695 0 3.168.406 4.41 1.207 1.265.777 2.242 1.895 2.93 3.344h.043c0-.465.023-1.23.093-2.32.063-1.118.117-1.72.188-1.813h3.804c-.086.812-.136 2.46-.136 4.969v18.484c0 6.781-3.367 10.172-10.078 10.172Zm6.086-21.55c0-1.973-.27-3.68-.793-5.11-.536-1.414-1.286-2.508-2.274-3.25a5.132 5.132 0 0 0-3.3-1.117c-2.079 0-3.575.746-4.505 2.23-.93 1.488-1.394 3.902-1.394 7.246 0 3.32.43 5.703 1.3 7.153.895 1.43 2.395 2.136 4.509 2.136a5.357 5.357 0 0 0 3.386-1.113c.992-.742 1.746-1.813 2.278-3.203.523-1.395.793-3.047.793-4.973Zm13.242.835c0 2.79.57 4.945 1.718 6.457 1.141 1.488 2.813 2.23 5.016 2.23 1.73 0 3.125-.347 4.184-1.07 1.043-.707 1.761-1.59 2.132-2.644l3.532.972c-1.461 3.844-4.739 5.762-9.848 5.762-3.562 0-6.293-1.07-8.172-3.207-1.86-2.137-2.789-5.308-2.789-9.523 0-3.957.93-7.012 2.79-9.149 1.878-2.136 4.562-3.203 8.03-3.203 7.086 0 10.641 4.293 10.641 12.863v.512Zm13.101-3.062c-.258-2.567-.922-4.426-2-5.575-1.054-1.175-2.59-1.765-4.597-1.765-1.95 0-3.508.652-4.645 1.949-1.113 1.3-1.719 3.102-1.812 5.39Zm51.575 123.687v11.703h17.558v3.531h-17.558v12.774h-4.274v-31.492h22.344v3.484Zm22.945-1.3v-3.856h3.992v3.855Zm0 29.308v-24.152h3.992v24.152Zm30.59-12.219c0 8.453-2.961 12.68-8.871 12.68-1.836 0-3.372-.324-4.602-.973-1.207-.676-2.18-1.765-2.926-3.254h-.047c0 .465-.03 1.188-.09 2.137-.07.93-.117 1.477-.14 1.629h-3.899c.09-.805.137-2.461.137-4.973V706.09h4.043v9.476c0 .961-.039 2.09-.094 3.387h.09c.746-1.543 1.719-2.644 2.926-3.297 1.23-.672 2.766-1.02 4.602-1.02 3.066 0 5.304 1.044 6.734 3.11 1.414 2.047 2.137 5.145 2.137 9.29Zm-4.184.14c0-3.366-.45-5.78-1.344-7.241-.906-1.457-2.36-2.188-4.367-2.188-2.262 0-3.922.781-4.969 2.324-1.023 1.555-1.535 4.016-1.535 7.383 0 3.16.488 5.508 1.488 7.016 1.024 1.52 2.668 2.273 4.97 2.273 2.011 0 3.46-.742 4.366-2.226.93-1.512 1.391-3.961 1.391-7.34Zm9.254 12.079v-18.535c0-1.696-.047-3.574-.137-5.617h3.805c.117 2.726.187 4.367.187 4.921h.094c.649-2.066 1.367-3.484 2.18-4.226.836-.766 2.023-1.16 3.578-1.16.523 0 1.07.082 1.625.234v3.668a8.533 8.533 0 0 0-2.18-.234c-1.652 0-2.914.73-3.812 2.183-.871 1.426-1.301 3.485-1.301 6.176v12.59Zm18.234-11.238c0 2.785.57 4.945 1.72 6.453 1.14 1.484 2.812 2.226 5.019 2.226 1.73 0 3.12-.347 4.18-1.066 1.042-.707 1.765-1.59 2.136-2.645l3.527.973c-1.46 3.844-4.734 5.758-9.843 5.758-3.57 0-6.293-1.067-8.176-3.203-1.86-2.137-2.79-5.305-2.79-9.52 0-3.96.93-7.015 2.79-9.148 1.883-2.14 4.562-3.207 8.035-3.207 7.082 0 10.637 4.297 10.637 12.867v.512Zm13.102-3.07c-.258-2.563-.918-4.423-1.996-5.575-1.059-1.168-2.59-1.762-4.602-1.762-1.949 0-3.508.649-4.644 1.95-1.117 1.3-1.719 3.101-1.813 5.386Zm36.531-14.165c-3.508 0-6.226 1.137-8.176 3.39-1.93 2.227-2.879 5.298-2.879 9.196 0 3.88.997 6.992 3.02 9.336 2.043 2.324 4.785 3.485 8.219 3.485 4.39 0 7.71-2.184 9.941-6.551l3.48 1.765c-1.296 2.692-3.132 4.762-5.48 6.176-2.355 1.43-5.082 2.137-8.172 2.137-3.16 0-5.898-.66-8.222-1.996-2.356-1.336-4.121-3.223-5.297-5.664-1.207-2.438-1.809-5.344-1.809-8.688 0-5.015 1.348-8.941 4.043-11.797 2.715-2.843 6.48-4.273 11.285-4.273 3.344 0 6.13.672 8.36 2 2.254 1.297 3.925 3.238 5.015 5.805l-4.043 1.347c-.699-1.797-1.875-3.187-3.527-4.18-1.613-.988-3.531-1.488-5.758-1.488Zm24.543 28.934c-2.414 0-4.246-.621-5.476-1.903-1.207-1.3-1.817-3.066-1.817-5.296 0-2.508.817-4.422 2.465-5.758 1.637-1.356 4.285-2.09 7.945-2.184l5.434-.043v-1.347c0-1.954-.418-3.344-1.254-4.184-.836-.86-2.14-1.297-3.906-1.297-1.797 0-3.11.313-3.946.926-.812.594-1.3 1.57-1.488 2.93l-4.18-.422c.676-4.328 3.915-6.5 9.711-6.5 3.032 0 5.305.695 6.829 2.09 1.546 1.39 2.316 3.414 2.316 6.035v10.402c0 1.211.156 2.129.469 2.746.3.59.89.883 1.765.883.395 0 .848-.063 1.348-.188v2.508a13.28 13.28 0 0 1-3.113.371c-1.489 0-2.578-.382-3.254-1.16-.684-.8-1.067-2.043-1.156-3.715h-.141c-1.024 1.856-2.219 3.18-3.578 3.946-1.371.765-3.02 1.16-4.969 1.16Zm.93-3.02c1.453 0 2.754-.336 3.906-1.02a7.25 7.25 0 0 0 1.527-1.163c.461-.453.852-.961 1.18-1.52a7.497 7.497 0 0 0 .746-1.77 7.502 7.502 0 0 0 .262-1.906v-2l-4.367.09c-1.926.035-3.38.235-4.367.61-.918.3-1.66.84-2.23 1.62-.5.743-.743 1.723-.743 2.93 0 1.332.351 2.356 1.07 3.063.707.719 1.719 1.07 3.016 1.07Zm38.746-9.66c0 8.453-2.961 12.68-8.871 12.68-1.832 0-3.367-.324-4.598-.973-1.207-.676-2.18-1.765-2.926-3.254h-.047c0 .465-.035 1.188-.093 2.137-.07.93-.117 1.477-.137 1.629h-3.902c.093-.805.136-2.461.136-4.973V706.09h4.043v9.476c0 .961-.035 2.09-.093 3.387h.093c.743-1.543 1.72-2.644 2.926-3.297 1.23-.672 2.766-1.02 4.598-1.02 3.066 0 5.308 1.044 6.738 3.11 1.414 2.047 2.133 5.145 2.133 9.29Zm-4.18.14c0-3.366-.453-5.78-1.347-7.241-.907-1.457-2.356-2.188-4.364-2.188-2.265 0-3.926.781-4.972 2.324-1.02 1.555-1.532 4.016-1.532 7.383 0 3.16.489 5.508 1.489 7.016 1.02 1.52 2.668 2.273 4.968 2.273 2.008 0 3.461-.742 4.364-2.226.93-1.512 1.394-3.961 1.394-7.34Zm9.16 12.079V706.09h4.043v33.164Zm13.262-11.238c0 2.785.57 4.945 1.719 6.453 1.14 1.484 2.808 2.226 5.02 2.226 1.73 0 3.12-.347 4.18-1.066 1.042-.707 1.765-1.59 2.136-2.645l3.527.973c-1.46 3.844-4.738 5.758-9.844 5.758-3.57 0-6.297-1.067-8.175-3.203-1.86-2.137-2.79-5.305-2.79-9.52 0-3.96.93-7.015 2.79-9.148 1.879-2.14 4.562-3.207 8.035-3.207 7.082 0 10.636 4.297 10.636 12.867v.512Zm13.098-3.07c-.254-2.563-.914-4.423-1.996-5.575-1.055-1.168-2.586-1.762-4.598-1.762-1.953 0-3.508.649-4.645 1.95-1.113 1.3-1.718 3.101-1.812 5.386Zm35.18-134.395c0-5.11 1.359-9.059 4.085-11.844 2.754-2.812 6.61-4.227 11.563-4.227 3.465 0 6.285.594 8.457 1.766 2.195 1.184 3.879 3.063 5.062 5.668l-4.09 1.207c-.902-1.789-2.132-3.09-3.714-3.902-1.555-.836-3.508-1.254-5.852-1.254-3.625 0-6.398 1.101-8.312 3.3-1.93 2.204-2.883 5.29-2.883 9.286 0 3.972 1.023 7.105 3.066 9.43 2.047 2.296 4.856 3.433 8.453 3.433 1.961.024 3.864-.285 5.715-.926 1.785-.617 3.25-1.46 4.367-2.554v-5.668h-9.43v-3.575h13.376v10.868c-1.672 1.671-3.739 2.996-6.176 3.945a21.485 21.485 0 0 1-7.852 1.398c-3.285 0-6.12-.652-8.5-1.953-2.414-1.32-4.238-3.21-5.48-5.664-1.242-2.472-1.856-5.39-1.856-8.734Zm36.378 15.886v-18.53c0-1.696-.047-3.579-.136-5.622h3.804c.117 2.727.188 4.367.188 4.922h.094c.648-2.066 1.367-3.484 2.183-4.227.832-.77 2.02-1.16 3.574-1.16.524 0 1.07.082 1.625.23v3.669a8.689 8.689 0 0 0-2.18-.23c-1.652 0-2.913.73-3.812 2.183-.87 1.426-1.297 3.48-1.297 6.18v12.586Zm18.235-11.242c0 2.785.57 4.95 1.718 6.457 1.141 1.489 2.813 2.23 5.02 2.23 1.73 0 3.121-.35 4.18-1.07 1.047-.707 1.765-1.59 2.136-2.644l3.528.973c-1.461 3.843-4.735 5.757-9.844 5.757-3.566 0-6.293-1.07-8.176-3.203-1.86-2.136-2.789-5.304-2.789-9.52 0-3.96.93-7.015 2.79-9.152 1.882-2.136 4.562-3.203 8.034-3.203 7.082 0 10.637 4.297 10.637 12.864v.511Zm13.101-3.062c-.254-2.57-.918-4.426-1.996-5.578-1.058-1.172-2.59-1.762-4.601-1.762-1.95 0-3.508.648-4.645 1.95-1.113 1.3-1.719 3.1-1.812 5.386Zm12.317 3.062c0 2.785.566 4.95 1.718 6.457 1.137 1.489 2.809 2.23 5.016 2.23 1.73 0 3.121-.35 4.18-1.07 1.043-.707 1.765-1.59 2.136-2.644l3.532.973c-1.465 3.843-4.739 5.757-9.848 5.757-3.566 0-6.297-1.07-8.172-3.203-1.86-2.136-2.789-5.304-2.789-9.52 0-3.96.93-7.015 2.79-9.152 1.874-2.136 4.562-3.203 8.03-3.203 7.082 0 10.637 4.297 10.637 12.864v.511Zm13.097-3.062c-.257-2.57-.918-4.426-2-5.578-1.054-1.172-2.586-1.762-4.597-1.762-1.95 0-3.508.648-4.645 1.95-1.113 1.3-1.715 3.1-1.812 5.386Zm24.578 14.304V591.11c0-1.582-.16-2.8-.464-3.672-.313-.89-.825-1.53-1.532-1.902-.683-.394-1.672-.601-2.972-.601-1.953 0-3.485.671-4.598 1.992-1.117 1.304-1.676 3.136-1.676 5.484v14.028h-4.043V587.44c0-2.812-.043-4.53-.136-5.156h3.808c.024.067.047.266.047.602.024.312.047.683.047 1.117.023.437.059 1.242.094 2.414h.047c.93-1.672 1.996-2.848 3.203-3.531 1.23-.707 2.754-1.07 4.554-1.07 2.621 0 4.563.675 5.805 2 1.23 1.3 1.86 3.468 1.86 6.503v16.117Zm48.094-8.687c0 2.914-1.144 5.18-3.433 6.781-2.266 1.582-5.457 2.367-9.57 2.367-7.688 0-12.122-2.668-13.329-8.035l4.133-.789c.465 1.895 1.465 3.29 3.02 4.184 1.543.87 3.644 1.297 6.316 1.297 2.754 0 4.875-.465 6.36-1.395 1.515-.95 2.28-2.344 2.28-4.18 0-1.02-.234-1.855-.699-2.507a4.953 4.953 0 0 0-1.996-1.575 13.36 13.36 0 0 0-3.02-1.07c-1.183-.281-2.484-.582-3.902-.93-2.507-.523-4.41-1.07-5.71-1.628-1.282-.555-2.278-1.168-3.02-1.856a6.84 6.84 0 0 1-1.719-2.367 7.405 7.405 0 0 1-.605-3.113c0-2.715 1.035-4.809 3.113-6.27 2.07-1.453 5.027-2.184 8.871-2.184 3.555 0 6.281.56 8.176 1.672 1.879 1.094 3.219 2.953 3.992 5.575l-4.223.742c-.445-1.672-1.304-2.88-2.601-3.621-1.301-.766-3.102-1.16-5.39-1.16-2.509 0-4.434.414-5.759 1.253-1.336.832-1.996 2.09-1.996 3.762 0 .965.242 1.762.742 2.414.52.625 1.262 1.149 2.23 1.578.985.442 2.927.977 5.806 1.625.953.223 1.914.453 2.879.7.953.218 1.867.496 2.738.832.894.316 1.73.687 2.512 1.117.765.441 1.44.965 1.996 1.578.558.625.988 1.367 1.3 2.23.336.836.508 1.836.508 2.973Zm14.414 8.5a14.686 14.686 0 0 1-4.043.559c-3.23 0-4.832-1.825-4.832-5.485v-16.113h-2.785v-2.926h2.926l1.207-5.433h2.695v5.433h4.461v2.926h-4.46v15.23c0 1.188.183 2 .554 2.465.375.465 1.023.696 1.953.696.559 0 1.324-.102 2.324-.325Zm3.496.188v-18.532c0-1.695-.047-3.578-.136-5.62h3.804c.121 2.726.188 4.366.188 4.921h.094c.652-2.066 1.367-3.484 2.183-4.227.836-.77 2.02-1.16 3.578-1.16.52 0 1.067.082 1.621.23v3.669a8.708 8.708 0 0 0-2.18-.23c-1.652 0-2.913.73-3.808 2.183-.871 1.426-1.3 3.48-1.3 6.18v12.586Zm18.235-11.243c0 2.785.57 4.95 1.722 6.457 1.137 1.489 2.809 2.23 5.016 2.23 1.73 0 3.121-.35 4.18-1.07 1.047-.707 1.765-1.59 2.136-2.644l3.532.973c-1.465 3.843-4.739 5.757-9.848 5.757-3.566 0-6.293-1.07-8.176-3.203-1.86-2.136-2.785-5.304-2.785-9.52 0-3.96.926-7.015 2.785-9.152 1.883-2.136 4.567-3.203 8.035-3.203 7.082 0 10.641 4.297 10.641 12.864v.511Zm13.101-3.062c-.254-2.57-.918-4.426-1.996-5.578-1.058-1.172-2.59-1.762-4.601-1.762-1.95 0-3.508.648-4.641 1.95-1.117 1.3-1.719 3.1-1.816 5.386Zm12.317 3.062c0 2.785.57 4.95 1.718 6.457 1.137 1.489 2.81 2.23 5.016 2.23 1.73 0 3.121-.35 4.18-1.07 1.047-.707 1.765-1.59 2.136-2.644l3.532.973c-1.465 3.843-4.739 5.757-9.848 5.757-3.566 0-6.293-1.07-8.176-3.203-1.855-2.136-2.785-5.304-2.785-9.52 0-3.96.93-7.015 2.785-9.152 1.883-2.136 4.567-3.203 8.035-3.203 7.086 0 10.637 4.297 10.637 12.864v.511Zm13.097-3.062c-.254-2.57-.918-4.426-1.996-5.578-1.058-1.172-2.59-1.762-4.597-1.762-1.95 0-3.508.648-4.649 1.95-1.113 1.3-1.715 3.1-1.812 5.386Zm18.496 14.117a14.686 14.686 0 0 1-4.043.559c-3.226 0-4.828-1.825-4.828-5.485v-16.113h-2.789v-2.926h2.926l1.207-5.433h2.695v5.433h4.457v2.926h-4.457v15.23c0 1.188.184 2 .555 2.465.371.465 1.024.696 1.953.696.559 0 1.324-.102 2.324-.325Zm-193.988 26.648c-3.508 0-6.226 1.137-8.176 3.391-1.93 2.23-2.879 5.293-2.879 9.195 0 3.88.997 6.989 3.02 9.336 2.043 2.325 4.781 3.485 8.219 3.485 4.39 0 7.71-2.184 9.941-6.551l3.485 1.766c-1.305 2.695-3.137 4.761-5.485 6.175-2.355 1.43-5.082 2.14-8.172 2.14-3.156 0-5.898-.663-8.222-2-2.356-1.335-4.121-3.222-5.293-5.663-1.207-2.438-1.813-5.344-1.813-8.688 0-5.015 1.348-8.941 4.043-11.797 2.715-2.843 6.477-4.269 11.285-4.269 3.344 0 6.133.668 8.36 1.992 2.25 1.3 3.925 3.242 5.015 5.809l-4.043 1.347c-.699-1.796-1.875-3.191-3.527-4.183-1.613-.988-3.527-1.485-5.758-1.485Zm24.547 28.938c-2.418 0-4.25-.629-5.48-1.902-1.207-1.305-1.813-3.07-1.813-5.301 0-2.508.813-4.422 2.465-5.758 1.633-1.36 4.281-2.09 7.937-2.184l5.438-.046v-1.348c0-1.95-.418-3.344-1.254-4.18-.84-.86-2.137-1.297-3.902-1.297-1.801 0-3.114.313-3.95.926-.812.594-1.296 1.567-1.484 2.926l-4.18-.414c.672-4.332 3.91-6.504 9.704-6.504 3.035 0 5.308.695 6.828 2.09 1.547 1.394 2.324 3.414 2.324 6.039v10.402c0 1.207.148 2.125.465 2.742.3.59.89.88 1.765.88a5.62 5.62 0 0 0 1.348-.184v2.507a13.28 13.28 0 0 1-3.113.372c-1.485 0-2.578-.387-3.25-1.16-.684-.801-1.07-2.044-1.16-3.715h-.141c-1.024 1.855-2.219 3.18-3.578 3.945-1.367.765-3.02 1.16-4.969 1.16Zm.93-3.024c1.449 0 2.75-.335 3.902-1.019a7.656 7.656 0 0 0 1.531-1.164 7.497 7.497 0 0 0 1.176-1.52 7.365 7.365 0 0 0 1.008-3.68v-1.995l-4.371.09c-1.926.038-3.375.234-4.363.605-.918.3-1.66.844-2.23 1.625-.497.742-.743 1.719-.743 2.93 0 1.332.348 2.355 1.07 3.058.707.723 1.719 1.07 3.02 1.07Zm38.742-9.66c0 8.453-2.961 12.684-8.867 12.684-1.84 0-3.371-.328-4.602-.977-1.207-.675-2.183-1.765-2.926-3.254h-.046c0 .465-.036 1.184-.09 2.141a63.454 63.454 0 0 1-.14 1.625h-3.903c.09-.805.14-2.465.14-4.969v-28.195h4.04v9.477c0 .96-.036 2.09-.094 3.386h.093c.743-1.543 1.72-2.644 2.926-3.297 1.23-.671 2.766-1.02 4.598-1.02 3.062 0 5.308 1.044 6.734 3.11 1.418 2.047 2.14 5.145 2.14 9.29Zm-4.18.141c0-3.367-.453-5.781-1.343-7.242-.907-1.457-2.36-2.188-4.372-2.188-2.257 0-3.925.782-4.964 2.324-1.024 1.555-1.536 4.016-1.536 7.387 0 3.156.485 5.5 1.485 7.012 1.023 1.52 2.672 2.277 4.972 2.277 2.008 0 3.457-.746 4.368-2.23.93-1.512 1.39-3.961 1.39-7.34Zm9.16-17.23v-3.856h3.993v3.856Zm0 29.308V637.22h3.993v24.152Zm25.528 0v-15.328c0-1.578-.164-2.797-.465-3.668-.317-.895-.828-1.535-1.535-1.902-.684-.399-1.672-.61-2.973-.61-1.95 0-3.484.676-4.598 2-1.113 1.301-1.671 3.133-1.671 5.48v14.028h-4.043v-18.996c0-2.813-.043-4.527-.137-5.156h3.808c.02.07.047.27.047.605.024.309.047.684.047 1.114.024.437.059 1.242.09 2.414h.05c.927-1.672 1.997-2.844 3.204-3.528 1.23-.71 2.754-1.07 4.55-1.07 2.626 0 4.563.672 5.805 1.996 1.23 1.3 1.86 3.473 1.86 6.504v16.117Zm13.148-11.242c0 2.789.57 4.945 1.719 6.457 1.14 1.484 2.812 2.226 5.02 2.226 1.726 0 3.12-.347 4.18-1.07 1.042-.703 1.765-1.586 2.136-2.644l3.527.976c-1.46 3.844-4.734 5.762-9.844 5.762-3.57 0-6.293-1.07-8.175-3.207-1.86-2.137-2.79-5.305-2.79-9.52 0-3.96.93-7.015 2.79-9.152 1.883-2.133 4.562-3.203 8.035-3.203 7.082 0 10.637 4.297 10.637 12.863v.512Zm13.102-3.063c-.258-2.566-.918-4.43-1.996-5.574-1.059-1.172-2.59-1.765-4.602-1.765-1.95 0-3.508.652-4.644 1.949-1.118 1.3-1.72 3.101-1.813 5.386Zm18.492 14.118c-1.3.37-2.645.558-4.043.558-3.227 0-4.828-1.824-4.828-5.48v-16.117h-2.79v-2.926h2.93l1.207-5.438h2.692v5.438h4.46v2.926h-4.46v15.234c0 1.183.187 1.996.558 2.46.375.466 1.02.696 1.954.696.554 0 1.32-.105 2.32-.324Zm295.351-76.762c0 2.973-.976 5.34-2.925 7.105-1.926 1.766-4.551 2.645-7.895 2.645h-9.246v12.265h-4.273v-31.492h13.238c3.531 0 6.25.836 8.176 2.508 1.949 1.652 2.926 3.973 2.926 6.969Zm-4.273.043c0-4.05-2.45-6.082-7.34-6.082h-8.453v12.398h8.64c4.759 0 7.153-2.101 7.153-6.316Zm9.809 21.972v-18.53c0-1.696-.043-3.579-.137-5.622h3.809c.117 2.727.183 4.367.183 4.922h.094c.652-2.066 1.371-3.484 2.183-4.227.836-.77 2.024-1.16 3.579-1.16.523 0 1.07.082 1.625.23v3.669a8.739 8.739 0 0 0-2.184-.23c-1.648 0-2.914.73-3.805 2.183-.875 1.426-1.304 3.48-1.304 6.18v12.586Zm35.562-12.125c0 4.254-.926 7.41-2.785 9.477-1.86 2.078-4.555 3.11-8.086 3.11-3.527 0-6.21-1.07-8.031-3.204-1.801-2.16-2.696-5.293-2.696-9.383 0-8.324 3.622-12.492 10.872-12.492 3.68 0 6.382 1.02 8.125 3.063 1.73 2.02 2.601 5.156 2.601 9.43Zm-4.18 0c0-3.308-.5-5.722-1.484-7.246-1-1.507-2.676-2.273-5.02-2.273-2.355 0-4.062.777-5.105 2.32-1.059 1.555-1.582 3.95-1.582 7.2 0 3.195.512 5.597 1.531 7.199 1.047 1.617 2.696 2.414 4.926 2.414 2.414 0 4.129-.766 5.156-2.32 1.043-1.547 1.575-3.973 1.575-7.293Zm29.594-.09c0 8.45-2.96 12.676-8.87 12.676-3.716 0-6.224-1.406-7.52-4.226h-.098c.059.129.094 1.394.094 3.812v9.426h-4.043v-28.703c0-2.473-.047-4.113-.137-4.922h3.898c.024.067.063.278.098.649.02.347.059.906.086 1.671.027.743.05 1.254.05 1.536h.095c.707-1.489 1.648-2.57 2.832-3.254 1.171-.707 2.718-1.07 4.644-1.07 2.973 0 5.18 1.011 6.645 3.019 1.484 1.988 2.226 5.11 2.226 9.387Zm-4.18.09c0-3.343-.464-5.734-1.39-7.199-.91-1.449-2.352-2.18-4.32-2.18-1.614 0-2.868.348-3.766 1.02-.906.684-1.578 1.742-2.043 3.16-.465 1.395-.695 3.239-.695 5.528 0 3.156.488 5.5 1.484 7.011 1.024 1.52 2.672 2.274 4.973 2.274 1.972 0 3.433-.719 4.367-2.18.926-1.488 1.39-3.96 1.39-7.433Zm12.27.883c0 2.785.57 4.95 1.719 6.457 1.137 1.489 2.812 2.23 5.015 2.23 1.73 0 3.125-.35 4.18-1.07 1.047-.707 1.766-1.59 2.14-2.644l3.528.973c-1.465 3.843-4.734 5.757-9.848 5.757-3.566 0-6.293-1.07-8.171-3.203-1.86-2.136-2.79-5.304-2.79-9.52 0-3.96.93-7.015 2.79-9.152 1.878-2.136 4.562-3.203 8.035-3.203 7.082 0 10.636 4.297 10.636 12.864v.511Zm13.098-3.062c-.254-2.57-.914-4.426-1.996-5.578-1.059-1.172-2.59-1.762-4.598-1.762-1.953 0-3.508.648-4.645 1.95-1.117 1.3-1.718 3.1-1.812 5.386Zm9.297 14.304v-18.53c0-1.696-.047-3.579-.137-5.622h3.805c.12 2.727.187 4.367.187 4.922h.094c.652-2.066 1.37-3.484 2.183-4.227.832-.77 2.024-1.16 3.579-1.16.523 0 1.07.082 1.625.23v3.669a8.739 8.739 0 0 0-2.184-.23c-1.649 0-2.914.73-3.809 2.183-.87 1.426-1.3 3.48-1.3 6.18v12.586Zm24.418-.187c-1.301.371-2.653.559-4.043.559-3.227 0-4.829-1.825-4.829-5.485v-16.113h-2.789v-2.926h2.926l1.207-5.433h2.696v5.433h4.457v2.926h-4.457v15.23c0 1.188.187 2 .558 2.465.371.465 1.02.696 1.95.696.554 0 1.324-.102 2.32-.325Zm4.609 9.66c-1.113 0-2.04-.082-2.785-.234v-3.016c.582.09 1.219.14 1.902.14 2.477 0 4.461-1.85 5.945-5.53l.375-.926-9.617-24.059h4.32l5.063 13.328c.098.219.188.489.281.79.118.28.461 1.242 1.02 2.882.558 1.645.86 2.574.93 2.785l1.535-4.414 5.293-15.37h4.273l-9.332 24.152c-1.004 2.562-1.934 4.468-2.789 5.71-.871 1.266-1.836 2.207-2.883 2.832-1.09.641-2.265.95-3.531.93Zm-779.418-84.492h2.754v143.781h-2.754Zm0 0"/><path fill="#585d60" d="M503.688 537.84c0 1.207-.231 2.379-.696 3.492a8.942 8.942 0 0 1-1.984 2.973 9.004 9.004 0 0 1-2.961 1.988 9.02 9.02 0 0 1-3.496.695 8.918 8.918 0 0 1-3.504-.695 8.96 8.96 0 0 1-2.965-1.988 8.737 8.737 0 0 1-1.973-2.973 8.861 8.861 0 0 1-.695-3.492c0-1.219.23-2.383.695-3.508a8.804 8.804 0 0 1 1.973-2.96 9.02 9.02 0 0 1 2.965-1.99 8.984 8.984 0 0 1 3.504-.69 8.946 8.946 0 0 1 3.496.69 9.004 9.004 0 0 1 2.96 1.99 9.02 9.02 0 0 1 1.99 2.964 8.984 8.984 0 0 1 .69 3.504ZM71.41 466.73H36.828a18.518 18.518 0 0 1-6.98-1.367 18.54 18.54 0 0 1-5.98-3.855 18.485 18.485 0 0 1-4.098-5.82 19.007 19.007 0 0 1-1.672-6.918 19.06 19.06 0 0 1 1.035-7.051 18.95 18.95 0 0 1 1.484-3.239 19.312 19.312 0 0 1 2.078-2.914 18.545 18.545 0 0 1 4.047-3.503 18.458 18.458 0 0 1 4.871-2.208 18.801 18.801 0 0 1 3.508-.675v-1.325c0-1.23.129-2.46.356-3.668.25-1.207.609-2.39 1.082-3.53a18.392 18.392 0 0 1 1.73-3.25 18.221 18.221 0 0 1 2.348-2.856 18.798 18.798 0 0 1 6.093-4.074c2.301-.957 4.7-1.434 7.192-1.43.922 0 1.844.062 2.758.2.918.132 1.816.335 2.703.6a18.95 18.95 0 0 1 4.992 2.36 18.777 18.777 0 0 1 6.918 8.45c.477 1.14.832 2.323 1.066 3.53.243 1.208.36 2.438.36 3.668v1.325c2.367.21 4.61.855 6.722 1.937 3.227 1.63 5.766 3.992 7.63 7.082a18.842 18.842 0 0 1 1.534 3.172 18.449 18.449 0 0 1 1.16 6.91 18.386 18.386 0 0 1-.394 3.485 18.009 18.009 0 0 1-1.035 3.363 19.733 19.733 0 0 1-1.633 3.101 18.501 18.501 0 0 1-4.867 5.04c-.95.683-1.977 1.27-3.043 1.753a18.46 18.46 0 0 1-6.781 1.684Zm-33.7-5.503h33.583a13.1 13.1 0 0 0 4.887-1.254 12.852 12.852 0 0 0 4.074-2.985 12.962 12.962 0 0 0 2.672-4.281c.617-1.605.906-3.266.883-4.973a13.162 13.162 0 0 0-.602-3.754 13.236 13.236 0 0 0-1.633-3.43 13.233 13.233 0 0 0-2.535-2.827 13.186 13.186 0 0 0-3.23-1.996 12.964 12.964 0 0 0-4.922-1.09 11.682 11.682 0 0 0-1.282 0c-.449.058-.882 0-1.304-.172a2.557 2.557 0 0 1-1.051-.79 2.585 2.585 0 0 1-.578-2.488c.266-.984.414-1.984.45-3.007a12.589 12.589 0 0 0-.231-3.04 13.35 13.35 0 0 0-1.633-4.257 13.335 13.335 0 0 0-2.965-3.465c-.79-.648-1.64-1.2-2.559-1.648a13.165 13.165 0 0 0-8.918-1.035c-.996.234-1.949.578-2.863 1.035a13.133 13.133 0 0 0-5.535 5.11 13.037 13.037 0 0 0-1.617 4.26 13.22 13.22 0 0 0-.246 3.04c.035 1.023.183 2.023.465 3.007.12.438.128.875.027 1.317a2.636 2.636 0 0 1-.606 1.172 2.635 2.635 0 0 1-2.351.96 11.753 11.753 0 0 0-1.285 0c-2.692-.003-5.153.743-7.383 2.243a12.486 12.486 0 0 0-2.024 1.656 13.569 13.569 0 0 0-1.648 2.012c-.488.73-.895 1.496-1.23 2.3a13.258 13.258 0 0 0-1.012 5.098c-.008 2.696.738 5.16 2.242 7.395a13.196 13.196 0 0 0 4.785 4.344 13.226 13.226 0 0 0 6.27 1.566h.906Zm469.614-22.051a34.564 34.564 0 0 1-9.273-1.192 34.65 34.65 0 0 1-8.621-3.625 35.255 35.255 0 0 1-8.63 3.575 34.987 34.987 0 0 1-9.265 1.218 34.943 34.943 0 0 1-9.254-1.218 35.33 35.33 0 0 1-10.62-4.797 35.353 35.353 0 0 1-8.505-7.977 35.796 35.796 0 0 1-2.601-3.898 35.31 35.31 0 0 1-4.493-13.227 35.049 35.049 0 0 1-.312-4.668c.008-3.86.613-7.62 1.82-11.285a36.19 36.19 0 0 1 5.285-10.125 35.646 35.646 0 0 1 8.207-7.953 35.663 35.663 0 0 1 10.293-4.961 28.47 28.47 0 0 1-.605-3.387 30.758 30.758 0 0 1-.059-6.886c.13-1.137.313-2.278.57-3.391.243-1.129.56-2.23.938-3.32a28.22 28.22 0 0 1 1.317-3.18 32.29 32.29 0 0 1 1.656-3.02 31.123 31.123 0 0 1 4.3-5.367c.821-.812 1.68-1.566 2.575-2.289a32.048 32.048 0 0 1 2.824-1.973 29.81 29.81 0 0 1 3.031-1.636 29.828 29.828 0 0 1 6.504-2.203 30.462 30.462 0 0 1 6.836-.684c1.153.008 2.297.086 3.438.238 2.28.297 4.504.848 6.664 1.653 1.082.402 2.125.855 3.16 1.379a32.716 32.716 0 0 1 2.973 1.73c.96.637 1.882 1.324 2.765 2.055a32.544 32.544 0 0 1 2.504 2.36c.79.831 1.535 1.714 2.23 2.636a31.775 31.775 0 0 1 1.907 2.851 27.035 27.035 0 0 1 1.578 3.067 30.451 30.451 0 0 1 2.531 9.972 33.73 33.73 0 0 1 .07 3.442 31.084 31.084 0 0 1-1.023 6.805 35.54 35.54 0 0 1 10.613 6.328 35.668 35.668 0 0 1 5.293 5.668 35.59 35.59 0 0 1 3.953 6.675 35.795 35.795 0 0 1 2.418 7.372 35.84 35.84 0 0 1 .77 7.718 35.26 35.26 0 0 1-1.27 9.211 35.34 35.34 0 0 1-3.617 8.567 35.583 35.583 0 0 1-3.574 5.078 35.716 35.716 0 0 1-6.879 6.254 35.66 35.66 0 0 1-8.25 4.277 35.343 35.343 0 0 1-12.172 2.133Zm-17.894-10.797c.535 0 1.035.148 1.484.441a29.43 29.43 0 0 0 5.797 2.973 30.36 30.36 0 0 0 6.305 1.66c2.16.324 4.332.418 6.504.27a29.786 29.786 0 0 0 12.449-3.606 29.336 29.336 0 0 0 5.347-3.715 30.216 30.216 0 0 0 4.454-4.757 30.789 30.789 0 0 0 3.32-5.618 31.245 31.245 0 0 0 2.039-6.191c.457-2.137.676-4.297.664-6.48 0-2.196-.242-4.352-.719-6.481a30.188 30.188 0 0 0-5.469-11.758 30.012 30.012 0 0 0-9.87-8.394 30.398 30.398 0 0 0-6.048-2.418 2.523 2.523 0 0 1-1.675-1.407c-.34-.734-.34-1.468 0-2.207a23.93 23.93 0 0 0 1.394-5.757 25.124 25.124 0 0 0 0-5.934c-.12-.98-.3-1.95-.535-2.91-.23-.965-.523-1.91-.883-2.836a23.119 23.119 0 0 0-1.207-2.719 23.884 23.884 0 0 0-1.52-2.543 25.439 25.439 0 0 0-3.906-4.46 24.488 24.488 0 0 0-7.55-4.645 25.133 25.133 0 0 0-2.813-.914 24.73 24.73 0 0 0-2.914-.559 22.839 22.839 0 0 0-2.965-.219 24.644 24.644 0 0 0-5.883.64 24.674 24.674 0 0 0-5.566 2.005 25.113 25.113 0 0 0-7.07 5.344c-.672.73-1.301 1.496-1.88 2.3a25.704 25.704 0 0 0-1.581 2.504c-.485.867-.91 1.762-1.278 2.684a24.099 24.099 0 0 0-1.554 5.726c-.14.977-.235 1.961-.258 2.961-.047 1.989.14 3.954.559 5.899.21.96.476 1.914.804 2.851.266.793.196 1.547-.222 2.27-.399.723-1.004 1.164-1.817 1.32-1.086.223-2.156.5-3.21.836-1.06.348-2.09.746-3.102 1.2-1.016.452-2.004.96-2.961 1.53a30.254 30.254 0 0 0-2.766 1.833 32.775 32.775 0 0 0-2.555 2.14 31.727 31.727 0 0 0-4.332 5.04 32.679 32.679 0 0 0-1.714 2.843 33.013 33.013 0 0 0-1.407 3.02 30.295 30.295 0 0 0-2.11 9.718 30.14 30.14 0 0 0 1.126 9.88c.309 1.07.672 2.113 1.09 3.148.43 1.02.906 2.02 1.426 2.996a29.702 29.702 0 0 0 1.753 2.832 29.595 29.595 0 0 0 9.735 8.93c.96.558 1.95 1.058 2.957 1.496a29.448 29.448 0 0 0 9.64 2.437c1.102.098 2.204.129 3.32.098a30.061 30.061 0 0 0 3.31-.27 27.529 27.529 0 0 0 3.273-.64 27.79 27.79 0 0 0 3.168-.985 29.422 29.422 0 0 0 5.933-2.984 2.75 2.75 0 0 1 1.489-.418Zm0 0"/><path fill="#585d60" d="M488.05 367.547h5.5v99.183h-5.5Zm0 0"/><path fill="#585d60" d="m469.75 399.918 3.578-4.18 19.274 16.535-3.59 4.18Zm612.848-17.102h5.5v83.91h-5.5Zm0 0"/><path fill="#585d60" d="M1085.348 446.18c-4.07 0-7.985-.782-11.743-2.348a31.06 31.06 0 0 1-5.304-2.844 30.471 30.471 0 0 1-4.645-3.82 30.477 30.477 0 0 1-8.406-15.723 30.432 30.432 0 0 1-.594-5.976c0-15.875 27.032-77.754 28.18-80.38.492-1.089 1.316-1.632 2.512-1.644 1.207 0 2.054.547 2.53 1.649 1.161 2.62 28.161 64.5 28.161 80.375a30.771 30.771 0 0 1-5.184 17.055 29.834 29.834 0 0 1-3.82 4.644 29.765 29.765 0 0 1-4.64 3.82 30.557 30.557 0 0 1-5.31 2.848 30.366 30.366 0 0 1-11.741 2.348Zm0-103.04c-8.836 20.669-25.188 61.274-25.188 72.329a25.35 25.35 0 0 0 1.918 9.636 25.751 25.751 0 0 0 2.332 4.368 25.876 25.876 0 0 0 3.125 3.816 26.513 26.513 0 0 0 3.82 3.133 25.19 25.19 0 0 0 9.079 3.754 25.288 25.288 0 0 0 9.824.012c1.625-.32 3.199-.801 4.726-1.438a24.361 24.361 0 0 0 4.352-2.324 26.406 26.406 0 0 0 3.824-3.137 24.707 24.707 0 0 0 5.457-8.184 23.807 23.807 0 0 0 1.43-4.726c.324-1.625.484-3.266.484-4.91 0-11.055-16.347-51.664-25.187-72.328Zm0 0"/><path fill="#585d60" d="m1083.418 406.504 11.648-11.649 3.887 3.891-11.633 11.66Zm304.184 4.215h-5.504v-60.856l-71.926-59.511 3.496-4.258 72.945 60.332c.32.254.57.566.742.941.176.371.258.762.247 1.172Zm-160.579-125.242h63.504v5.515h-63.504Zm0 0"/><path fill="#585d60" d="M1309.95 463.98h-5.5V349.922l-77.43-58.246-77.422 58.246v113.394h-5.508V348.54c-.008-.43.09-.84.285-1.223.191-.382.465-.699.816-.949l80.184-60.332a2.576 2.576 0 0 1 1.648-.558 2.598 2.598 0 0 1 1.649.558l80.18 60.332c.351.25.62.567.816.95.195.386.289.792.281 1.222Zm0 0"/><path fill="#585d60" d="M1214.633 396.363h-30.274a2.557 2.557 0 0 1-1.953-.8 2.563 2.563 0 0 1-.8-1.95v-41.785c0-.77.265-1.418.8-1.953a2.562 2.562 0 0 1 1.953-.813h30.27a2.67 2.67 0 0 1 1.953.813c.535.535.8 1.184.8 1.953v41.785a2.577 2.577 0 0 1-.8 1.95 2.56 2.56 0 0 1-1.953.804Zm-27.52-5.5h24.77v-36.289h-24.77Zm0 0"/><path fill="#585d60" d="M1185.29 364.797h30.308v5.512h-30.309Zm81.64 31.566h-30.27a2.544 2.544 0 0 1-1.953-.8 2.563 2.563 0 0 1-.8-1.95v-41.785c0-.77.265-1.418.8-1.953a2.554 2.554 0 0 1 1.953-.813h30.27c.77 0 1.406.278 1.953.813.535.535.804 1.184.804 1.953v41.785a2.566 2.566 0 0 1-.804 1.95 2.575 2.575 0 0 1-1.953.804Zm-27.52-5.5h24.77v-36.289h-24.77Zm0 0"/><path fill="#585d60" d="M1237.59 364.797h30.305v5.512h-30.305Zm-22.875 101.27h-30.274a2.53 2.53 0 0 1-1.949-.801 2.586 2.586 0 0 1-.804-1.95v-55.093c0-.766.269-1.414.804-1.95a2.52 2.52 0 0 1 1.95-.812h30.273c.765 0 1.414.27 1.95.812.534.536.8 1.184.8 1.95v55.097c0 .754-.266 1.407-.8 1.953a2.549 2.549 0 0 1-1.95.801Zm-27.52-5.5h24.766v-49.594h-24.766Zm0 0"/><path fill="#585d60" d="M1189.945 427.496h5.504v13.781h-5.504Zm210.93 39.234h-34.582a18.518 18.518 0 0 1-6.98-1.367 18.54 18.54 0 0 1-5.981-3.855 18.41 18.41 0 0 1-4.094-5.82 18.46 18.46 0 0 1-1.16-3.38 18.06 18.06 0 0 1-.504-3.538 18.891 18.891 0 0 1 1.024-7.051c.394-1.13.89-2.203 1.484-3.239a19.063 19.063 0 0 1 2.082-2.914 18.615 18.615 0 0 1 4.043-3.503 18.54 18.54 0 0 1 4.875-2.208 18.822 18.822 0 0 1 3.504-.675v-1.325a18.69 18.69 0 0 1 .824-5.449 18.565 18.565 0 0 1 2.371-4.976 18.721 18.721 0 0 1 5.176-5.18 19.532 19.532 0 0 1 3.254-1.73 19.677 19.677 0 0 1 3.52-1.07 19.461 19.461 0 0 1 3.656-.356c1.242 0 2.46.125 3.668.355 1.21.246 2.379.606 3.52 1.07a19.496 19.496 0 0 1 3.25 1.731 18.788 18.788 0 0 1 5.179 5.18 18.74 18.74 0 0 1 2.824 6.77c.242 1.206.356 2.425.367 3.655v1.325c2.364.21 4.602.86 6.715 1.937a18.32 18.32 0 0 1 2.973 1.875 18.873 18.873 0 0 1 4.664 5.211c1.863 3.102 2.762 6.461 2.7 10.078-.075 3.614-1.099 6.93-3.079 9.953a19.616 19.616 0 0 1-2.195 2.746 19.04 19.04 0 0 1-2.66 2.29 18.864 18.864 0 0 1-6.36 2.914c-1.144.28-2.3.453-3.476.523Zm-33.723-5.503h33.606a13.14 13.14 0 0 0 4.89-1.254 13.107 13.107 0 0 0 4.07-2.985 12.813 12.813 0 0 0 2.673-4.281c.625-1.598.918-3.258.882-4.973a12.96 12.96 0 0 0-1.03-4.945 13.022 13.022 0 0 0-2.798-4.203 13.12 13.12 0 0 0-4.172-2.856 12.969 12.969 0 0 0-4.921-1.093 11.4 11.4 0 0 0-1.266 0c-.453.05-.89-.012-1.313-.188a2.79 2.79 0 0 1-.843-.527 2.772 2.772 0 0 1-.598-.793 2.792 2.792 0 0 1-.277-.953 2.806 2.806 0 0 1 .082-.988 13.7 13.7 0 0 0 .46-3.004 13.142 13.142 0 0 0-1.167-5.946 12.848 12.848 0 0 0-1.559-2.629 12.934 12.934 0 0 0-4.668-3.84c-.914-.457-1.871-.8-2.867-1.035a13.165 13.165 0 0 0-6.055 0 13.14 13.14 0 0 0-2.863 1.036 12.934 12.934 0 0 0-4.668 3.84 12.68 12.68 0 0 0-1.566 2.624 13.246 13.246 0 0 0-1.121 4.418c-.122 1.536.019 3.047.421 4.536.125.437.137.878.032 1.32a2.59 2.59 0 0 1-.61 1.168 2.635 2.635 0 0 1-2.351.96 11.753 11.753 0 0 0-1.285 0 13.093 13.093 0 0 0-5.094 1.009 13.019 13.019 0 0 0-4.313 2.894 13.538 13.538 0 0 0-1.648 2.008 13.71 13.71 0 0 0-1.23 2.3 14.452 14.452 0 0 0-.755 2.497c-.175.86-.253 1.73-.253 2.601-.008 2.696.738 5.16 2.242 7.395a13.543 13.543 0 0 0 1.644 2.012c.63.613 1.29 1.168 2.024 1.656.718.488 1.484.89 2.297 1.23.8.328 1.636.582 2.496.758.847.172 1.718.254 2.59.254h.882Zm-56.097-152.192h-19.262a2.512 2.512 0 0 1-1.953-.808 2.546 2.546 0 0 1-.8-1.942v-35.82c0-.754.265-1.406.8-1.953a2.659 2.659 0 0 1 1.953-.801h19.262a2.69 2.69 0 0 1 1.953.8c.535.548.8 1.2.8 1.954v35.82a2.546 2.546 0 0 1-.8 1.942c-.535.55-1.184.82-1.953.808Zm-16.512-5.512h13.762v-30.296h-13.762Zm11.008 41.325h78.336v5.511h-78.336Zm0 0"/></svg>