<svg width="44" height="44" viewBox="0 0 44 44" fill="none" xmlns="http://www.w3.org/2000/svg">
<path d="M22 0.25C27.7664 0.256717 33.2946 2.55047 37.3721 6.62793C41.4495 10.7054 43.7433 16.2336 43.75 22L43.7354 22.8057C43.5864 26.8252 42.3245 30.7309 40.084 34.084C37.6941 37.6605 34.2974 40.4486 30.3232 42.0947C26.349 43.7408 21.9758 44.1712 17.7568 43.332C13.5377 42.4928 9.66191 40.4217 6.62012 37.3799C3.57833 34.3381 1.5072 30.4623 0.667969 26.2432C-0.171233 22.0242 0.259152 17.651 1.90527 13.6768C3.55141 9.70263 6.33947 6.30592 9.91602 3.91602C13.2691 1.67553 17.1748 0.413603 21.1943 0.264648L22 0.25ZM5.19922 30.5752C6.44308 33.0038 8.19736 35.135 10.3418 36.8223C12.4864 38.5095 14.9708 39.7132 17.624 40.3506L18.2988 40.5127L17.8828 39.958C15.7347 37.0943 14.1475 33.8493 13.2061 30.3955L13.1562 30.2119H5.0127L5.19922 30.5752ZM30.7939 30.3955C29.8525 33.8493 28.2653 37.0943 26.1172 39.958L25.7012 40.5127L26.376 40.3506C29.0292 39.7132 31.5136 38.5095 33.6582 36.8223C35.8026 35.135 37.5569 33.0038 38.8008 30.5752L38.9873 30.2119H30.8438L30.7939 30.3955ZM16.2607 30.5342C17.3567 34.121 19.2573 37.4105 21.8174 40.1514L22 40.3467L22.1826 40.1514C24.7437 37.4112 26.6445 34.1215 27.7393 30.5342L27.8379 30.2119H16.1621L16.2607 30.5342ZM3.84863 16.8545C3.37351 18.5282 3.13329 20.2601 3.13477 22L3.14551 22.6514C3.19697 24.1715 3.43284 25.6808 3.84863 27.1455L3.90039 27.3271H12.5273L12.4824 27.0391C11.9673 23.6996 11.9673 20.3004 12.4824 16.9609L12.5273 16.6729H3.90039L3.84863 16.8545ZM15.4287 16.8809C14.8429 20.2685 14.8429 23.7315 15.4287 27.1191L15.4648 27.3271H28.5527L28.5879 27.1191C29.1737 23.7315 29.1737 20.2685 28.5879 16.8809L28.5527 16.6729H15.4648L15.4287 16.8809ZM31.5176 16.9609C32.0327 20.3004 32.0327 23.6996 31.5176 27.0391L31.4727 27.3271H40.0996L40.1514 27.1455C40.6265 25.4718 40.8667 23.7399 40.8652 22L40.8545 21.3486C40.803 19.8285 40.5672 18.3192 40.1514 16.8545L40.0996 16.6729H31.4727L31.5176 16.9609ZM17.624 3.64941C14.9708 4.28681 12.4864 5.4905 10.3418 7.17773C8.19736 8.86495 6.44308 10.9962 5.19922 13.4248L5.0127 13.7881H13.1562L13.2061 13.6045C14.1475 10.1507 15.7347 6.90568 17.8828 4.04199L18.2988 3.4873L17.624 3.64941ZM21.8174 3.84863C19.2563 6.58878 17.3555 9.87852 16.2607 13.4658L16.1621 13.7881H27.8379L27.7393 13.4658C26.6433 9.87903 24.7427 6.58947 22.1826 3.84863L22 3.65332L21.8174 3.84863ZM26.1172 4.04199C28.2653 6.90568 29.8525 10.1507 30.7939 13.6045L30.8438 13.7881H38.9873L38.8008 13.4248C37.5569 10.9962 35.8026 8.86495 33.6582 7.17773C31.5136 5.4905 29.0292 4.2868 26.376 3.64941L25.7012 3.4873L26.1172 4.04199Z" fill="#1D1D1F" stroke="white" stroke-width="0.5"/>
</svg>
