<svg width="44" height="44" viewBox="0 0 44 44" fill="none" xmlns="http://www.w3.org/2000/svg">
<path d="M1.12988 21.1191C1.12839 20.6896 1.21254 20.264 1.37695 19.8672C1.54138 19.4703 1.78303 19.1102 2.08789 18.8076L19.6885 1.20703C20.3016 0.594339 21.1332 0.25 22 0.25C22.8664 0.250097 23.6975 0.593828 24.3105 1.20605V1.20703L41.9111 18.8066V18.8076C42.216 19.1102 42.4576 19.4703 42.6221 19.8672C42.7865 20.264 42.8706 20.6896 42.8691 21.1191V42.2402C42.8691 42.6406 42.7099 43.0245 42.4268 43.3076C42.1436 43.5907 41.7598 43.75 41.3594 43.75H27.2793C26.8789 43.7499 26.495 43.5907 26.2119 43.3076C25.9288 43.0245 25.7696 42.6406 25.7695 42.2402V29.6699H18.2295V42.2402C18.2294 42.6406 18.0702 43.0245 17.7871 43.3076C17.5039 43.5907 17.1201 43.75 16.7197 43.75H2.63965C2.23926 43.7499 1.85539 43.5907 1.57227 43.3076C1.28915 43.0245 1.12994 42.6406 1.12988 42.2402V21.1191ZM39.8496 21.0166L22 3.16699L21.8232 3.34375L4.22266 20.9434L4.14941 21.0166V40.7305H15.21V28.1602C15.21 27.7597 15.3692 27.3759 15.6523 27.0928C15.9355 26.8096 16.3193 26.6504 16.7197 26.6504H27.2793C27.6798 26.6504 28.0645 26.8096 28.3477 27.0928C28.6306 27.3759 28.789 27.7599 28.7891 28.1602V40.7305H39.8496V21.0166Z" fill="#1D1D1F" stroke="white" stroke-width="0.5"/>
</svg>
