<svg width="24" height="24" viewBox="0 0 24 24" fill="none" xmlns="http://www.w3.org/2000/svg">
<path d="M5.87736 21.4273C5.91041 21.5462 5.95691 21.6527 6.01421 21.741C6.07151 21.8292 6.13848 21.8974 6.2113 21.9417C6.28412 21.9859 6.36135 22.0053 6.43859 21.9988C6.51582 21.9922 6.59154 21.9599 6.66141 21.9036L17.8412 12.9037C17.9419 12.8226 18.027 12.6947 18.0865 12.5347C18.1461 12.3747 18.1777 12.1893 18.1777 11.9999C18.1777 11.8106 18.1461 11.6252 18.0865 11.4652C18.027 11.3052 17.9419 11.1772 17.8412 11.0962L6.66141 2.09628C6.59158 2.04006 6.51592 2.00776 6.43874 2.00124C6.36156 1.99471 6.28438 2.01408 6.21161 2.05825C6.13884 2.10241 6.0719 2.17051 6.01461 2.25864C5.95732 2.34677 5.91081 2.45322 5.87773 2.5719C5.84464 2.69058 5.82564 2.81917 5.8218 2.95033C5.81796 3.08149 5.82936 3.21266 5.85535 3.33633C5.88134 3.46001 5.9214 3.57377 5.97326 3.67113C6.02512 3.76849 6.08776 3.84754 6.15759 3.90376L16.2142 11.9999L6.15759 20.0961C6.01658 20.2095 5.90785 20.4135 5.8553 20.6631C5.80275 20.9128 5.81068 21.1876 5.87736 21.4273Z" fill="#0080FF"/>
</svg>
