<svg width="24" height="24" viewBox="0 0 24 24" fill="none" xmlns="http://www.w3.org/2000/svg">
<g clip-path="url(#clip0_789_1220)">
<path d="M1.8457 0.25H22.1543C22.5775 0.250119 22.983 0.418542 23.2822 0.717773C23.5815 1.017 23.7499 1.42254 23.75 1.8457V22.1543C23.7499 22.5775 23.5815 22.983 23.2822 23.2822C22.983 23.5815 22.5775 23.7499 22.1543 23.75H1.8457C1.42254 23.7499 1.017 23.5815 0.717773 23.2822C0.418542 22.983 0.250119 22.5775 0.25 22.1543V1.8457C0.250119 1.42254 0.418543 1.017 0.717773 0.717773C1.017 0.418543 1.42254 0.250119 1.8457 0.25ZM1.5957 22.4043H22.4043V1.5957H1.5957V22.4043ZM7.38477 9.48047C7.56313 9.48051 7.73418 9.55166 7.86035 9.67773C7.98658 9.80396 8.05762 9.97579 8.05762 10.1543V17.5381C8.05762 17.7166 7.98658 17.8884 7.86035 18.0146C7.73418 18.1407 7.56312 18.2119 7.38477 18.2119C7.20625 18.2119 7.03443 18.1409 6.9082 18.0146C6.78205 17.8884 6.71191 17.7165 6.71191 17.5381V10.1543C6.71191 9.97586 6.78207 9.80395 6.9082 9.67773C7.03443 9.55151 7.20625 9.48047 7.38477 9.48047ZM14.0957 9.48828C14.8037 9.44978 15.5092 9.60459 16.1357 9.93652C16.7622 10.2685 17.2866 10.7647 17.6523 11.3721C18.0181 11.9796 18.2117 12.6756 18.2119 13.3848V17.5381C18.2119 17.7166 18.1409 17.8884 18.0146 18.0146C17.8884 18.1409 17.7166 18.2119 17.5381 18.2119C17.3598 18.2118 17.1886 18.1407 17.0625 18.0146C16.9363 17.8884 16.8652 17.7166 16.8652 17.5381V13.3848C16.8652 12.7064 16.5958 12.0558 16.1162 11.5762C15.6366 11.0965 14.986 10.8271 14.3076 10.8271C13.6293 10.8272 12.9787 11.0965 12.499 11.5762C12.0194 12.0558 11.75 12.7065 11.75 13.3848V17.5381C11.75 17.7166 11.679 17.8884 11.5527 18.0146C11.4266 18.1407 11.2555 18.2119 11.0771 18.2119C10.8986 18.2119 10.7268 18.1409 10.6006 18.0146C10.4744 17.8884 10.4043 17.7166 10.4043 17.5381V10.1553C10.4051 9.99046 10.4661 9.83162 10.5762 9.70898C10.6863 9.58633 10.8381 9.50773 11.002 9.48926C11.1656 9.47093 11.3303 9.51352 11.4648 9.6084C11.5994 9.70337 11.6948 9.84452 11.7324 10.0049L11.8154 10.3594L12.1162 10.1553C12.7031 9.7572 13.3876 9.52686 14.0957 9.48828ZM7.38477 5.78809C7.68561 5.78813 7.97378 5.90837 8.18652 6.12109C8.39925 6.33382 8.51947 6.62201 8.51953 6.92285C8.51953 7.14726 8.4528 7.36712 8.32812 7.55371C8.20346 7.74023 8.02563 7.88582 7.81836 7.97168C7.61117 8.05738 7.383 8.07988 7.16309 8.03613C6.94304 7.99234 6.74068 7.88424 6.58203 7.72559C6.42338 7.56692 6.31526 7.36459 6.27148 7.14453C6.22774 6.92461 6.25022 6.69645 6.33594 6.48926C6.42179 6.28199 6.56739 6.10416 6.75391 5.97949C6.94049 5.85482 7.16036 5.78809 7.38477 5.78809Z" fill="white" stroke="#323333" stroke-width="0.5"/>
</g>
<defs>
<clipPath id="clip0_789_1220">
<rect width="24" height="24" fill="white"/>
</clipPath>
</defs>
</svg>
