<svg width="309" height="28" viewBox="0 0 309 28" fill="none" xmlns="http://www.w3.org/2000/svg">
<mask id="mask0_311_530" style="mask-type:luminance" maskUnits="userSpaceOnUse" x="0" y="0" width="309" height="28">
<path d="M309 0H0V28H309V0Z" fill="white"/>
</mask>
<g mask="url(#mask0_311_530)">
<path d="M23.0116 0H9.69391V4.69467H23.1311C23.3974 4.70035 23.6511 4.80518 23.8395 4.98735C24.028 5.1695 24.1367 5.415 24.1431 5.6728V22.4728C24.1336 22.7238 24.0217 22.961 23.8321 23.1324C23.6424 23.3038 23.3904 23.3955 23.1311 23.3875H5.78283C5.65809 23.3903 5.53407 23.3685 5.41826 23.3236C5.30245 23.2786 5.19729 23.2113 5.10914 23.1257C5.02103 23.0402 4.95173 22.9382 4.90552 22.826C4.85927 22.7137 4.83709 22.5936 4.84024 22.4728V0.0317333C4.20336 0.0290098 3.57223 0.148575 2.98333 0.383515C2.39445 0.618456 1.8595 0.96411 1.40941 1.40049C0.959321 1.83688 0.603024 2.35533 0.361119 2.92588C0.119216 3.49644 -0.00349703 4.10778 7.58324e-05 4.72453V22.3496C-0.00323854 23.0924 0.145357 23.8284 0.437288 24.5153C0.729219 25.2021 1.15871 25.8262 1.70098 26.3515C2.24325 26.8769 2.88756 27.293 3.59675 27.5759C4.30592 27.8588 5.06595 28.003 5.83297 28H23.0116C24.568 28.0084 26.0641 27.4179 27.1709 26.3583C28.2778 25.2987 28.9047 23.8568 28.9139 22.3496V5.71387C28.9073 4.20009 28.2833 2.75018 27.1777 1.67995C26.0722 0.609726 24.5748 0.00589587 23.0116 0Z" fill="#0080FF"/>
<path d="M18.3251 9.38745H10.6706C10.1309 9.38745 9.69336 9.81118 9.69336 10.3339V17.7464C9.69336 18.2691 10.1309 18.6928 10.6706 18.6928H18.3251C18.8648 18.6928 19.3024 18.2691 19.3024 17.7464V10.3339C19.3024 9.81118 18.8648 9.38745 18.3251 9.38745Z" fill="#0080FF"/>
<path d="M179.651 17.4347H174.446L173.191 21.1233H170.398L175.63 6.73499H178.456L183.699 21.1233H180.908L179.651 17.4347ZM177.033 9.22139C177.033 9.22139 176.7 10.6401 176.407 11.4502L175.09 15.3067H178.982L177.663 11.4558C177.392 10.6457 177.085 9.22699 177.085 9.22699L177.033 9.22139Z" fill="#0080FF"/>
<path d="M183.523 6.73499H186.432L189.697 16.1187C189.991 16.9494 190.241 18.2262 190.262 18.2262H190.303C190.324 18.2262 190.576 16.9494 190.869 16.1187L194.146 6.73499H197.038L191.621 21.1233H188.944L183.523 6.73499Z" fill="#0080FF"/>
<path d="M206.125 17.4347H200.92L199.663 21.1233H196.88L202.113 6.73499H204.937L210.169 21.1233H207.385L206.125 17.4347ZM203.509 9.22139C203.509 9.22139 203.173 10.6401 202.881 11.4502L201.562 15.3067H205.456L204.132 11.4558C203.858 10.6457 203.553 9.22699 203.553 9.22699L203.509 9.22139Z" fill="#0080FF"/>
<path d="M212.485 6.73499H215.184V21.1233H212.485V6.73499Z" fill="#0080FF"/>
<path d="M219.371 6.73499H222.07V18.8683H228.494V21.1083H219.369L219.371 6.73499Z" fill="#0080FF"/>
<path d="M238.938 17.4347H233.734L232.467 21.1233H229.684L234.915 6.73499H237.741L242.972 21.1233H240.189L238.938 17.4347ZM236.322 9.22139C236.322 9.22139 235.987 10.6401 235.694 11.4502L234.376 15.3067H238.267L236.949 11.4558C236.677 10.6457 236.37 9.22699 236.37 9.22699L236.322 9.22139Z" fill="#0080FF"/>
<path d="M245.299 6.73499H250.615C253.293 6.73499 255.197 8.07152 255.197 10.4441C255.197 11.7806 254.528 12.9361 253.398 13.5241V13.5651C255.029 14.0299 255.804 15.4897 255.804 16.9494C255.804 19.8259 253.418 21.1233 250.677 21.1233H245.299V6.73499ZM250.615 12.6113C251.787 12.6113 252.456 11.8011 252.456 10.767C252.456 9.73285 251.828 8.98432 250.573 8.98432H248V12.6113H250.615ZM250.887 18.8739C252.267 18.8739 253.042 18.0022 253.042 16.787C253.042 15.5718 252.246 14.7187 250.887 14.7187H247.996V18.8739H250.887Z" fill="#0080FF"/>
<path d="M259.152 6.73499H261.851V21.1233H259.152V6.73499Z" fill="#0080FF"/>
<path d="M266.038 6.73499H268.737V18.8683H275.162V21.1083H266.038V6.73499Z" fill="#0080FF"/>
<path d="M277.736 6.73499H280.435V21.1233H277.736V6.73499Z" fill="#0080FF"/>
<path d="M287.696 8.98432H282.821V6.73499H295.272V8.98432H290.397V21.1177H287.698L287.696 8.98432Z" fill="#0080FF"/>
<path d="M301.361 15.1051L296.423 6.73499H299.478L301.792 10.9705C302.272 11.8627 302.67 12.9155 302.691 12.895H302.733C302.733 12.895 303.153 11.8627 303.635 10.9705L305.934 6.73499H308.994L304.055 15.1051V21.1233H301.355L301.361 15.1051Z" fill="#0080FF"/>
<path d="M46.8929 13.6043V13.5651C48.0225 13.0163 48.755 11.943 48.755 10.4646C48.755 8.22456 47.1012 6.87683 44.7803 6.87683H39.7568V21.1232H44.946C47.4153 21.1232 49.3622 19.6635 49.3622 17.1323C49.3622 15.4094 48.4001 14.0094 46.8929 13.6043ZM41.2008 8.1331H44.759C46.328 8.1331 47.2648 9.10563 47.2648 10.5598C47.2648 12.0139 46.2626 13.0667 44.7803 13.0667H41.2008V8.1331ZM44.9673 19.867H41.2008V14.267H44.946C46.6615 14.267 47.8547 15.387 47.8547 17.0819C47.8547 18.7768 46.7464 19.867 44.9673 19.867Z" fill="#1D1D1F"/>
<path d="M60.2001 15.3888C60.0871 15.1946 59.9618 15.0076 59.8243 14.8288V14.7877C61.4781 14.3416 62.6077 12.8613 62.6077 10.9368C62.6077 9.21574 61.7712 7.85681 60.3892 7.26881C59.8108 7.02614 59.1343 6.88428 57.6268 6.88428H53.2744V21.1307H54.7181V15.12H58.421L61.7499 21.1176H63.404L60.2001 15.3888ZM58.2127 13.8675H54.7181V8.13308H57.6906C58.8199 8.13308 59.3423 8.25441 59.782 8.47841C60.6398 8.92454 61.1217 9.78508 61.1217 10.9704C61.1217 12.7531 59.9921 13.8675 58.2127 13.8675Z" fill="#1D1D1F"/>
<path d="M73.3222 6.63413C72.334 6.6269 71.3546 6.81044 70.4404 7.17404C69.5266 7.53766 68.6967 8.07403 67.9993 8.75184C67.3019 9.42967 66.7507 10.2353 66.3788 11.1217C66.0066 12.008 65.8204 12.9573 65.8315 13.9141C65.8315 18.088 69.1586 21.3715 73.3222 21.3715C77.4857 21.3715 80.8146 18.088 80.8146 13.9141C80.8257 12.9572 80.6396 12.0077 80.2673 11.1212C79.8951 10.2347 79.3439 9.42903 78.6462 8.75117C77.9488 8.07333 77.1186 7.53699 76.2045 7.17351C75.29 6.81001 74.3103 6.62664 73.3222 6.63413ZM73.3222 20.0741C69.9972 20.0741 67.3466 17.3973 67.3466 13.9141C67.3466 10.5093 70.0047 7.9408 73.3222 7.9408C76.6396 7.9408 79.3073 10.5149 79.3073 13.9141C79.3073 17.3936 76.6297 20.0704 73.3222 20.0704V20.0741Z" fill="#1D1D1F"/>
<path d="M89.4785 6.87683H87.9365L82.5391 21.1232H84.0658L85.7391 16.5835L86.1592 15.3683L88.1253 10.2014C88.378 9.53123 88.69 8.35523 88.69 8.35523H88.7325C88.7325 8.35523 89.0466 9.53123 89.2972 10.2014L91.2249 15.3683L91.6643 16.5835L93.3589 21.1232H94.8874L89.4785 6.87683Z" fill="#1D1D1F"/>
<path d="M132.212 6.87683H130.67L125.272 21.1232H126.799L128.472 16.5835L128.892 15.3683L130.858 10.2014C131.111 9.53123 131.423 8.35523 131.423 8.35523H131.462C131.462 8.35523 131.776 9.53123 132.027 10.2014L133.954 15.3683L134.394 16.5835L136.088 21.1232H137.615L132.212 6.87683Z" fill="#1D1D1F"/>
<path d="M102.453 6.87683H97.7012V21.1232H102.453C106.869 21.1232 109.841 18.5286 109.841 13.9907C109.841 9.49203 106.869 6.87683 102.453 6.87683ZM102.306 19.867H99.147V8.1331H102.306C105.905 8.1331 108.33 10.2014 108.33 14C108.33 17.7987 105.926 19.867 102.306 19.867Z" fill="#1D1D1F"/>
<path d="M120.744 13.6043V13.5651C121.872 13.0163 122.606 11.943 122.606 10.4646C122.606 8.22456 120.952 6.87683 118.63 6.87683H113.606V21.1232H118.797C121.267 21.1232 123.212 19.6635 123.212 17.1323C123.212 15.4094 122.25 14.0094 120.744 13.6043ZM115.052 8.1331H118.609C120.178 8.1331 121.114 9.10563 121.114 10.5598C121.114 12.0139 120.116 13.0667 118.63 13.0667H115.052V8.1331ZM118.819 19.867H115.052V14.267H118.797C120.513 14.267 121.706 15.387 121.706 17.0819C121.706 18.7768 120.598 19.867 118.819 19.867Z" fill="#1D1D1F"/>
<path d="M150.481 6.87683V17.1323C150.481 17.879 150.606 19.0568 150.606 19.0568H150.564C150.564 19.0568 149.853 17.8398 149.349 17.1323L141.832 6.87683H140.431V21.1232H141.87V10.8678C141.87 10.1211 141.745 8.94323 141.745 8.94323H141.787C141.787 8.94323 142.499 10.1603 143.002 10.8678L150.519 21.1232H151.923V6.87683H150.481Z" fill="#1D1D1F"/>
<path d="M161.363 6.87683H156.611V21.1232H161.363C165.779 21.1232 168.749 18.5286 168.749 13.9907C168.749 9.49203 165.773 6.87683 161.363 6.87683ZM161.216 19.867H158.063V8.1331H161.222C164.821 8.1331 167.248 10.2014 167.248 13.9907C167.248 17.78 164.836 19.867 161.216 19.867Z" fill="#1D1D1F"/>
</g>
</svg>
