<svg xmlns="http://www.w3.org/2000/svg" width="1920" height="1080" version="1.0" viewBox="0 0 1440 810"><defs><clipPath id="a"><path d="M104 66.523h757V455H104Zm0 0"/></clipPath><clipPath id="b"><path d="M145 66.523h259.922V458H145Zm0 0"/></clipPath></defs><path fill="#fff" d="M-144-81h1728v972H-144z"/><path fill="#fff" d="M-144-81h1728v972H-144z"/><path fill="#585d60" d="M714.152 454.535h-5.511V341.863h62.644v5.516h-57.133Zm0 0"/><path fill="#585d60" d="M833.773 457.29h-65.398V341.862h65.398Zm-59.902-5.513h54.387V347.38H773.87Zm0 0"/><g clip-path="url(#a)"><path fill="#585d60" d="M860.02 454.535h-5.5V347.38h-23.672v-5.516h29.172Zm-98.137-82.992h-18.778v-18.676h18.778Zm-13.278-5.512h7.766v-7.664h-7.766Zm49.762 5.512h-18.66v-18.676h18.777Zm-13.265-5.512h7.77v-7.664h-7.653ZM110.164 454.54h-5.5V66.727H350.11v5.515H110.164Zm0 0"/></g><g clip-path="url(#b)"><path fill="#585d60" d="M312.102 152.89H145.445v-31.519h166.657Zm-161.157-5.511H306.59V126.87H150.95Zm161.157 71.023H145.445V186.86h166.657Zm-161.157-5.511H306.59v-20.52H150.95Zm161.157 71.011H145.445v-31.52h166.657Zm-161.157-5.515H306.59v-20.504H150.95Zm161.157 71.004H145.445v-31.524h166.657Zm-161.157-5.516H306.59v-20.492H150.95Zm135.14 113.414H171.45v-52.68h114.664Zm-109.144-5.512h103.645v-41.652H176.965Zm227.555 5.512h-57.492V66.73h57.492Zm-51.992-5.512h46.476V72.247h-46.476Zm0 0"/></g><path fill="#585d60" d="M-7.64 451.777h1447.714v5.512H-7.64Zm0 0"/><path fill="#0081ff" d="M709.2 509.355H270.151a42.637 42.637 0 0 1-16.511-3.296 44.266 44.266 0 0 1-7.457-3.993 43.197 43.197 0 0 1-11.899-11.918 42.98 42.98 0 0 1-5.422-11.457A42.875 42.875 0 0 1 227 466.152h8.25c.012 4.633.902 9.09 2.668 13.375a35.769 35.769 0 0 0 3.23 6.028 34.729 34.729 0 0 0 6.872 7.593 34.695 34.695 0 0 0 8.777 5.274c2.125.875 4.3 1.543 6.543 1.992 2.254.453 4.52.676 6.812.688h439.04a35.046 35.046 0 0 0 6.812-.688 34.47 34.47 0 0 0 9.637-3.457 34.747 34.747 0 0 0 8.214-6.11 35.007 35.007 0 0 0 4.34-5.292 35.769 35.769 0 0 0 3.23-6.028 35.012 35.012 0 0 0 2.669-13.375h8.258a45.177 45.177 0 0 1-.164 3.707 43.182 43.182 0 0 1-.477 3.676 43.967 43.967 0 0 1-.793 3.621 43.09 43.09 0 0 1-4.184 10.274 42.708 42.708 0 0 1-4.187 6.11 43.516 43.516 0 0 1-8.074 7.61 45.004 45.004 0 0 1-3.094 2.041 42.253 42.253 0 0 1-3.258 1.77 42.905 42.905 0 0 1-3.394 1.484 42.672 42.672 0 0 1-7.11 2.075 43.34 43.34 0 0 1-8.426.835Zm442.421-7.238c-14.332 0-21.738-6.402-28.281-12.015-6.555-5.622-11.637-10.024-22.938-10.024-11.28 0-16.675 4.649-22.922 10.024-6.246 5.367-13.949 12.015-28.296 12.015-14.336 0-21.762-6.402-28.32-12.015-6.544-5.622-11.641-10.024-22.9-10.024-11.253 0-16.679 4.649-22.921 10.024-6.25 5.367-13.95 12.015-28.297 12.015-14.336 0-21.738-6.402-28.293-12.015-6.547-5.622-11.644-10.024-22.926-10.024-11.28 0-16.652 4.649-22.898 10.024-6.246 5.367-13.988 12.015-28.324 12.015-14.332 0-21.735-6.402-28.293-12.015-6.543-5.622-11.64-10.024-22.899-10.024v-8.27c14.309 0 21.742 6.387 28.297 12.005 6.55 5.628 11.64 10.035 22.899 10.035 11.257 0 16.675-4.653 22.925-10.036 6.243-5.37 13.957-12.003 28.293-12.003 14.348 0 21.778 6.386 28.297 12.003 6.512 5.63 11.668 10.036 22.922 10.036 11.258 0 16.676-4.653 22.899-10.036 6.222-5.37 13.984-12.003 28.32-12.003 14.347 0 21.754 6.386 28.297 12.003 6.55 5.63 11.64 10.036 22.922 10.036 11.28 0 16.523-4.653 22.898-10.036 6.39-5.37 13.988-12.003 28.32-12.003 14.348 0 21.754 6.386 28.297 12.003 6.555 5.63 11.668 10.036 22.922 10.036 11.258 0 16.691-4.653 22.938-10.036 6.246-5.37 13.976-12.003 28.32-12.003v8.27c-11.293 0-16.676 4.648-22.938 10.023-6.242 5.367-13.972 12.015-28.32 12.015Zm0 0"/><path fill="#585d60" d="M141.64 592.434v-31.536h23.848v3.504h-19.574V574.5h18.238v3.453h-18.238v10.973h20.504v3.508Zm44.614 0-6.492-9.946-6.54 9.946h-4.331l8.605-12.422-8.191-11.797h4.43l6.027 9.43 5.976-9.43h4.48l-8.187 11.746 8.703 12.473Zm11.117-12.211c0 3.23.488 5.613 1.492 7.156 1.035 1.55 2.578 2.324 4.637 2.324 1.406 0 2.594-.379 3.559-1.137.953-.785 1.554-1.984 1.8-3.605l4.07.258c-.347 2.343-1.363 4.21-3.038 5.613-1.649 1.379-3.75 2.063-6.286 2.063-3.402 0-6-1.055-7.78-3.192-1.75-2.168-2.626-5.285-2.626-9.379 0-4.086.887-7.187 2.68-9.324 1.777-2.129 4.34-3.2 7.676-3.2 2.472 0 4.504.645 6.132 1.91 1.649 1.274 2.676 3.04 3.086 5.31l-4.12.304c-.208-1.34-.747-2.394-1.594-3.195-.864-.785-2.063-1.184-3.61-1.184-2.137 0-3.68.711-4.633 2.11-.968 1.418-1.445 3.804-1.445 7.168Zm23.793-7.832c.887-1.575 1.93-2.735 3.14-3.453 1.196-.75 2.731-1.133 4.583-1.133 2.64 0 4.586.656 5.824 1.957 1.234 1.312 1.855 3.488 1.855 6.543v16.125h-4.02v-15.356c0-1.672-.155-2.933-.46-3.758a3.145 3.145 0 0 0-1.55-1.804c-.72-.41-1.724-.617-2.99-.617-1.89 0-3.394.656-4.53 1.957-1.133 1.316-1.7 3.078-1.7 5.308v14.274h-4.02V559.25h4.02v8.605c0 .922-.039 1.88-.101 2.832a24.75 24.75 0 0 1-.106 1.704Zm27.645 20.504c-2.446 0-4.278-.63-5.512-1.907-1.211-1.3-1.805-3.066-1.805-5.308 0-2.496.824-4.43 2.473-5.774 1.648-1.332 4.289-2.054 7.933-2.156l5.461-.055v-1.34c0-1.957-.437-3.363-1.285-4.226-.824-.848-2.144-1.285-3.918-1.285-1.789 0-3.09.308-3.914.926-.824.62-1.328 1.597-1.496 2.933l-4.168-.406c.64-4.332 3.871-6.496 9.68-6.496 3.015 0 5.285.71 6.804 2.117 1.543 1.375 2.317 3.387 2.317 6.027v10.407c0 1.21.156 2.109.46 2.73.337.594.942.875 1.806.875.41 0 .851-.05 1.34-.152v2.472c-1.032.23-2.063.364-3.09.364-1.52 0-2.618-.375-3.297-1.137-.66-.785-1.032-2.024-1.137-3.711h-.102c-1.03 1.855-2.242 3.18-3.605 3.969-1.379.746-3.027 1.133-4.945 1.133Zm.875-3.043a7.532 7.532 0 0 0 3.914-.973 7.25 7.25 0 0 0 2.73-2.785c.684-1.16 1.031-2.371 1.031-3.606v-2.011l-4.43.105c-1.894.04-3.335.242-4.327.617a4.305 4.305 0 0 0-2.215 1.649c-.512.722-.774 1.687-.774 2.882 0 1.317.336 2.325 1.032 3.043.722.72 1.726 1.079 3.039 1.079Zm33.726 2.582v-15.36c0-1.566-.156-2.793-.46-3.656-.313-.89-.817-1.516-1.497-1.906-.695-.41-1.703-.617-3.043-.617-1.93 0-3.45.671-4.582 2.007-1.105 1.313-1.648 3.145-1.648 5.516v14.016h-4.024v-19.016c0-2.809-.047-4.547-.148-5.203h3.808v.617c.028.348.055.727.055 1.133.027.414.067 1.226.102 2.426h.05c.93-1.676 1.985-2.864 3.192-3.559 1.238-.684 2.75-1.027 4.535-1.027 2.68 0 4.613.656 5.824 1.957 1.235 1.312 1.856 3.488 1.856 6.543v16.125Zm19.246 9.48c-2.648 0-4.761-.52-6.336-1.55a6.946 6.946 0 0 1-1.925-1.895 6.964 6.964 0 0 1-1.063-2.48l4.02-.622c.27 1.133.851 1.985 1.75 2.578.93.617 2.14.922 3.66.922 3.98 0 5.976-2.351 5.976-7.054v-3.864c-.8 1.543-1.855 2.715-3.195 3.504-1.313.758-2.836 1.133-4.582 1.133-2.992 0-5.195-.977-6.594-2.938-1.379-1.957-2.062-5.046-2.062-9.277 0-4.285.73-7.441 2.215-9.476 1.507-2.024 3.785-3.04 6.851-3.04 1.715 0 3.192.395 4.43 1.184 1.262.797 2.242 1.906 2.937 3.352h.051c0-.438.024-1.215.102-2.325.062-1.129.117-1.746.156-1.851h3.863c-.105.824-.152 2.512-.152 5.047v18.5c0 6.761-3.38 10.152-10.102 10.152Zm6.082-21.59c0-1.96-.285-3.633-.824-5.05-.516-1.442-1.277-2.54-2.266-3.297a5.107 5.107 0 0 0-3.296-1.133c-2.04 0-3.528.758-4.485 2.265-.926 1.485-1.39 3.891-1.39 7.215 0 3.332.425 5.719 1.285 7.16.89 1.442 2.398 2.164 4.535 2.164 1.265 0 2.387-.37 3.351-1.132.989-.746 1.747-1.817 2.266-3.196.54-1.402.824-3.066.824-4.996Zm13.274.875c0 2.754.566 4.88 1.699 6.39 1.133 1.516 2.809 2.263 5.047 2.263 1.715 0 3.09-.332 4.12-1.028 1.06-.722 1.778-1.61 2.165-2.68l3.555 1.032c-1.442 3.812-4.723 5.719-9.84 5.719-3.578 0-6.309-1.055-8.192-3.192-1.851-2.129-2.777-5.308-2.777-9.535 0-3.98.926-7.031 2.777-9.168 1.88-2.129 4.559-3.2 8.04-3.2 7.066 0 10.613 4.278 10.613 12.833v.566Zm13.086-3.09c-.25-2.539-.907-4.394-1.961-5.566-1.067-1.2-2.614-1.8-4.633-1.8-1.961 0-3.508.655-4.64 1.952-1.13 1.317-1.739 3.121-1.801 5.41Zm48.699 123.7v11.742h17.512v3.508h-17.512v12.777h-4.277V698.3h22.355v3.508Zm22.933-1.34v-3.817h4.02v3.817Zm0 29.367v-24.219h4.02v24.219Zm30.66-12.211c0 8.45-2.972 12.672-8.91 12.672-1.828 0-3.351-.332-4.582-.977-1.214-.683-2.195-1.765-2.937-3.246h-.055c0 .492-.039 1.211-.101 2.16-.012.536-.047 1.07-.106 1.602h-3.91c.102-.785.156-2.445.156-5v-28.184h4.02v9.43c0 1.004-.043 2.152-.106 3.453h.106c.742-1.55 1.723-2.64 2.933-3.297 1.235-.683 2.754-1.031 4.582-1.031 3.055 0 5.31 1.031 6.754 3.094 1.438 2.035 2.16 5.136 2.16 9.324Zm-4.222.156c0-3.406-.45-5.824-1.34-7.27-.902-1.468-2.355-2.21-4.379-2.21-2.265 0-3.914.77-4.945 2.316-1.031 1.543-1.543 4.008-1.543 7.367 0 3.196.488 5.555 1.492 7.055 1.027 1.527 2.676 2.27 4.945 2.27 2.02 0 3.477-.73 4.38-2.215.925-1.508 1.39-3.942 1.39-7.313Zm9.305 12.055v-18.547c0-1.715-.051-3.61-.153-5.672h3.813c.101 2.758.156 4.406.156 4.95h.102c.64-2.063 1.39-3.465 2.214-4.227.825-.746 1.98-1.133 3.5-1.133a7.3 7.3 0 0 1 1.649.207v3.711a7.614 7.614 0 0 0-2.16-.262c-1.649 0-2.926.727-3.813 2.168-.863 1.442-1.285 3.5-1.285 6.18v12.625Zm18.214-11.23c0 2.753.567 4.878 1.704 6.386 1.132 1.52 2.808 2.27 5.046 2.27 1.715 0 3.094-.336 4.122-1.035 1.054-.72 1.78-1.61 2.164-2.676l3.554 1.027c-1.441 3.813-4.726 5.719-9.84 5.719-3.582 0-6.308-1.055-8.19-3.192-1.856-2.128-2.782-5.308-2.782-9.53 0-3.981.926-7.036 2.781-9.173 1.883-2.129 4.563-3.195 8.035-3.195 7.074 0 10.617 4.277 10.617 12.828v.57Zm13.09-3.094c-.246-2.54-.902-4.395-1.96-5.563-1.07-1.199-2.614-1.804-4.637-1.804-1.957 0-3.5.656-4.637 1.957-1.133 1.312-1.734 3.117-1.8 5.41Zm36.536-14.168c-3.477 0-6.184 1.133-8.137 3.398-1.934 2.242-2.887 5.297-2.887 9.172 0 3.89 1.004 7.008 3.04 9.375 2.023 2.344 4.753 3.508 8.19 3.508 4.391 0 7.704-2.192 9.942-6.598l3.45 1.754c-1.27 2.715-3.09 4.79-5.458 6.23-2.344 1.419-5.05 2.114-8.14 2.114-3.168 0-5.915-.645-8.243-1.953-2.343-1.356-4.113-3.242-5.304-5.672-1.211-2.473-1.805-5.383-1.805-8.758 0-5.012 1.351-8.937 4.07-11.797 2.703-2.847 6.465-4.277 11.281-4.277 3.325 0 6.106.668 8.348 2.012 2.266 1.312 3.926 3.242 4.996 5.82l-4.07 1.34c-.672-1.82-1.84-3.23-3.504-4.227-1.621-.957-3.543-1.441-5.77-1.441ZM534.94 730.3c-2.449 0-4.277-.633-5.515-1.91-1.211-1.297-1.801-3.067-1.801-5.305 0-2.5.824-4.434 2.473-5.77 1.648-1.34 4.285-2.062 7.93-2.164l5.46-.054v-1.336c0-1.961-.437-3.364-1.285-4.227-.824-.851-2.14-1.289-3.918-1.289-1.789 0-3.09.313-3.914.926-.824.621-1.328 1.601-1.492 2.937l-4.172-.41c.64-4.328 3.875-6.492 9.68-6.492 3.015 0 5.285.707 6.804 2.11 1.547 1.382 2.317 3.39 2.317 6.03v10.407c0 1.21.156 2.113.46 2.73.337.594.946.88 1.81.88.41 0 .847-.055 1.335-.157v2.473c-1.031.23-2.058.363-3.09.363-1.52 0-2.617-.375-3.296-1.133-.657-.789-1.032-2.027-1.133-3.71h-.106c-1.027 1.85-2.242 3.179-3.601 3.968-1.38.742-3.028 1.129-4.946 1.129Zm.871-3.04a7.552 7.552 0 0 0 3.918-.98 7.25 7.25 0 0 0 2.73-2.785c.685-1.16 1.028-2.371 1.028-3.605v-2.012l-4.426.105c-1.898.04-3.335.243-4.332.621a4.305 4.305 0 0 0-2.214 1.649c-.512.719-.77 1.683-.77 2.883 0 1.312.332 2.32 1.027 3.039.723.726 1.727 1.086 3.04 1.086Zm38.829-9.636c0 8.45-2.977 12.672-8.914 12.672-1.829 0-3.348-.332-4.582-.977-1.215-.683-2.192-1.765-2.938-3.246h-.055c0 .492-.039 1.211-.101 2.16-.012.536-.043 1.07-.102 1.602h-3.918c.106-.785.157-2.445.157-5v-28.184h4.019v9.43c0 1.004-.039 2.152-.105 3.453h.105c.746-1.55 1.723-2.64 2.934-3.297 1.238-.683 2.757-1.031 4.582-1.031 3.058 0 5.308 1.031 6.754 3.094 1.441 2.035 2.164 5.136 2.164 9.324Zm-4.227.156c0-3.406-.45-5.824-1.336-7.27-.906-1.468-2.36-2.21-4.383-2.21-2.265 0-3.914.77-4.945 2.316-1.027 1.543-1.543 4.008-1.543 7.367 0 3.196.488 5.555 1.492 7.055 1.031 1.527 2.68 2.27 4.946 2.27 2.023 0 3.476-.73 4.378-2.215.926-1.508 1.391-3.942 1.391-7.313Zm9.203 12.055v-33.184h4.024v33.184Zm13.25-11.23c0 2.753.567 4.878 1.703 6.386 1.133 1.52 2.805 2.27 5.047 2.27 1.715 0 3.094-.336 4.121-1.035 1.055-.72 1.782-1.61 2.164-2.676l3.555 1.027c-1.441 3.813-4.727 5.719-9.84 5.719-3.582 0-6.312-1.055-8.191-3.192-1.856-2.128-2.781-5.308-2.781-9.53 0-3.981.925-7.036 2.78-9.173 1.88-2.129 4.56-3.195 8.036-3.195 7.074 0 10.613 4.277 10.613 12.828v.57Zm13.086-3.094c-.242-2.54-.902-4.395-1.957-5.563-1.07-1.199-2.617-1.804-4.637-1.804-1.957 0-3.504.656-4.636 1.957-1.133 1.312-1.739 3.117-1.801 5.41Zm273.227-14.168c-3.477 0-6.184 1.133-8.137 3.398-1.934 2.242-2.887 5.297-2.887 9.172 0 3.89 1.004 7.008 3.04 9.375 2.023 2.344 4.75 3.508 8.19 3.508 4.391 0 7.7-2.192 9.942-6.598l3.45 1.754c-1.274 2.715-3.09 4.79-5.458 6.23-2.343 1.419-5.05 2.114-8.14 2.114-3.168 0-5.914-.645-8.242-1.953-2.344-1.356-4.114-3.242-5.31-5.672-1.206-2.473-1.8-5.383-1.8-8.758 0-5.012 1.352-8.937 4.07-11.797 2.704-2.847 6.461-4.277 11.282-4.277 3.32 0 6.105.668 8.347 2.012 2.266 1.312 3.926 3.242 4.993 5.82l-4.067 1.34c-.672-1.82-1.84-3.23-3.504-4.227-1.625-.957-3.543-1.441-5.77-1.441Zm38.894 16.383c0 4.226-.953 7.394-2.832 9.48-1.855 2.063-4.562 3.09-8.09 3.09-3.539 0-6.218-1.082-8.035-3.246-1.789-2.16-2.68-5.27-2.68-9.324 0-8.344 3.622-12.52 10.872-12.52 3.668 0 6.39 1.02 8.14 3.04 1.75 2.034 2.625 5.19 2.625 9.48Zm-4.226 0c0-3.364-.5-5.797-1.493-7.317-1.003-1.508-2.664-2.265-4.996-2.265-2.37 0-4.097.773-5.152 2.316-1.027 1.547-1.547 3.969-1.547 7.266 0 3.195.52 5.605 1.55 7.21 1.056 1.586 2.692 2.375 4.895 2.375 2.391 0 4.122-.773 5.149-2.32 1.055-1.547 1.594-3.969 1.594-7.265Zm29.656-.102c0 8.45-2.973 12.672-8.91 12.672-3.711 0-6.223-1.402-7.52-4.219h-.105c.066.137.105 1.414.105 3.809v9.43h-4.023v-28.75c0-2.473-.051-4.126-.153-4.95h3.918c.067.79.118 1.582.157 2.371.023.762.047 1.278.047 1.547h.101c.727-1.508 1.664-2.605 2.836-3.297 1.16-.683 2.703-1.031 4.637-1.031 2.988 0 5.215 1.004 6.695 2.988 1.469 1.996 2.215 5.14 2.215 9.43Zm-4.223.102c0-3.364-.46-5.77-1.39-7.215-.903-1.469-2.344-2.211-4.328-2.211-1.583 0-2.833.344-3.758 1.027-.907.66-1.582 1.703-2.063 3.145-.449 1.418-.668 3.27-.668 5.566 0 3.164.489 5.5 1.492 7.004 1.028 1.52 2.68 2.266 4.946 2.266 1.98 0 3.453-.73 4.379-2.215.925-1.469 1.39-3.926 1.39-7.367Zm29.653-.102c0 8.45-2.973 12.672-8.91 12.672-3.712 0-6.22-1.402-7.516-4.219h-.106c.063.137.102 1.414.102 3.809v9.43h-4.02v-28.75c0-2.473-.05-4.126-.156-4.95h3.918c.067.79.117 1.582.156 2.371.024.762.047 1.278.047 1.547h.106c.718-1.508 1.664-2.605 2.836-3.297 1.156-.683 2.703-1.031 4.632-1.031 2.993 0 5.215 1.004 6.7 2.988 1.468 1.996 2.21 5.14 2.21 9.43Zm-4.22.102c0-3.364-.464-5.77-1.394-7.215-.898-1.469-2.34-2.211-4.324-2.211-1.582 0-2.836.344-3.762 1.027-.902.66-1.582 1.703-2.062 3.145-.45 1.418-.668 3.27-.668 5.566 0 3.164.492 5.5 1.492 7.004 1.031 1.52 2.68 2.266 4.945 2.266 1.985 0 3.454-.73 4.38-2.215.929-1.469 1.39-3.926 1.39-7.367Zm12.294.878c0 2.754.566 4.88 1.699 6.387 1.133 1.52 2.805 2.27 5.047 2.27 1.715 0 3.094-.336 4.121-1.035 1.055-.72 1.781-1.61 2.164-2.676l3.559 1.027c-1.446 3.813-4.73 5.719-9.844 5.719-3.578 0-6.309-1.055-8.188-3.192-1.855-2.128-2.785-5.308-2.785-9.53 0-3.981.93-7.036 2.785-9.173 1.88-2.129 4.559-3.195 8.036-3.195 7.07 0 10.613 4.277 10.613 12.828v.57Zm13.086-3.093c-.246-2.54-.903-4.395-1.961-5.563-1.067-1.199-2.613-1.804-4.633-1.804-1.96 0-3.504.656-4.637 1.957-1.136 1.312-1.742 3.117-1.804 5.41Zm9.355 14.324v-18.547c0-1.715-.05-3.61-.152-5.672h3.812c.102 2.758.153 4.406.153 4.95h.101c.645-2.063 1.395-3.465 2.219-4.227.824-.746 1.98-1.133 3.5-1.133a7.3 7.3 0 0 1 1.648.207v3.711a7.614 7.614 0 0 0-2.16-.262c-1.648 0-2.925.727-3.812 2.168-.863 1.442-1.285 3.5-1.285 6.18v12.625Zm42.41-28.492c-3.48 0-6.183 1.133-8.14 3.398-1.934 2.242-2.887 5.297-2.887 9.172 0 3.89 1.008 7.008 3.04 9.375 2.023 2.344 4.753 3.508 8.19 3.508 4.391 0 7.704-2.192 9.946-6.598l3.449 1.754c-1.273 2.715-3.09 4.79-5.457 6.23-2.348 1.419-5.055 2.114-8.14 2.114-3.169 0-5.915-.645-8.243-1.953-2.344-1.356-4.113-3.242-5.308-5.672-1.211-2.473-1.801-5.383-1.801-8.758 0-5.012 1.351-8.937 4.066-11.797 2.707-2.847 6.469-4.277 11.285-4.277 3.32 0 6.106.668 8.344 2.012 2.27 1.312 3.93 3.242 4.996 5.82l-4.07 1.34c-.672-1.82-1.84-3.23-3.5-4.227-1.625-.957-3.543-1.441-5.77-1.441Zm24.625 28.957c-2.449 0-4.277-.633-5.511-1.91-1.211-1.297-1.805-3.067-1.805-5.305 0-2.5.824-4.434 2.473-5.77 1.648-1.34 4.289-2.062 7.933-2.164l5.461-.054v-1.336c0-1.961-.437-3.364-1.285-4.227-.824-.851-2.145-1.289-3.918-1.289-1.789 0-3.09.313-3.914.926-.824.621-1.328 1.601-1.496 2.937l-4.172-.41c.645-4.328 3.875-6.492 9.684-6.492 3.015 0 5.28.707 6.8 2.11 1.551 1.382 2.32 3.39 2.32 6.03v10.407c0 1.21.153 2.113.462 2.73.336.594.941.88 1.804.88.41 0 .852-.055 1.34-.157v2.473c-1.031.23-2.062.363-3.09.363-1.52 0-2.617-.375-3.297-1.133-.66-.789-1.03-2.027-1.136-3.71h-.102c-1.031 1.85-2.242 3.179-3.605 3.968-1.38.742-3.028 1.129-4.946 1.129Zm.875-3.04c1.395.028 2.7-.3 3.914-.98a7.25 7.25 0 0 0 2.73-2.785c.685-1.16 1.032-2.371 1.032-3.605v-2.012l-4.43.105c-1.894.04-3.335.243-4.328.621a4.305 4.305 0 0 0-2.215 1.649c-.515.719-.773 1.683-.773 2.883 0 1.312.336 2.32 1.031 3.039.723.726 1.723 1.086 3.04 1.086Zm38.825-9.636c0 8.45-2.977 12.672-8.914 12.672-1.825 0-3.344-.332-4.582-.977-1.211-.683-2.188-1.765-2.934-3.246h-.055c0 .492-.039 1.211-.105 2.16-.012.536-.043 1.07-.102 1.602h-3.914c.102-.785.152-2.445.152-5v-28.184h4.024v9.43c0 1.004-.043 2.152-.106 3.453h.102c.75-1.55 1.727-2.64 2.934-3.297 1.242-.683 2.761-1.031 4.586-1.031 3.054 0 5.308 1.031 6.75 3.094 1.445 2.035 2.164 5.136 2.164 9.324Zm-4.227.156c0-3.406-.445-5.824-1.336-7.27-.902-1.468-2.36-2.21-4.379-2.21-2.27 0-3.918.77-4.945 2.316-1.031 1.543-1.547 4.008-1.547 7.367 0 3.196.492 5.555 1.492 7.055 1.035 1.527 2.684 2.27 4.946 2.27 2.027 0 3.48-.73 4.378-2.215.93-1.508 1.391-3.942 1.391-7.313Zm9.207 12.055v-33.184h4.02v33.184Zm13.25-11.23c0 2.753.566 4.878 1.7 6.386 1.132 1.52 2.808 2.27 5.05 2.27 1.715 0 3.09-.336 4.121-1.035 1.055-.72 1.777-1.61 2.164-2.676l3.551 1.027c-1.441 3.813-4.727 5.719-9.836 5.719-3.582 0-6.312-1.055-8.195-3.192-1.852-2.128-2.782-5.308-2.782-9.53 0-3.981.93-7.036 2.782-9.173 1.883-2.129 4.562-3.195 8.039-3.195 7.07 0 10.61 4.277 10.61 12.828v.57Zm13.082-3.094c-.242-2.54-.898-4.395-1.953-5.563-1.074-1.199-2.617-1.804-4.64-1.804-1.954 0-3.5.656-4.637 1.957-1.133 1.312-1.735 3.117-1.801 5.41Zm-493.77-134.426c0-5.113 1.352-9.07 4.075-11.852 2.742-2.808 6.601-4.222 11.586-4.222 3.465 0 6.285.601 8.453 1.797 2.187 1.175 3.87 3.043 5.043 5.62l-4.067 1.235c-.902-1.777-2.14-3.09-3.707-3.914-1.55-.824-3.507-1.238-5.875-1.238-3.605 0-6.375 1.11-8.293 3.297-1.933 2.203-2.886 5.296-2.886 9.277 0 3.988 1.004 7.137 3.043 9.426 2.058 2.308 4.89 3.453 8.496 3.453 2.023 0 3.93-.309 5.718-.926 1.782-.621 3.223-1.457 4.329-2.527v-5.715h-9.375v-3.559h13.289v10.871c-1.649 1.688-3.696 3.012-6.133 3.965a21.425 21.425 0 0 1-7.828 1.395c-3.297 0-6.157-.645-8.551-1.957-2.398-1.336-4.219-3.227-5.461-5.672-1.234-2.473-1.855-5.383-1.855-8.754Zm36.446 15.918v-18.547c0-1.715-.05-3.605-.156-5.672h3.812c.102 2.762.156 4.41.156 4.945h.102c.644-2.054 1.39-3.46 2.215-4.218.824-.75 1.984-1.137 3.504-1.137.543 0 1.097.078 1.648.207v3.707a7.618 7.618 0 0 0-2.164-.254c-1.648 0-2.922.719-3.812 2.164-.864 1.442-1.286 3.504-1.286 6.184v12.62Zm18.21-11.234c0 2.757.571 4.882 1.704 6.39 1.133 1.52 2.809 2.266 5.047 2.266 1.715 0 3.094-.332 4.12-1.028 1.056-.722 1.782-1.609 2.169-2.68l3.555 1.032c-1.446 3.813-4.73 5.719-9.844 5.719-3.578 0-6.309-1.055-8.188-3.196-1.855-2.125-2.785-5.308-2.785-9.53 0-3.981.93-7.036 2.785-9.173 1.88-2.125 4.559-3.195 8.035-3.195 7.07 0 10.61 4.277 10.61 12.832v.563Zm13.09-3.09c-.245-2.54-.902-4.39-1.956-5.567-1.07-1.195-2.614-1.797-4.641-1.797-1.953 0-3.5.657-4.633 1.954-1.137 1.316-1.738 3.12-1.804 5.41Zm12.344 3.09c0 2.757.567 4.882 1.704 6.39 1.128 1.52 2.804 2.266 5.043 2.266 1.714 0 3.093-.332 4.12-1.028 1.06-.722 1.782-1.609 2.169-2.68l3.554 1.032c-1.441 3.813-4.726 5.719-9.84 5.719-3.582 0-6.308-1.055-8.191-3.196-1.855-2.125-2.781-5.308-2.781-9.53 0-3.981.922-7.036 2.781-9.173 1.879-2.125 4.559-3.195 8.035-3.195 7.07 0 10.613 4.277 10.613 12.832v.563Zm13.086-3.09c-.246-2.54-.902-4.39-1.957-5.567-1.07-1.195-2.613-1.797-4.636-1.797-1.957 0-3.504.657-4.637 1.954-1.133 1.316-1.738 3.12-1.8 5.41Zm24.606 14.324v-15.356c0-1.57-.153-2.793-.461-3.656-.309-.89-.813-1.515-1.496-1.906-.692-.41-1.7-.621-3.04-.621-1.929 0-3.448.676-4.585 2.012-1.106 1.312-1.649 3.144-1.649 5.515v14.012h-4.015v-19.012c0-2.808-.055-4.547-.157-5.203h3.813v.617c.023.348.05.727.05 1.133.028.414.067 1.223.102 2.426h.055c.926-1.676 1.984-2.863 3.195-3.559 1.235-.683 2.742-1.031 4.532-1.031 2.68 0 4.609.66 5.82 1.96 1.234 1.313 1.855 3.49 1.855 6.544v16.125Zm48.129-8.707c0 2.926-1.157 5.191-3.45 6.805-2.265 1.582-5.46 2.367-9.582 2.367-7.664 0-12.105-2.68-13.343-8.04l4.176-.824c.437 1.895 1.44 3.286 2.984 4.172 1.574.907 3.683 1.344 6.34 1.344 2.742 0 4.863-.465 6.383-1.39 1.507-.958 2.27-2.372 2.27-4.227 0-.992-.243-1.817-.724-2.473a5.358 5.358 0 0 0-2.011-1.597 14.12 14.12 0 0 0-3.035-1.032 101 101 0 0 0-3.864-.93c-2.511-.538-4.418-1.093-5.718-1.648-1.274-.539-2.293-1.156-3.04-1.851a7.464 7.464 0 0 1-1.699-2.371 7.955 7.955 0 0 1-.566-3.145c0-2.703 1.031-4.789 3.09-6.23 2.062-1.473 5.011-2.215 8.859-2.215 3.566 0 6.297.55 8.195 1.648 1.88 1.102 3.203 2.973 3.965 5.613l-4.176.72c-.488-1.65-1.375-2.845-2.675-3.602-1.278-.75-3.067-1.137-5.36-1.137-2.511 0-4.43.414-5.77 1.238-1.312.824-1.956 2.086-1.956 3.758 0 .969.258 1.781.773 2.426.512.613 1.25 1.156 2.215 1.594.957.414 2.883.957 5.77 1.601.957.203 1.917.434 2.882.668.957.242 1.871.54 2.73.875.891.309 1.716.695 2.473 1.133.79.414 1.457.926 2.012 1.547a6.47 6.47 0 0 1 1.34 2.215c.332.863.512 1.855.512 2.988Zm14.43 8.555a16.289 16.289 0 0 1-4.075.511c-3.191 0-4.789-1.812-4.789-5.457v-16.18h-2.836v-2.937h2.992l1.188-5.406h2.676v5.406h4.43v2.934h-4.43v15.304c0 1.176.18 2 .566 2.473.375.453 1.031.668 1.961.668.54 0 1.309-.102 2.316-.305Zm3.535.152v-18.547c0-1.715-.055-3.605-.157-5.672h3.813c.101 2.762.152 4.41.152 4.945h.106c.644-2.054 1.39-3.46 2.214-4.218.825-.75 1.985-1.137 3.504-1.137.54 0 1.094.078 1.649.207v3.707a7.662 7.662 0 0 0-2.168-.254c-1.649 0-2.918.719-3.809 2.164-.863 1.442-1.289 3.504-1.289 6.184v12.62Zm18.214-11.234c0 2.757.567 4.882 1.7 6.39 1.132 1.52 2.808 2.266 5.05 2.266 1.715 0 3.086-.332 4.121-1.028 1.055-.722 1.778-1.609 2.16-2.68l3.555 1.032c-1.441 3.813-4.726 5.719-9.836 5.719-3.582 0-6.316-1.055-8.195-3.196-1.851-2.125-2.781-5.308-2.781-9.53 0-3.981.93-7.036 2.781-9.173 1.879-2.125 4.563-3.195 8.04-3.195 7.07 0 10.609 4.277 10.609 12.832v.563Zm13.082-3.09c-.242-2.54-.898-4.39-1.957-5.567-1.07-1.195-2.613-1.797-4.636-1.797-1.957 0-3.5.657-4.637 1.954-1.133 1.316-1.738 3.12-1.8 5.41Zm12.348 3.09c0 2.757.567 4.882 1.7 6.39 1.132 1.52 2.808 2.266 5.05 2.266 1.711 0 3.086-.332 4.121-1.028 1.055-.722 1.778-1.609 2.16-2.68l3.555 1.032c-1.441 3.813-4.723 5.719-9.836 5.719-3.582 0-6.312-1.055-8.191-3.196-1.856-2.125-2.782-5.308-2.782-9.53 0-3.981.926-7.036 2.782-9.173 1.879-2.125 4.554-3.195 8.035-3.195 7.07 0 10.613 4.277 10.613 12.832v.563Zm13.086-3.09c-.246-2.54-.902-4.39-1.96-5.567-1.067-1.195-2.614-1.797-4.634-1.797-1.96 0-3.504.657-4.636 1.954-1.133 1.316-1.743 3.12-1.805 5.41Zm18.523 14.172c-1.332.34-2.687.511-4.066.511-3.195 0-4.789-1.812-4.789-5.457v-16.18h-2.836v-2.937h2.988l1.188-5.406h2.676v5.406h4.43v2.934h-4.43v15.304c0 1.176.18 2 .57 2.473.371.453 1.027.668 1.953.668.54 0 1.316-.102 2.316-.305Zm-194.19 26.59c-3.477 0-6.18 1.132-8.142 3.402-1.93 2.242-2.882 5.293-2.882 9.168 0 3.89 1.004 7.011 3.039 9.383 2.02 2.34 4.754 3.5 8.191 3.5 4.395 0 7.7-2.188 9.942-6.594l3.453 1.75c-1.278 2.722-3.09 4.793-5.461 6.234-2.344 1.418-5.047 2.113-8.14 2.113-3.165 0-5.911-.644-8.243-1.957-2.344-1.351-4.113-3.242-5.309-5.668-1.21-2.472-1.8-5.386-1.8-8.757 0-5.012 1.351-8.942 4.07-11.801 2.703-2.844 6.465-4.274 11.281-4.274 3.324 0 6.106.668 8.344 2.012 2.27 1.313 3.93 3.242 5 5.817l-4.07 1.34c-.672-1.82-1.84-3.227-3.504-4.223-1.621-.957-3.54-1.446-5.77-1.446Zm24.624 28.956c-2.445 0-4.277-.632-5.512-1.902-1.21-1.305-1.804-3.066-1.804-5.312 0-2.496.824-4.43 2.472-5.77 1.649-1.34 4.29-2.059 7.938-2.164l5.46-.05v-1.34c0-1.958-.44-3.364-1.288-4.223-.825-.852-2.14-1.285-3.914-1.285-1.793 0-3.094.304-3.918.921-.825.622-1.325 1.598-1.493 2.938l-4.175-.41c.648-4.328 3.879-6.496 9.687-6.496 3.012 0 5.281.71 6.797 2.113 1.55 1.379 2.324 3.387 2.324 6.035v10.402c0 1.211.149 2.11.461 2.73.336.595.938.876 1.801.876.414 0 .852-.05 1.34-.152v2.472a14.11 14.11 0 0 1-3.09.364c-1.52 0-2.613-.38-3.297-1.137-.66-.785-1.031-2.02-1.133-3.707h-.101c-1.035 1.851-2.242 3.18-3.61 3.965-1.379.746-3.027 1.132-4.945 1.132Zm.879-3.039a7.52 7.52 0 0 0 3.914-.98 7.175 7.175 0 0 0 2.727-2.781c.683-1.157 1.035-2.371 1.035-3.606v-2.012l-4.434.106c-1.89.039-3.336.246-4.324.617a4.295 4.295 0 0 0-2.215 1.649c-.52.722-.777 1.691-.777 2.886 0 1.313.336 2.317 1.035 3.04.719.718 1.723 1.081 3.039 1.081Zm38.824-9.632c0 8.445-2.976 12.671-8.914 12.671-1.828 0-3.348-.336-4.582-.976-1.21-.684-2.191-1.766-2.937-3.25h-.051c0 .492-.04 1.215-.106 2.168a18.085 18.085 0 0 1-.101 1.594h-3.914c.097-.782.152-2.446.152-4.996v-28.18h4.02v9.426c0 1.004-.04 2.148-.106 3.453h.102c.75-1.547 1.73-2.64 2.937-3.297 1.238-.684 2.758-1.035 4.586-1.035 3.05 0 5.309 1.035 6.746 3.093 1.446 2.036 2.168 5.137 2.168 9.329Zm-4.226.152c0-3.399-.45-5.824-1.34-7.262-.899-1.472-2.356-2.219-4.38-2.219-2.265 0-3.913.774-4.944 2.32-1.032 1.548-1.543 4.005-1.543 7.368 0 3.195.488 5.55 1.492 7.055 1.031 1.523 2.68 2.27 4.945 2.27 2.024 0 3.477-.735 4.379-2.216.93-1.504 1.39-3.941 1.39-7.32Zm9.152-17.313v-3.808h4.02v3.808Zm0 29.368v-24.215h4.02v24.215Zm25.562 0v-15.352c0-1.574-.152-2.797-.46-3.66-.313-.89-.813-1.516-1.497-1.906-.695-.41-1.699-.618-3.039-.618-1.933 0-3.453.672-4.582 2.012-1.113 1.313-1.648 3.14-1.648 5.512v14.012h-4.024v-19.012c0-2.805-.05-4.543-.152-5.203h3.813v.62c.027.345.05.723.05 1.134.024.414.063 1.218.106 2.422h.047c.93-1.676 1.984-2.86 3.199-3.555 1.234-.684 2.738-1.035 4.531-1.035 2.68 0 4.61.66 5.82 1.96 1.239 1.313 1.856 3.493 1.856 6.544v16.125Zm13.172-11.23c0 2.757.567 4.882 1.7 6.386 1.132 1.523 2.804 2.27 5.046 2.27 1.715 0 3.094-.337 4.122-1.032 1.054-.719 1.78-1.61 2.164-2.676l3.554 1.028c-1.441 3.816-4.726 5.718-9.84 5.718-3.578 0-6.308-1.054-8.187-3.195-1.856-2.125-2.785-5.305-2.785-9.531 0-3.98.93-7.035 2.785-9.168 1.879-2.125 4.555-3.2 8.035-3.2 7.07 0 10.613 4.278 10.613 12.829v.57Zm13.086-3.095c-.246-2.539-.906-4.39-1.96-5.562-1.067-1.195-2.614-1.8-4.633-1.8-1.961 0-3.508.655-4.637 1.956-1.137 1.313-1.742 3.117-1.805 5.406Zm18.528 14.172a16.258 16.258 0 0 1-4.07.512c-3.196 0-4.794-1.813-4.794-5.457v-16.18h-2.836v-2.933h2.993l1.187-5.41h2.672v5.406h4.434v2.933h-4.434v15.309c0 1.172.18 1.996.566 2.473.375.449 1.032.668 1.957.668.54 0 1.317-.106 2.32-.309Zm295.191-76.824c0 2.984-.977 5.379-2.937 7.156-1.93 1.75-4.56 2.63-7.88 2.63h-9.222v12.26h-4.273v-31.53h13.234c3.527 0 6.262.851 8.195 2.523 1.918 1.649 2.883 3.969 2.883 6.961Zm-4.273.047c0-4.047-2.45-6.078-7.317-6.078h-8.449v12.418h8.602c4.765 0 7.164-2.114 7.164-6.34Zm9.89 22v-18.547c0-1.715-.05-3.605-.152-5.672h3.808c.106 2.762.157 4.41.157 4.945h.097c.649-2.054 1.399-3.46 2.223-4.218.824-.75 1.98-1.137 3.5-1.137.54 0 1.094.078 1.648.207v3.707a7.635 7.635 0 0 0-2.164-.254c-1.648 0-2.921.719-3.808 2.164-.867 1.442-1.29 3.504-1.29 6.184v12.62Zm35.578-12.106c0 4.223-.957 7.391-2.836 9.48-1.855 2.06-4.558 3.09-8.09 3.09-3.539 0-6.218-1.081-8.035-3.245-1.789-2.164-2.68-5.27-2.68-9.325 0-8.347 3.622-12.523 10.872-12.523 3.672 0 6.39 1.02 8.14 3.043 1.75 2.035 2.63 5.187 2.63 9.48Zm-4.226 0c0-3.363-.504-5.796-1.496-7.316-1-1.508-2.664-2.266-4.996-2.266-2.368 0-4.094.77-5.153 2.317-1.027 1.543-1.543 3.969-1.543 7.265 0 3.196.516 5.602 1.543 7.211 1.055 1.582 2.696 2.371 4.899 2.371 2.39 0 4.12-.773 5.148-2.32 1.055-1.547 1.598-3.965 1.598-7.262Zm29.656-.101c0 8.445-2.977 12.672-8.914 12.672-3.707 0-6.223-1.403-7.52-4.227h-.101c.066.145.098 1.418.098 3.813v9.43h-4.016V577.73c0-2.472-.05-4.12-.156-4.945h3.918c.066.79.117 1.578.156 2.371.023.762.047 1.278.047 1.551h.105c.719-1.512 1.66-2.605 2.832-3.297 1.16-.687 2.707-1.035 4.637-1.035 2.988 0 5.215 1.008 6.695 2.988 1.473 2 2.219 5.14 2.219 9.434Zm-4.227.098c0-3.36-.46-5.77-1.39-7.211-.899-1.47-2.34-2.22-4.324-2.22-1.582 0-2.836.352-3.762 1.036-.902.656-1.582 1.7-2.063 3.14-.449 1.419-.668 3.274-.668 5.567 0 3.164.489 5.5 1.493 7.008 1.03 1.515 2.68 2.265 4.945 2.265 1.984 0 3.453-.734 4.379-2.214.926-1.47 1.39-3.93 1.39-7.368Zm12.301.875c0 2.757.559 4.882 1.696 6.39 1.132 1.52 2.808 2.266 5.046 2.266 1.711 0 3.09-.332 4.122-1.028 1.058-.722 1.777-1.609 2.164-2.68l3.554 1.032c-1.441 3.813-4.722 5.719-9.84 5.719-3.578 0-6.308-1.055-8.187-3.196-1.856-2.125-2.781-5.308-2.781-9.53 0-3.981.925-7.036 2.78-9.173 1.88-2.125 4.556-3.195 8.036-3.195 7.07 0 10.613 4.277 10.613 12.832v.563Zm13.082-3.09c-.246-2.54-.906-4.39-1.96-5.567-1.067-1.195-2.614-1.797-4.633-1.797-1.961 0-3.508.657-4.637 1.954-1.133 1.316-1.742 3.12-1.805 5.41Zm9.356 14.324v-18.547c0-1.715-.051-3.605-.157-5.672h3.817c.098 2.762.152 4.41.152 4.945h.106c.64-2.054 1.39-3.46 2.215-4.218.824-.75 1.98-1.137 3.5-1.137a7.3 7.3 0 0 1 1.648.207v3.707a7.608 7.608 0 0 0-2.16-.254c-1.649 0-2.926.719-3.813 2.164-.863 1.442-1.289 3.504-1.289 6.184v12.62Zm24.398-.152a16.44 16.44 0 0 1-4.07.511c-3.195 0-4.79-1.812-4.79-5.457v-16.18h-2.835v-2.937h2.988l1.188-5.406h2.675v5.406h4.43v2.934h-4.43v15.304c0 1.176.18 2 .567 2.473.37.453 1.031.668 1.957.668.543 0 1.312-.102 2.32-.305Zm4.613 9.632c-1.105 0-2.03-.078-2.777-.207v-3.039a10.32 10.32 0 0 0 1.852.157c2.5 0 4.496-1.856 5.976-5.567l.36-.93-9.579-24.109h4.274l5.098 13.395c.066.207.156.464.261.773.13.285.477 1.238 1.028 2.887.543 1.648.851 2.574.93 2.781l1.542-4.43 5.309-15.406h4.223l-9.274 24.215c-1.004 2.574-1.93 4.484-2.781 5.719-.86 1.265-1.828 2.215-2.887 2.836a6.83 6.83 0 0 1-3.555.925ZM490.141 521.98h2.757v143.801h-2.757Zm507.504 2.293h2.742V668.06h-2.746Zm0 0"/><path fill="#585d60" d="M500.664 528.395a9.048 9.048 0 0 1-.7 3.503 9.254 9.254 0 0 1-1.98 2.977 9.109 9.109 0 0 1-2.964 1.969 8.76 8.76 0 0 1-3.5.707 8.79 8.79 0 0 1-3.493-.707 8.96 8.96 0 0 1-2.972-1.977 8.934 8.934 0 0 1-1.973-2.969 9.099 9.099 0 0 1-.691-3.503c0-1.211.23-2.372.691-3.493a9.002 9.002 0 0 1 1.984-2.972 8.988 8.988 0 0 1 2.957-1.989 9.02 9.02 0 0 1 3.497-.695c1.21 0 2.378.23 3.5.695a8.984 8.984 0 0 1 2.96 1.989 9.186 9.186 0 0 1 1.985 2.972 9.088 9.088 0 0 1 .695 3.493Zm507.488 2.293a8.979 8.979 0 0 1-.691 3.5 9.02 9.02 0 0 1-1.988 2.964 8.855 8.855 0 0 1-2.961 1.985 9.102 9.102 0 0 1-3.504.695 9.068 9.068 0 0 1-3.488-.695 8.95 8.95 0 0 1-2.965-1.985 9.02 9.02 0 0 1-1.989-2.965 9.017 9.017 0 0 1-.691-3.496 8.984 8.984 0 0 1 .691-3.504 9.037 9.037 0 0 1 1.989-2.968 8.9 8.9 0 0 1 2.965-1.98 8.996 8.996 0 0 1 3.488-.696c1.226 0 2.383.23 3.504.691a8.894 8.894 0 0 1 2.96 1.985 9.02 9.02 0 0 1 1.989 2.965 8.965 8.965 0 0 1 .691 3.5ZM68.41 457.288H33.84a19.08 19.08 0 0 1-3.555-.36 17.79 17.79 0 0 1-3.426-1.015 18.327 18.327 0 0 1-5.972-3.867 18.611 18.611 0 0 1-3.297-4.211 18.542 18.542 0 0 1-1.973-4.973 18.353 18.353 0 0 1-.5-3.539 18.197 18.197 0 0 1 .18-3.57c.168-1.188.45-2.34.848-3.477.789-2.289 1.976-4.34 3.57-6.156a18.78 18.78 0 0 1 2.586-2.46 18.291 18.291 0 0 1 6.324-3.259 18.915 18.915 0 0 1 3.52-.672v-1.328c0-1.234.113-2.46.359-3.668.23-1.21.594-2.386 1.066-3.53a17.444 17.444 0 0 1 1.742-3.247 18.152 18.152 0 0 1 5.176-5.191 17.507 17.507 0 0 1 3.258-1.739 17.55 17.55 0 0 1 3.516-1.066 18.104 18.104 0 0 1 7.34 0c1.21.23 2.382.594 3.527 1.066a18.933 18.933 0 0 1 6.094 4.07 19.016 19.016 0 0 1 4.082 6.106c.465 1.145.824 2.32 1.07 3.531.23 1.207.36 2.434.36 3.668v1.328c2.363.227 4.605.872 6.726 1.934a19.301 19.301 0 0 1 2.957 1.879 18.656 18.656 0 0 1 3.687 3.754 18.623 18.623 0 0 1 2.497 4.633c.41 1.093.722 2.23.914 3.386.191 1.16.285 2.332.257 3.52a19.425 19.425 0 0 1-.386 3.488 19.115 19.115 0 0 1-1.043 3.348 18.373 18.373 0 0 1-1.637 3.117 19.452 19.452 0 0 1-4.852 5.04c-2.953 2.081-6.234 3.226-9.843 3.425Zm-33.695-5.512h33.59a12.997 12.997 0 0 0 4.879-1.246 13.124 13.124 0 0 0 3.175-2.094 13.11 13.11 0 0 0 2.45-2.902 13.272 13.272 0 0 0 2.011-7.254 13.281 13.281 0 0 0-1.035-4.945 13.29 13.29 0 0 0-2.8-4.203 13.027 13.027 0 0 0-4.169-2.844 12.83 12.83 0 0 0-4.925-1.098 6.891 6.891 0 0 0-1.27 0c-.453.055-.89 0-1.312-.171a2.602 2.602 0 0 1-1.063-.793 2.564 2.564 0 0 1-.605-1.168 2.566 2.566 0 0 1 .043-1.32c.261-.985.41-1.993.449-3.012a13.21 13.21 0 0 0-.23-3.04 12.548 12.548 0 0 0-.93-2.898 12.853 12.853 0 0 0-3.668-4.816c-.785-.66-1.649-1.2-2.563-1.664-.918-.45-1.87-.79-2.863-1.032a13.301 13.301 0 0 0-6.05 0c-.997.243-1.95.582-2.872 1.032a13.424 13.424 0 0 0-2.55 1.66 12.977 12.977 0 0 0-3.684 4.82 13.23 13.23 0 0 0-.914 2.899 12.955 12.955 0 0 0 .214 6.054c.125.438.133.875.032 1.317a2.602 2.602 0 0 1-.606 1.168 2.609 2.609 0 0 1-1.05.785c-.415.168-.848.23-1.294.18-.43-.04-.859-.04-1.289 0-.875 0-1.738.078-2.59.245-2.64.52-4.91 1.735-6.812 3.645a12.439 12.439 0 0 0-1.648 2.023 13.097 13.097 0 0 0-1.235 2.293c-.332.809-.582 1.641-.75 2.497-.176.859-.261 1.73-.258 2.605 0 .875.082 1.734.258 2.586.336 1.738.996 3.34 1.985 4.805.476.726 1.03 1.39 1.648 2.011a13.715 13.715 0 0 0 2.012 1.664c.73.473 1.492.887 2.3 1.22a13.229 13.229 0 0 0 5.09 1.019h.903Zm469.578-22.039c-6.402 0-12.363-1.61-17.887-4.828a35.691 35.691 0 0 1-8.629 3.574 35.669 35.669 0 0 1-9.261 1.23c-1.559 0-3.118-.1-4.66-.312-1.555-.199-3.09-.504-4.602-.91a36.154 36.154 0 0 1-8.629-3.57 35.537 35.537 0 0 1-7.406-5.692 35.675 35.675 0 0 1-5.688-7.41 34.801 34.801 0 0 1-3.566-8.64 34.557 34.557 0 0 1-.93-4.586 35.095 35.095 0 0 1 .152-10.39 35.523 35.523 0 0 1 3.61-10.852 35.052 35.052 0 0 1 6.824-9.157 35.516 35.516 0 0 1 4.418-3.648 34.994 34.994 0 0 1 10.29-4.957 29.756 29.756 0 0 1-.298-12.7 30.485 30.485 0 0 1 1.844-6.105 30.457 30.457 0 0 1 3.09-5.59 29.621 29.621 0 0 1 4.187-4.816 28.86 28.86 0 0 1 5.098-3.84 29.87 29.87 0 0 1 12.004-4.082 31.047 31.047 0 0 1 6.375-.082 30.168 30.168 0 0 1 12.105 3.828 29.681 29.681 0 0 1 5.176 3.727 29.64 29.64 0 0 1 4.29 4.722 30.645 30.645 0 0 1 3.21 5.516 29.84 29.84 0 0 1 2.637 12.418c0 2.676-.348 5.305-1.043 7.879a37.075 37.075 0 0 1 5.574 2.707 36.787 36.787 0 0 1 5.027 3.633c1.56 1.363 3 2.843 4.317 4.453a35.28 35.28 0 0 1 6.039 10.77 34.74 34.74 0 0 1 1.543 6.003c.336 2.051.504 4.11.492 6.18a36.786 36.786 0 0 1-.594 6.176 36.149 36.149 0 0 1-4.29 11.594 35.767 35.767 0 0 1-3.58 5.058 35.478 35.478 0 0 1-6.856 6.258 35.58 35.58 0 0 1-8.239 4.277 35.297 35.297 0 0 1-12.144 2.164Zm-17.887-10.804c.54 0 1.028.152 1.48.437a30.982 30.982 0 0 0 5.794 2.977 31.249 31.249 0 0 0 6.312 1.66c2.16.324 4.328.414 6.504.273a30.802 30.802 0 0 0 6.414-1.136 29.69 29.69 0 0 0 11.383-6.184 31.277 31.277 0 0 0 4.445-4.762 30.443 30.443 0 0 0 5.36-11.812c.46-2.14.68-4.305.668-6.48 0-2.192-.246-4.352-.723-6.481a30.618 30.618 0 0 0-2.102-6.184 30.041 30.041 0 0 0-7.851-10.305 29.79 29.79 0 0 0-11.442-6.093 2.53 2.53 0 0 1-1.671-1.403 2.534 2.534 0 0 1 0-2.203 24.634 24.634 0 0 0 1.582-8.718 28.89 28.89 0 0 0-.176-2.965 24.783 24.783 0 0 0-1.418-5.758 25.736 25.736 0 0 0-2.73-5.27 29.208 29.208 0 0 0-1.813-2.34 27.306 27.306 0 0 0-2.09-2.109 25.245 25.245 0 0 0-7.547-4.656 25.01 25.01 0 0 0-8.695-1.692c-1.988-.02-3.95.196-5.887.637-.965.23-1.918.516-2.844.848a23.976 23.976 0 0 0-7.648 4.46 22.666 22.666 0 0 0-2.14 2.06 25.16 25.16 0 0 0-1.88 2.292 25.845 25.845 0 0 0-2.859 5.192 23.864 23.864 0 0 0-1.559 5.719c-.14.98-.23 1.972-.257 2.96-.012.993.011 1.985.101 2.965.106.989.25 1.969.465 2.934.207.969.477 1.926.8 2.863.286.785.216 1.535-.218 2.254-.394.73-1 1.172-1.816 1.328a29.744 29.744 0 0 0-12.043 5.406 30.003 30.003 0 0 0-4.856 4.536 29.184 29.184 0 0 0-3.746 5.488 30.248 30.248 0 0 0-3.515 12.742 30.01 30.01 0 0 0 1.12 9.875 30.044 30.044 0 0 0 4.274 8.977 29.967 29.967 0 0 0 6.941 7.12 30.037 30.037 0 0 0 8.875 4.477 29.742 29.742 0 0 0 13.149 1.094 29.713 29.713 0 0 0 12.363-4.61c.457-.288.957-.425 1.496-.413Zm0 0"/><path fill="#585d60" d="M485.027 358.094h5.5v99.195h-5.5Zm0 0"/><path fill="#585d60" d="m466.727 390.48 3.578-4.187 19.27 16.527-3.583 4.188Zm612.789-17.12h5.507v83.93h-5.511Zm0 0"/><path fill="#585d60" d="M1082.27 436.734a31.19 31.19 0 0 1-5.989-.593 30.56 30.56 0 0 1-8.468-3.047 30.5 30.5 0 0 1-7.231-5.364 30.008 30.008 0 0 1-3.824-4.664 31.168 31.168 0 0 1-2.836-5.304 30.392 30.392 0 0 1-2.34-11.746c0-15.844 27.031-77.762 28.188-80.38.48-1.093 1.304-1.636 2.5-1.648 1.214 0 2.046.543 2.539 1.649 1.148 2.617 28.18 64.535 28.18 80.379 0 2.007-.208 4.015-.61 5.988a30.618 30.618 0 0 1-4.582 11.078 30.337 30.337 0 0 1-8.473 8.461 30.968 30.968 0 0 1-5.308 2.848 31.185 31.185 0 0 1-5.758 1.75c-1.977.39-3.973.59-5.988.593Zm0-103.046c-8.836 20.66-25.176 61.273-25.176 72.328a25.165 25.165 0 0 0 7.66 17.296 24.84 24.84 0 0 0 3.785 3.028 25.217 25.217 0 0 0 4.29 2.226 24.803 24.803 0 0 0 4.64 1.375c.793.157 1.593.27 2.398.348a24.987 24.987 0 0 0 4.84 0 24.718 24.718 0 0 0 2.395-.348 24.364 24.364 0 0 0 2.355-.578 25.11 25.11 0 0 0 10.363-6.05 24.389 24.389 0 0 0 1.657-1.766 24.369 24.369 0 0 0 1.484-1.918 24.98 24.98 0 0 0 2.379-4.215 25.42 25.42 0 0 0 2.148-9.398c0-11.055-16.383-51.668-25.218-72.329Zm0 0"/><path fill="#585d60" d="m1080.324 397.074 11.645-11.66 3.89 3.906-11.644 11.64Zm304.172 4.203h-5.5V340.41l-71.91-59.508 3.484-4.277 72.938 60.332c.328.262.578.582.75.961.176.379.254.777.238 1.195Zm-160.559-125.285h63.493v5.516h-63.493Zm0 0"/><path fill="#585d60" d="M1306.852 454.535h-5.497v-114.07l-77.414-58.25-77.43 58.25v113.398h-5.5v-114.75c0-.918.364-1.652 1.094-2.203l80.172-60.336a2.582 2.582 0 0 1 1.66-.554c.606 0 1.16.18 1.649.554l80.168 60.336c.738.55 1.098 1.285 1.098 2.2Zm0 0"/><path fill="#585d60" d="M1211.547 386.887h-30.277a2.589 2.589 0 0 1-1.946-.801 2.54 2.54 0 0 1-.808-1.957V342.37c0-.762.27-1.418.808-1.96a2.57 2.57 0 0 1 1.946-.798h30.277c.758 0 1.406.27 1.945.797.551.535.824 1.192.813 1.961v41.758c0 .773-.274 1.418-.813 1.957a2.589 2.589 0 0 1-1.945.8Zm-27.52-5.5h24.766v-36.262h-24.766Zm0 0"/><path fill="#585d60" d="M1182.21 355.344h30.302v5.508h-30.301Zm81.626 31.543h-30.277a2.589 2.589 0 0 1-1.946-.801 2.568 2.568 0 0 1-.797-1.957V342.37a2.726 2.726 0 0 1 .79-1.96c.257-.259.554-.458.894-.595a2.66 2.66 0 0 1 1.059-.203h30.277c.762 0 1.418.27 1.945.797.555.535.824 1.192.813 1.961v41.758c0 .773-.27 1.418-.813 1.957a2.56 2.56 0 0 1-1.945.8Zm-27.524-5.5h24.782v-36.262h-24.782Zm0 0"/><path fill="#585d60" d="M1234.496 355.344h30.309v5.508h-30.309Zm-22.871 101.277h-30.277a2.66 2.66 0 0 1-1.059-.203 2.608 2.608 0 0 1-.894-.598 2.67 2.67 0 0 1-.594-.898 2.653 2.653 0 0 1-.196-1.059v-55.101c0-.762.27-1.403.797-1.946a2.545 2.545 0 0 1 1.946-.812h30.277c.758 0 1.418.27 1.945.812.543.543.813 1.184.813 1.946v55.101c0 .758-.27 1.418-.813 1.961a2.56 2.56 0 0 1-1.945.797Zm-27.523-5.512h24.78v-49.593h-24.78Zm0 0"/><path fill="#585d60" d="M1186.86 418.059h5.5v13.77h-5.5Zm210.906 39.23h-34.57a19.08 19.08 0 0 1-3.555-.36 17.79 17.79 0 0 1-3.426-1.015 18.327 18.327 0 0 1-5.973-3.867 18.611 18.611 0 0 1-3.297-4.211 18.542 18.542 0 0 1-1.972-4.973 18.353 18.353 0 0 1-.5-3.539c-.059-1.195 0-2.387.175-3.57.168-1.188.454-2.34.852-3.477a18.255 18.255 0 0 1 3.566-6.156 18.59 18.59 0 0 1 2.59-2.46c1.895-1.5 4-2.587 6.324-3.259a18.935 18.935 0 0 1 3.516-.672v-1.328a18.235 18.235 0 0 1 1.441-7.172 18.87 18.87 0 0 1 4.07-6.093 18.833 18.833 0 0 1 4.434-3.282 18.847 18.847 0 0 1 5.188-1.859c1.21-.23 2.422-.36 3.656-.36 1.238 0 2.461.13 3.66.364a19.62 19.62 0 0 1 3.528 1.066c2.3.957 4.332 2.313 6.093 4.07a18.078 18.078 0 0 1 2.329 2.848 17.184 17.184 0 0 1 1.742 3.246 18.875 18.875 0 0 1 1.082 3.516c.242 1.211.36 2.434.37 3.66v1.324c1.173.118 2.317.32 3.454.657a18.453 18.453 0 0 1 6.23 3.156 18.656 18.656 0 0 1 6.18 8.387c.418 1.093.727 2.23.918 3.386.191 1.16.285 2.332.258 3.52a20.161 20.161 0 0 1-.387 3.488 19.464 19.464 0 0 1-1.043 3.363 18.32 18.32 0 0 1-1.648 3.102 18.538 18.538 0 0 1-2.192 2.742 18.745 18.745 0 0 1-2.648 2.297c-2.953 2.082-6.234 3.227-9.844 3.426Zm-33.692-5.512h33.586a13.07 13.07 0 0 0 4.88-1.246 13.102 13.102 0 0 0 3.17-2.094 13.272 13.272 0 0 0 4.465-10.156 13.285 13.285 0 0 0-1.038-4.945 13.214 13.214 0 0 0-2.797-4.203 13.086 13.086 0 0 0-4.172-2.844 12.796 12.796 0 0 0-4.922-1.098 6.934 6.934 0 0 0-1.273 0 2.59 2.59 0 0 1-1.309-.175 2.556 2.556 0 0 1-1.059-.79 2.608 2.608 0 0 1-.57-2.488 13.76 13.76 0 0 0 .453-3.011 13.222 13.222 0 0 0-2.719-8.566 13.207 13.207 0 0 0-4.671-3.852c-.918-.45-1.871-.79-2.864-1.016a12.737 12.737 0 0 0-3.027-.363 12.46 12.46 0 0 0-3.023.363 13.46 13.46 0 0 0-2.875 1.016 13.395 13.395 0 0 0-2.547 1.66 12.977 12.977 0 0 0-3.684 4.82 13.24 13.24 0 0 0-.918 2.899 12.954 12.954 0 0 0 .219 6.054 2.637 2.637 0 0 1-.578 2.485c-.281.351-.63.609-1.047.78a2.565 2.565 0 0 1-1.293.184c-.43-.039-.86-.039-1.29 0-.874 0-1.741.079-2.605.247-2.636.523-4.902 1.738-6.8 3.644a12.416 12.416 0 0 0-1.645 2.023 13.115 13.115 0 0 0-1.238 2.293c-.332.809-.578 1.641-.746 2.497a12.73 12.73 0 0 0-.258 2.605c0 .875.078 1.734.258 2.586.332 1.738.996 3.34 1.984 4.805.477.726 1.027 1.39 1.649 2.011a13.715 13.715 0 0 0 2.011 1.664c.73.473 1.489.887 2.305 1.22.797.335 1.633.593 2.48.76.864.165 1.73.259 2.606.259h.902Zm-56.117-152.199h-19.262a2.532 2.532 0 0 1-1.945-.812 2.532 2.532 0 0 1-.813-1.946V261c0-.758.27-1.406.813-1.945a2.56 2.56 0 0 1 1.945-.813h19.262c.758 0 1.406.274 1.945.813a2.64 2.64 0 0 1 .813 1.945v35.82a2.64 2.64 0 0 1-.813 1.946 2.532 2.532 0 0 1-1.945.812Zm-16.508-5.515h13.754v-30.305h-13.754Zm11.012 41.335h78.328v5.5h-78.332Zm0 0"/></svg>