<svg width="44" height="45" viewBox="0 0 44 45" fill="none" xmlns="http://www.w3.org/2000/svg">
<path d="M4.39941 0.65332H39.5996C40.4669 0.65332 41.2989 0.998086 41.9121 1.61133C42.5251 2.22445 42.87 3.05585 42.8701 3.92285V16.2432C42.8701 27.7477 37.3054 34.7111 32.6504 38.5312C27.6087 42.6493 22.606 44.0459 22.4033 44.1006H22.4023C22.1431 44.171 21.8696 44.1711 21.6104 44.1006H21.6094C21.4047 44.0453 16.3963 42.6484 11.3623 38.5312C6.69435 34.7113 1.12988 27.7478 1.12988 16.2432V3.92285C1.13 3.05576 1.47476 2.22446 2.08789 1.61133C2.70102 0.998194 3.53232 0.653442 4.39941 0.65332ZM4.14941 16.2432C4.14941 24.5191 7.22025 31.2387 13.2793 36.1953C15.8536 38.3009 18.7772 39.9387 21.917 41.0352L22 41.0645L22.083 41.0352C25.0656 39.989 27.8537 38.4581 30.335 36.5049L30.8271 36.1084C36.8153 31.1605 39.8496 24.4679 39.8496 16.2432V3.67285H4.14941V16.2432ZM30.7998 12.9727C30.9981 12.9727 31.1947 13.011 31.3779 13.0869C31.5612 13.1628 31.7279 13.2747 31.8682 13.415C32.0084 13.5553 32.1194 13.722 32.1953 13.9053C32.2712 14.0886 32.3105 14.285 32.3105 14.4834C32.3105 14.6818 32.2712 14.8782 32.1953 15.0615C32.1194 15.2448 32.0084 15.4115 31.8682 15.5518L19.5479 27.8721C19.4077 28.0123 19.2408 28.1233 19.0576 28.1992C18.8744 28.2751 18.6778 28.3145 18.4795 28.3145C18.2812 28.3144 18.0846 28.2752 17.9014 28.1992C17.7182 28.1232 17.5513 28.0124 17.4111 27.8721L12.1318 22.5918C11.8485 22.3085 11.6885 21.9241 11.6885 21.5234C11.6885 21.1227 11.8485 20.7384 12.1318 20.4551C12.4152 20.1718 12.7995 20.0127 13.2002 20.0127C13.6008 20.0128 13.9853 20.1718 14.2686 20.4551L18.3027 24.4922L18.4795 24.6689L18.6562 24.4922L29.7314 13.415C29.8718 13.2747 30.0384 13.1628 30.2217 13.0869C30.4049 13.011 30.6015 12.9727 30.7998 12.9727Z" fill="#1D1D1F" stroke="white" stroke-width="0.5"/>
</svg>
