<svg width="44" height="45" viewBox="0 0 44 45" fill="none" xmlns="http://www.w3.org/2000/svg">
<path d="M22 0.65332C23.9329 0.65332 25.4003 2.04285 26.7725 3.36133H26.7734C27.1588 3.73008 27.5585 4.11283 27.9502 4.43945C28.2912 4.72376 28.6389 4.97635 28.9785 5.1416L29.123 5.20703C29.4813 5.35598 29.9402 5.42894 30.4219 5.46875C30.6644 5.48878 30.9188 5.50083 31.1768 5.50879L31.9531 5.52441C33.8929 5.55423 35.9529 5.59649 37.3799 7.02344C38.6285 8.27206 38.8168 10.0053 38.8643 11.7188L38.8789 12.4502C38.8867 12.9636 38.8945 13.4962 38.9346 13.9814C38.9744 14.4631 39.0473 14.922 39.1963 15.2803C39.3554 15.6665 39.6391 16.0648 39.9639 16.4541C40.1271 16.6498 40.3047 16.8471 40.4873 17.0439L41.042 17.6299C42.3607 19.0043 43.75 20.4704 43.75 22.4033C43.75 24.3362 42.3605 25.8036 41.042 27.1758V27.1768C40.6732 27.5621 40.2905 27.9618 39.9639 28.3535C39.6796 28.6945 39.427 29.0422 39.2617 29.3818L39.1963 29.5264C39.0473 29.8846 38.9744 30.3435 38.9346 30.8252C38.9145 31.0677 38.9025 31.3221 38.8945 31.5801L38.8789 32.3564C38.8491 34.2962 38.8068 36.3563 37.3799 37.7832C36.1313 39.0318 34.398 39.2202 32.6846 39.2676L31.9531 39.2822C31.4397 39.29 30.9071 39.2978 30.4219 39.3379C30.0004 39.3727 29.5961 39.4326 29.2617 39.5469L29.123 39.5996C28.7368 39.7588 28.3385 40.0424 27.9492 40.3672C27.7535 40.5305 27.5562 40.7081 27.3594 40.8906L26.7734 41.4453C25.399 42.764 23.933 44.1533 22 44.1533C20.0671 44.1533 18.5997 42.7638 17.2275 41.4453H17.2266C16.8412 41.0766 16.4415 40.6938 16.0498 40.3672C15.7088 40.0829 15.3611 39.8303 15.0215 39.665L14.877 39.5996C14.5187 39.4507 14.0598 39.3777 13.5781 39.3379C13.3356 39.3179 13.0812 39.3058 12.8232 39.2979L12.0469 39.2822C10.1071 39.2524 8.04707 39.2102 6.62012 37.7832C5.3715 36.5346 5.18315 34.8013 5.13574 33.0879L5.12109 32.3564C5.11327 31.843 5.10551 31.3104 5.06543 30.8252C5.0306 30.4037 4.97077 29.9994 4.85645 29.665L4.80371 29.5264C4.64456 29.1401 4.36093 28.7419 4.03613 28.3525C3.87286 28.1569 3.69527 27.9595 3.5127 27.7627L2.95801 27.1768C1.63929 25.8024 0.25 24.3363 0.25 22.4033C0.25 20.4704 1.63954 19.003 2.95801 17.6309V17.6299C3.32676 17.2445 3.70951 16.8448 4.03613 16.4531C4.32044 16.1121 4.57303 15.7644 4.73828 15.4248L4.80371 15.2803C4.95266 14.922 5.02562 14.4631 5.06543 13.9814C5.10548 13.4966 5.11327 12.9643 5.12109 12.4512C5.16089 10.509 5.19327 8.45029 6.62012 7.02344C7.86873 5.77482 9.602 5.58647 11.3154 5.53906L12.0469 5.52441C12.5605 5.51659 13.0943 5.50886 13.5801 5.46875C14.062 5.42896 14.5203 5.35519 14.877 5.20605C15.2631 5.04687 15.6616 4.76416 16.0508 4.43945C16.2465 4.27619 16.4438 4.09859 16.6406 3.91602L17.2266 3.36133C18.601 2.04261 20.067 0.65332 22 0.65332ZM22 3.2959C21.5179 3.2959 21.0128 3.58522 20.5371 3.94629C20.0516 4.31486 19.5437 4.80099 19.0557 5.26855C18.0664 6.21626 17.084 7.15492 15.8877 7.65039C14.7415 8.12382 13.4226 8.14818 12.0869 8.16797C11.3994 8.17773 10.6797 8.18841 10.0547 8.27539C9.43939 8.36105 8.85715 8.527 8.49023 8.89258C8.1228 9.25883 7.95646 9.84377 7.87109 10.46C7.78434 11.0862 7.77441 11.8067 7.76465 12.4902C7.74486 13.826 7.7205 15.1448 7.24707 16.291C6.75165 17.4872 5.80931 18.4773 4.86621 19.458C4.40018 19.9426 3.9132 20.4507 3.54395 20.9375C3.18254 21.414 2.89258 21.9212 2.89258 22.4033C2.89258 22.8854 3.1819 23.3906 3.54297 23.8662C3.91154 24.3517 4.39767 24.8596 4.86523 25.3477C5.81294 26.3369 6.7516 27.3193 7.24707 28.5156C7.7205 29.6618 7.74486 30.9807 7.76465 32.3164C7.77441 33.0039 7.78509 33.7237 7.87207 34.3486C7.95773 34.9639 8.12368 35.5462 8.48926 35.9131C8.85551 36.2805 9.44045 36.4469 10.0566 36.5322C10.6829 36.619 11.4034 36.6289 12.0869 36.6387C13.4226 36.6585 14.7415 36.6828 15.8877 37.1562C17.0839 37.6517 18.074 38.594 19.0547 39.5371C19.5393 40.0031 20.0474 40.4901 20.5342 40.8594C21.0107 41.2208 21.5179 41.5107 22 41.5107C22.4821 41.5107 22.9872 41.2214 23.4629 40.8604C23.9485 40.4917 24.4562 40.0048 24.9443 39.5371C25.9335 38.5895 26.9161 37.6517 28.1123 37.1562C29.2585 36.6828 30.5774 36.6585 31.9131 36.6387C32.6006 36.6289 33.3203 36.6182 33.9453 36.5312C34.5606 36.4456 35.1429 36.2796 35.5098 35.9141C35.8772 35.5478 36.0435 34.9629 36.1289 34.3467C36.2157 33.7205 36.2256 32.9999 36.2354 32.3164C36.2551 30.9807 36.2795 29.6618 36.7529 28.5156C37.2483 27.3196 38.1853 26.3367 39.1328 25.3477L39.1338 25.3486C39.5998 24.864 40.0868 24.3559 40.4561 23.8691C40.8175 23.3927 41.1074 22.8854 41.1074 22.4033C41.1074 21.9212 40.8181 21.4161 40.457 20.9404C40.0884 20.4548 39.6015 19.9472 39.1338 19.459C38.1861 18.4698 37.2484 17.4873 36.7529 16.291C36.2795 15.1448 36.2551 13.826 36.2354 12.4902C36.2256 11.8027 36.2149 11.083 36.1279 10.458C36.0423 9.84271 35.8763 9.26047 35.5107 8.89355C35.1445 8.52612 34.5595 8.35978 33.9434 8.27441C33.3171 8.18766 32.5966 8.17773 31.9131 8.16797C30.5774 8.14818 29.2585 8.12382 28.1123 7.65039C26.9161 7.15497 25.926 6.21263 24.9453 5.26953C24.4607 4.8035 23.9526 4.31652 23.4658 3.94727C22.9893 3.58586 22.4821 3.2959 22 3.2959ZM22 28.9395C22.5588 28.9395 23.0951 29.1615 23.4902 29.5566C23.8851 29.9517 24.1073 30.4873 24.1074 31.0459C24.1074 31.4627 23.9835 31.8703 23.752 32.2168C23.5204 32.5633 23.1916 32.8337 22.8066 32.9932C22.4216 33.1526 21.9976 33.1946 21.5889 33.1133C21.1801 33.032 20.8045 32.8308 20.5098 32.5361C20.2152 32.2415 20.0149 31.8657 19.9336 31.457C19.8523 31.0484 19.8943 30.6252 20.0537 30.2402C20.2132 29.8552 20.4826 29.5255 20.8291 29.2939C21.1756 29.0624 21.5832 28.9395 22 28.9395ZM22 11.6533C22.3504 11.6533 22.6868 11.7923 22.9346 12.04C23.1824 12.2878 23.3213 12.6242 23.3213 12.9746V23.9746C23.3213 24.325 23.1823 24.6614 22.9346 24.9092C22.6868 25.157 22.3505 25.2959 22 25.2959C21.6495 25.2959 21.3132 25.157 21.0654 24.9092C20.8177 24.6614 20.6787 24.325 20.6787 23.9746V12.9746C20.6787 12.6242 20.8176 12.2878 21.0654 12.04C21.3132 11.7923 21.6496 11.6533 22 11.6533Z" fill="#1D1D1F" stroke="white" stroke-width="0.5"/>
</svg>
