<svg width="24" height="24" viewBox="0 0 24 24" fill="none" xmlns="http://www.w3.org/2000/svg">
<g clip-path="url(#clip0_789_1245)">
<path d="M12 0.25C15.1152 0.253664 18.1019 1.49255 20.3047 3.69531C22.5074 5.89807 23.7463 8.88483 23.75 12L23.7422 12.4346C23.6618 14.6063 22.98 16.7167 21.7695 18.5283C20.4784 20.4604 18.643 21.9662 16.4961 22.8555C14.3493 23.7446 11.9871 23.9777 9.70801 23.5244C7.42873 23.071 5.33467 21.9519 3.69141 20.3086C2.04814 18.6653 0.928962 16.5713 0.475586 14.292C0.0223244 12.0129 0.255361 9.65074 1.14453 7.50391C2.0338 5.35701 3.53958 3.52156 5.47168 2.23047C7.28333 1.01997 9.39374 0.338166 11.5654 0.257812L12 0.25ZM2.73438 16.7295C3.42035 18.0688 4.38863 19.2443 5.57129 20.1748C6.75384 21.1051 8.12393 21.7687 9.58691 22.1201L10.2617 22.2822L9.84473 21.7266C8.68184 20.1762 7.82317 18.4196 7.31348 16.5498L7.2627 16.3652H2.54883L2.73438 16.7295ZM16.6865 16.5498C16.1768 18.4196 15.3182 20.1762 14.1553 21.7266L13.7383 22.2822L14.4131 22.1201C15.8761 21.7687 17.2462 21.1051 18.4287 20.1748C19.6114 19.2443 20.5796 18.0688 21.2656 16.7295L21.4512 16.3652H16.7373L16.6865 16.5498ZM8.76074 16.6885C9.36357 18.6615 10.4092 20.4709 11.8174 21.9785L12 22.1738L12.1826 21.9785C13.5914 20.4712 14.637 18.6617 15.2393 16.6885L15.3379 16.3652H8.66211L8.76074 16.6885ZM1.99023 9.16211C1.72821 10.0851 1.5949 11.0405 1.5957 12L1.60254 12.3594C1.63094 13.1976 1.76095 14.0302 1.99023 14.8379L2.04102 15.0195H6.96582L6.9209 14.7314C6.64171 12.9214 6.64171 11.0786 6.9209 9.26855L6.96582 8.98047H2.04102L1.99023 9.16211ZM8.30371 9.18848C7.98199 11.049 7.98199 12.951 8.30371 14.8115L8.33984 15.0195H15.6699L15.7061 14.8115C16.0278 12.951 16.0278 11.049 15.7061 9.18848L15.6699 8.98047H8.33984L8.30371 9.18848ZM17.0791 9.26855C17.3583 11.0786 17.3583 12.9214 17.0791 14.7314L17.0342 15.0195H21.959L22.0098 14.8379C22.2718 13.9149 22.4051 12.9595 22.4043 12L22.3975 11.6406C22.3691 10.8024 22.2391 9.96982 22.0098 9.16211L21.959 8.98047H17.0342L17.0791 9.26855ZM9.58691 1.87988C8.12393 2.23133 6.75384 2.89493 5.57129 3.8252C4.38863 4.75565 3.42035 5.93116 2.73438 7.27051L2.54883 7.63477H7.2627L7.31348 7.4502C7.82317 5.58037 8.68184 3.82383 9.84473 2.27344L10.2617 1.71777L9.58691 1.87988ZM11.8174 2.02148C10.4086 3.52876 9.36297 5.33826 8.76074 7.31152L8.66211 7.63477H15.3379L15.2393 7.31152C14.6364 5.33855 13.5908 3.52913 12.1826 2.02148L12 1.82617L11.8174 2.02148ZM14.1553 2.27344C15.3182 3.82383 16.1768 5.58037 16.6865 7.4502L16.7373 7.63477H21.4512L21.2656 7.27051C20.5796 5.93116 19.6114 4.75565 18.4287 3.8252C17.2462 2.89493 15.8761 2.23133 14.4131 1.87988L13.7383 1.71777L14.1553 2.27344Z" fill="white" stroke="#323333" stroke-width="0.5"/>
</g>
<defs>
<clipPath id="clip0_789_1245">
<rect width="24" height="24" fill="white"/>
</clipPath>
</defs>
</svg>
